<svg id="Layer_1" xmlns="http://www.w3.org/2000/svg" viewBox="0 0 432.32 611.77"><defs><style>.cls-1{fill:#ffce2a}.cls-2{fill:#ec915a}.cls-3{fill:#a1aeb7}.cls-4{fill:#7ac943}</style></defs><path d="M416.67 14.77c-.36-.34-.77-.31-1.16-.27-.95.11-1.91.22-2.86.35-1.93.27-3.74.21-5.53-.88-1.99-1.2-4.3-1.49-6.64-1.79-4.93-.63-9.54.35-14.1 1.98-2.72.98-5.47 1.8-8.36 2.07-.64.06-1.27.1-1.91.14-1.75.12-3.33-.33-4.73-1.39-2.36-1.81-5-2.76-7.99-2.81-2.02-.04-3.98-.44-5.84-1.22-2.59-1.09-5.26-1.24-8.01-.94-1.67.18-3.33.48-5.02.41-2.09-.09-4.14-.38-6.16-.91-3.35-.88-6.77-1.22-10.22-1.11-4.24.14-8.48.08-12.72-.08-3.29-.12-6.53.06-9.77.79-5.44 1.22-10.93 1.41-16.43.29-1.67-.34-3.35-.18-5.02.02-2.86.34-5.71.73-8.57 1.09-.71.09-1.43.16-2.15.16-4-.01-8-.03-12-.08-3.95-.06-7.74-1.06-11.52-2.08-2.4-.65-4.81-1.19-7.3-1.37-1.12-.08-2.23-.12-3.35-.04-1.51.11-3.04.1-4.56.15-6.15.21-12.31.37-18.44 1.03-4.22.46-8.38 1.25-12.52 2.16-3.3.72-6.62 1.1-10 .92-1.61-.09-3.19.13-4.77.4-4.45.75-8.9.78-13.36.05-1.1-.18-2.22-.33-3.33-.42-1.68-.13-3.33-.41-4.95-.86-.61-.17-1.26-.24-1.89-.25-5.52-.02-11.04-.09-16.56.04-2.33.06-4.6-.03-6.89-.47-1.64-.32-3.32-.51-5.01-.49-1.93.03-3.8-.48-5.7-.78-2.86-.45-5.74-.44-8.62-.42-.63 0-1.29.08-1.9.25-2.18.61-4.41.71-6.65.81-3.92.16-7.83.32-11.75.44-2.32.07-4.63.08-6.95-.21-2.8-.35-5.6.02-8.37.38-3.19.42-6.38.45-9.58.44-2.56 0-5.11 0-7.66.34-1.98.27-3.99.15-5.99-.03-1.43-.13-2.87-.21-4.31-.24-2.48-.04-4.92-.35-7.39-.65-5.46-.66-10.86-2.06-16.44-1.58-.55.05-1.11-.09-1.67-.14-1.21-.1-2.42 0-3.53.5-2.28 1.03-4.7 1.53-7.11 2.07-1.81.41-3.66.27-5.5.19-.56-.02-.95.18-1.07.72-.46 1.97-1.28 3.78-2.28 5.52-.37.64-.42 1.36-.49 2.08-.22 2.07-.38 4.15-1.01 6.14-.25.79-.18 1.58-.07 2.37.28 1.98.54 3.96.84 5.94.31 2.07.35 4.13 0 6.21-.34 1.97-.59 3.96-.53 5.97.07 2.66-.44 5.26-.81 7.86-.3 2.07-.43 4.12-.42 6.2.02 2.8-.14 5.6-.29 8.39-.1 1.84-.03 3.67.13 5.51.14 1.51.23 3.03.32 4.55.14 2.47.24 4.95.37 7.42.2 3.79-.41 7.5-1.03 11.21-.4 2.38-.53 4.77-.38 7.17.28 4.47.59 8.94.89 13.41.03.48.07.96.06 1.44-.14 7.28.04 14.56-.38 21.83-.2 3.43-.22 6.87-.21 10.31.01 6.08-.42 12.15 0 18.23.09 1.27-.07 2.55-.09 3.83-.09 6.25-.82 12.45-1.33 18.66-.38 4.58-.12 9.11.39 13.64.26 2.3.62 4.59.99 6.88.29 1.84.18 3.67.04 5.51-.24 3.27-.44 6.55-.8 9.8-.37 3.26-.49 6.54-.68 9.81-.21 3.6-.77 7.15-1.15 10.73-.52 4.77-.9 9.55-1.33 14.33-.43 4.7-.87 9.4-1.29 14.1-.34 3.91-.54 7.81-.36 11.74.12 2.79.06 5.6-.05 8.4-.25 6.33-.17 12.63.89 18.9.28 1.64.26 3.35.25 5.03-.02 2.88.07 5.75.35 8.63.23 2.39.32 4.79.45 7.18.34 6.23.57 12.47 1.03 18.69 1.24 16.61 1.11 33.25 1.31 49.88.03 2.09-.34 4.14-.66 6.19-.69 4.51-1.14 9.04-1.35 13.6-.25 5.44-.47 10.88-.17 16.31.21 3.83.63 7.65 1.01 11.47.49 4.85 1.04 9.7 1.73 14.53.61 4.29 1.51 8.51 2.63 12.67 1.8 6.67 1.95 13.44 1.45 20.24-.68 9.25-1.73 18.47-3.02 27.66-.47 3.32-1.01 6.64-1.53 9.96-.52 3.33-.64 6.69-.74 10.04-.1 3.12-.11 6.24-.11 9.36 0 8.36-.9 16.59-3.1 24.68-1.03 3.78-1.49 7.69-2.17 11.55-.57 3.23-1.08 6.47-1.25 9.75-.05.88-.1 1.76-.1 2.64 0 .3.08.79.25.86 1.49.59.84 1.67.66 2.63-.12.63-.27 1.25-.47 1.85-.16.48-.49.85-1.04.83-.62-.02-.77-.53-.8-1.01-.07-1.2-.08-2.4-.13-3.6-.02-.46.1-.99-.41-1.29-1.04-.62-.89-1.6-.75-2.56.38-2.69.68-5.39 1.23-8.05.31-1.5.43-3.01.58-4.51.35-3.35 1.32-6.57 2.1-9.82.75-3.16.86-6.32.33-9.51-.2-1.2-.22-2.39.03-3.58.23-1.1.45-2.19.71-3.28.34-1.41.51-2.83.56-4.27.1-2.47.11-4.95.31-7.42.4-5.02.55-10.06 1.61-15.01.29-1.34.37-2.69.36-4.05-.01-2.08.04-4.16-.02-6.24-.04-1.69.1-3.37.52-5 .58-2.21.54-4.43.31-6.67-.13-1.27-.26-2.55-.26-3.83 0-2.41-.11-4.78-.82-7.12-.27-.89-.26-1.9-.25-2.85.01-2.24-.13-4.47-.32-6.71-.25-3.03-.27-6.06.13-9.1.48-3.66.63-7.32-.16-10.98-.53-2.43-.46-4.93-.68-7.39-.39-4.39-.3-8.79-.56-13.18-.26-4.4-.35-8.79-.22-13.19.22-6.98-.55-13.89-1.23-20.82-.6-6.05-1.29-12.08-.88-18.19.3-4.55.48-9.11.55-13.67.06-4.16 0-8.32-.19-12.47-.19-4.09.15-8.16.45-12.22.26-3.51.78-6.99 1.12-10.49.17-1.75.3-3.51.32-5.27.1-6.95.59-13.92-.14-20.86-.61-5.81-.8-11.65-1.2-17.47-.54-7.84-.16-15.67-.22-23.51-.03-4.08-.02-8.16-.07-12.24-.07-5.38.48-10.71 1.57-15.97 2.09-10.09 2.51-20.3 2.15-30.56-.09-2.55-.38-5.1-.87-7.62-.91-4.65-1.15-9.37-1.35-14.08-.12-2.8-.38-5.59-.72-8.36-.37-3.02-.64-6.04-.62-9.08.03-5.04-.07-10.08-.05-15.12.01-3.92.3-7.83.62-11.74.22-2.79.4-5.58.59-8.38l.84-11.97c.03-.48.09-.96.1-1.44.12-7.84.24-15.67.34-23.51.05-3.84.07-7.66.64-11.48.46-3.08.64-6.2.86-9.31.38-5.35.67-10.7 1.04-16.04.16-2.31.43-4.62.66-6.92.1-.96.15-1.91 0-2.87-.83-5.3-.94-10.67-1.54-15.99-.21-1.91-.39-3.82-.61-5.73-.32-2.71-.33-5.43-.14-8.15.25-3.44.3-6.87.22-10.31-.04-1.79.25-3.47.89-5.15 1.1-2.84 2.01-5.73 2.07-8.82.03-1.36-.03-2.71-.28-4.06-.27-1.49-.45-3.01-.51-4.52-.07-1.64.31-1.93 2-1.78.71.06 1.43.21 2.1.44 2.15.76 4.37.92 6.62.91 1.52 0 3.04.03 4.56-.02 2.4-.08 4.77-.33 7.14-.76 4.09-.74 8.23-1.09 12.39-1.09 1.7 0 3.29.64 4.97.73.72.04 1.43.23 2.14.22 3.37-.05 6.71.22 10.05.6 3.02.34 6.06.36 9.11.37 5.2.01 10.4.07 15.6.16 2.18.04 4.3-.22 6.42-.69 3.9-.86 7.82-1.65 11.74-2.45.62-.13 1.26-.25 1.89-.28 3.45-.17 6.83-.81 10.16-1.69 2.96-.79 5.93-1.28 8.99-1.31 1.68-.01 3.35-.18 5.03-.28 4.96-.31 9.91-.31 14.87-.08 1.75.08 3.52.03 5.28-.04 2.69-.1 5.23.41 7.68 1.55 3.05 1.42 6.16 2.73 9.55 3.05 1.99.19 3.99.24 5.99.27 2.8.05 5.6.02 8.4.06 3.05.04 6.07-.38 9.07-.81 4.45-.64 8.9-.97 13.38-.27 5.39.84 10.82 1.08 16.27.91 1.68-.05 3.37-.06 5.04.09 4.23.36 8.47.33 12.71.45 1.2.03 2.39-.07 3.58-.25 2.94-.45 5.91-.42 8.85-.02 2.95.4 5.86.5 8.82-.06 2.43-.46 4.91-.65 7.38-.91 3.19-.34 6.25.11 8.99 1.87 1.77 1.14 3.69 1.35 5.72 1.42 6.33.23 12.61-.49 18.91-.82.64-.03 1.28-.12 1.92-.12 3.21.01 6.38-.4 9.54-.87 2.3-.35 4.63-.22 6.95-.28 5.51-.16 11.02-.48 16.54-.45 1.51 0 3.02-.36 4.53-.42 5.92-.23 11.83-.23 17.75.22 4.94.37 9.91.63 14.83-.24 2.04-.36 4.07-.82 6.11-1.22.31-.06.63-.11.95-.16 3.27-.5 6.53-.42 9.79.18 1.02.19 2.06.29 3.09.42 1.51.19 2.99.5 4.37 1.19 1.08.54 2.28.75 3.46.94 1.02.17 2.05.31 3.08.45 1.47.2 2.87.02 4.14-.83.53-.35 1.08-.68 1.65-.97 1.25-.65 2.56-.85 3.95-.45.77.22 1.57.31 2.35.49.67.15 1.14.55 1.37 1.21.65 1.81 1.29 3.61 1.02 5.6-.18 1.34.12 1.63 1.27 1.81.63.1 1.24.3 1.85.51.76.25 1.37.7 2 1.22 1.78 1.45 2.88 3.4 4.23 5.17.69.91 1.12 1.96 1.14 3.11.05 4.15.4 8.31-.05 12.47-.32 2.94-.5 5.89-.79 8.84-.12 1.27-.37 2.53-.53 3.8-.39 3.18-.62 6.36-.25 9.57.16 1.35.1 2.71-.07 4.07-.1.79-.16 1.6-.12 2.39.2 3.99.43 7.99.66 11.98.05.8.16 1.59.19 2.39.09 2.4.37 4.78.92 7.13.37 1.55.51 3.14.54 4.75.08 4.48.09 8.96-.09 13.43-.17 4.47-.18 8.95-.31 13.43-.09 3.28-.23 6.56-.43 9.83-.09 1.43-.46 2.84-.59 4.27-.28 3.27-.47 6.54-.71 9.81-.16 2.25.23 4.47.36 6.7.24 4.39.43 8.79.42 13.19 0 3.54-.69 7-1.19 10.48-.62 4.27-1.37 8.53-1.97 12.8-.6 4.22-.51 8.46-.12 12.69.38 4.07.31 8.15.09 12.22-.04.72-.14 1.44-.11 2.16.22 5.77-.38 11.5-.86 17.24-.11 1.35-.13 2.72-.15 4.08a223.4 223.4 0 0 1-.89 17.73c-.09 1.03-.12 2.08-.11 3.12.07 10.08-.1 20.16.16 30.24.06 2.56-.05 5.12-.59 7.64-.64 2.99-.69 6.03-.65 9.07.02 1.92.1 3.84.06 5.76-.09 4.09.35 8.13.81 12.19.84 7.31 1.58 14.63 1.54 22.01-.02 3.76-.21 7.52-.71 11.25-.73 5.51-.6 11.01 0 16.52.17 1.51.35 3.03.35 4.54-.01 6.18.77 12.29 1.58 18.39.32 2.38.53 4.76.71 7.16.36 4.78.8 9.56 1.24 14.33.31 3.34.58 6.69.88 10.03.28 3.12.34 6.23.4 9.34.05 2.8 0 5.6-.34 8.39-.13 1.03-.16 2.07-.17 3.11-.03 3.68-.45 7.34-.78 11-.12 1.34.09 2.46.81 3.62 1.35 2.18 2.35 4.55 3.08 7 .84 2.79 1.11 5.65.33 8.52-.32 1.16-.54 2.34-.95 3.47-2.37 6.54-4.35 13.22-6.96 19.67-.76 1.89-1.19 3.8-.85 5.85.21 1.26.29 2.54.45 3.81.64 5.33.74 10.69 1.02 16.03.02.4-.03.81.05 1.2.64 3.1.34 6.21.15 9.33-.31 4.96-.18 9.91.03 14.87.12 2.88.15 5.76.16 8.64 0 .95-.11 1.93-.33 2.85-.48 1.96-.69 3.95-.76 5.94-.1 3.06-.7 6.03-1.34 8.99-.65 2.97-1.13 5.96-1.36 9-.11 1.51-.27 3.03-.51 4.53-.6 3.67-.5 7.33.04 10.99.1.71.15 1.43.15 2.14 0 .17-.26.41-.45.48-.33.12-.65-.04-.76-.38-.15-.45-.25-.93-.32-1.4-.6-3.97-.76-7.95-.15-11.95.38-2.53.56-5.09.83-7.63.36-3.43 1.27-6.75 1.88-10.13.17-.95.32-1.89.37-2.84.15-2.63.3-5.27.9-7.85.32-1.41.36-2.85.32-4.3-.12-5.2-.28-10.39-.33-15.59-.03-2.64.11-5.28.24-7.91.11-2.4.34-4.79-.19-7.17-.05-.23-.05-.48-.06-.72-.17-3.75-.3-7.51-.52-11.26-.12-2.07-.39-4.14-.61-6.21-.03-.32-.15-.62-.58-.81-.81 2.09-1.18 4.29-1.59 6.46-1.79 9.51-3.49 19.03-5.28 28.53-1.1 5.83-1.69 11.71-2.06 17.62-.09 1.52-.16 3.04-.36 4.54-.51 3.86-.08 7.67.67 11.44.75 3.76 1.6 7.5 2.38 11.25.16.78.27 1.57.33 2.37.41 5.04.05 10.07-.08 15.11 0 .31-.04.65-.16.93-.08.18-.33.38-.52.4-.2.03-.51-.09-.62-.24-.5-.72-.94-1.49-1.09-2.38-.05-.31-.13-.75.18-.88.97-.42.82-1.24.86-2.02.19-3.52.16-7.04-.05-10.55-.08-1.35-.28-2.71-.62-4.02-1.09-4.18-1.85-8.43-2.57-12.68a29.34 29.34 0 0 1-.26-7.89c.39-3.9.65-7.81.93-11.72.37-5.12 1.32-10.14 2.25-15.17 1.21-6.6 2.6-13.18 3.67-19.81.81-5.05 1.83-10.07 3.42-14.95.33-1.01.49-2 .44-3.06-.16-3.6-.07-7.18.39-10.76.67-5.23.98-10.51 1.88-15.72l1.71-9.93c.21-1.26.37-2.53.6-3.79.21-1.1-.07-2.04-.69-2.94-1.05-1.51-2.15-2.99-3.42-4.32a91.766 91.766 0 0 1-6.83-8.04c-.43-.57-.78-1.21-1.16-1.81a7.794 7.794 0 0 1-1.21-4.33c.04-3.28.05-6.56.14-9.84.11-4.16.33-8.31.44-12.47.18-6.41.77-12.77 1.83-19.09.3-1.81.66-3.62 1.16-5.39 1.73-6.08 3.12-12.24 4.41-18.42.11-.55.22-1.1.27-1.66.39-3.9.74-7.81.72-11.73-.03-6 .07-12.01-.34-17.99-.42-6.16-.38-12.31-.57-18.46-.08-2.49-.5-4.93-1.02-7.36-1.02-4.77-2.13-9.52-3.15-14.28-.74-3.48-.82-7.01-.32-10.51 1.1-7.74.89-15.46.05-23.21-.66-6.14-.52-12.31-.16-18.46.14-2.38.71-4.74 1.01-7.12.63-5.02.52-10.06.11-15.09-.44-5.34-1.09-10.66-2.16-15.92-.27-1.34-.36-2.69-.36-4.06.03-8.08.31-16.15.63-24.23.21-5.27.66-10.54.68-15.82.01-4.33.72-8.6 1.21-12.89.41-3.58.87-7.14 1.83-10.62.85-3.08 1.72-6.16 2.52-9.25.8-3.1 1.51-6.21 2.28-9.32.82-3.33.68-6.63.07-9.99-1.01-5.59-2.49-11.07-3.74-16.61-.44-1.96-.65-3.94-.7-5.94-.15-5.44-.26-10.87-.05-16.31.1-2.49-.09-4.95-.88-7.34-.22-.67-.29-1.41-.36-2.12-.21-2.08-.67-4.1-1.34-6.08-.15-.45-.31-.91-.4-1.38-.57-2.74-1.39-5.41-2.25-8.08-.74-2.29-1.15-4.65-1.28-7.06-.11-1.92-.18-3.84-.31-5.75-.14-2.1.22-4.15.68-6.18 1.04-4.6 2.11-9.19 3.14-13.79.19-.84.45-1.69.33-2.55zm3.69 295.94c.08-.03.15-.07.23-.1 0-3.12.04-6.23-.01-9.35-.04-2.64-.15-5.32.35-7.89.78-3.96.87-7.93.86-11.93-.02-12.23-.55-24.47.42-36.68.41-5.11.25-10.24.59-15.34.43-6.46.88-12.91.98-19.39.08-4.96.17-9.9-.24-14.85-.3-3.67-.26-7.35.29-11.01.65-4.35 1.39-8.68 2.02-13.03.42-2.85.91-5.7 1.05-8.56.27-5.52-.13-11.03-.54-16.53-.1-1.36-.28-2.71-.19-4.07.24-3.83.52-7.66.83-11.48.1-1.27.4-2.53.49-3.8.28-3.99.46-7.98.49-11.98.03-3.76.09-7.52.25-11.27.15-3.52.18-7.03.14-10.55-.03-2.97-.25-5.91-.97-8.8-.16-.62-.26-1.26-.3-1.89-.37-5.74-.73-11.49-1.06-17.23-.06-.95-.03-1.92.07-2.87.19-1.76.16-3.52.02-5.27a36.1 36.1 0 0 1 .2-7.42c.33-2.54.64-5.07.9-7.62.21-2.07.26-4.15.49-6.22.33-2.95.32-5.9.21-8.86-.04-1.11-.29-2.2-.12-3.34.12-.79-.25-1.56-.72-2.24-.68-.99-1.31-2.02-2.07-2.94-1.43-1.74-3-3.3-5.4-3.63-1.01-.14-1.19-.07-1.44 1.03-.92 4.13-1.85 8.26-2.77 12.4-1.8 8.16-1.58 5.97-1.14 14.48.16 3.06.88 5.99 1.75 8.91 1.11 3.75 2.13 7.53 3.13 11.31.26 1 .32 2.05.48 3.08.1.63.14 1.28.34 1.88.75 2.32.93 4.7.85 7.11-.2 5.52-.12 11.03.06 16.55.06 2 .27 3.98.71 5.94 1.27 5.53 2.73 11.01 3.74 16.6.58 3.19.75 6.34.09 9.53-.2.94-.38 1.88-.62 2.81-1.42 5.57-2.73 11.18-4.38 16.69-1.03 3.46-1.42 7.04-1.84 10.61-.5 4.29-1.18 8.56-1.2 12.89-.03 5.68-.51 11.34-.73 17.01-.3 7.59-.51 15.18-.53 22.78 0 1.27.08 2.57.33 3.82 1.04 5.18 1.7 10.41 2.13 15.67.44 5.35.56 10.7-.13 16.04-.33 2.53-.88 5.05-1.01 7.59-.3 5.91-.4 11.83.25 17.73.23 2.07.43 4.14.55 6.21.31 5.44.16 10.87-.57 16.28-.43 3.18-.54 6.38.08 9.56.7 3.61 1.5 7.2 2.27 10.79.06.29.22.57.34.85zm2.34 61c-.15-.04-.3-.08-.46-.11-.18.67-.38 1.34-.54 2.02-1.18 4.97-2.18 10-3.56 14.92a87.893 87.893 0 0 0-3.16 18.87c-.47 8.46-.68 16.93-.99 25.4-.03.8.07 1.61 0 2.4-.3 3.07.8 5.64 2.7 7.94.36.43.67.9 1.04 1.32 2.56 2.96 5.13 5.91 7.69 8.87.16.19.39.34.59.19.17-.12.3-.39.32-.6.1-1.19.15-2.39.23-3.59.29-4.38.65-8.77.86-13.15.27-5.76-.16-11.5-.62-17.23-.32-3.9-.75-7.79-1.14-11.69-.18-1.83-.48-3.65-.55-5.48-.18-4.48-.67-8.92-1.27-13.36-.63-4.67-1.19-9.36-1.14-14.09v-2.63zm-206.93-365c-.02-.05-.05-.1-.07-.15-2.94-.28-5.91-.41-8.82-.87-5.03-.81-10.02-.71-15.03.06-2.6.4-5.22.78-7.87.77-4.64-.01-9.27-.06-13.91-.15a20.55 20.55 0 0 1-6.8-1.29c-1.72-.64-3.45-1.27-5.11-2.05-2.45-1.16-5-1.55-7.69-1.41-1.67.09-3.36.09-5.03.01-4.88-.22-9.75-.19-14.62.11-1.6.1-3.19.25-4.79.26-2.9.02-5.72.46-8.51 1.22-3.01.82-6.07 1.44-9.18 1.67-1.44.11-2.86.29-4.27.57-2.43.49-4.86.97-7.28 1.5-.65.14-1.38.16-2.05.75 1.61.37 3.11.56 4.63.51 5.27-.18 10.55-.34 15.82-.55 1.19-.05 2.42-.1 3.57-.38 4.37-1.08 8.73-.67 13.1-.14 1.74.21 3.44.75 5.22.73 2.17-.03 4.3.31 6.42.7 1.18.22 2.37.31 3.57.3 6.31-.05 12.63-.07 18.94-.08.63 0 1.3.02 1.89.23 1.45.51 2.94.71 4.46.84 1.35.12 2.69.36 4.04.55 3.9.56 7.81.58 11.7-.02 2.22-.35 4.42-.63 6.67-.53 2.81.12 5.58-.18 8.33-.8 1.25-.28 2.5-.54 3.76-.77 2.97-.54 5.95-1.07 8.93-1.6zm111.42-.17c4.59 0 9.05.91 13.49 1.93 2.04.47 4.11.55 6.2.35.8-.08 1.59-.2 2.38-.29 3.06-.33 6.05-.21 8.93 1.06 1.77.78 3.68 1.09 5.61 1.12 3.07.04 5.79 1.05 8.2 2.9 1.35 1.03 2.84 1.42 4.49 1.27 2.15-.2 4.29-.44 6.36-1.13 1.52-.5 3.02-1.04 4.55-1.49 2.6-.77 5.18-1.62 7.93-1.78 1.69-.1 3.35.28 5.02.26 2.63-.03 5.09.6 7.35 1.85 1.57.87 3.12 1.07 4.84.77 1.18-.21 2.38-.29 3.56-.47.86-.13 1.04-.41 1.21-1.23.4-1.84-.37-3.45-.9-5.11-.1-.32-.34-.53-.68-.6-.47-.1-.95-.16-1.4-.32-1.56-.56-2.99-.28-4.33.63-.2.13-.42.23-.62.37-1.52 1.06-3.24 1.36-5.03 1.12-1.82-.24-3.62-.57-5.43-.9-.46-.08-.93-.26-1.35-.48-1.52-.76-3.16-1.08-4.83-1.3-1.27-.17-2.53-.4-3.8-.53-1.67-.18-3.33-.42-5.02-.29-2.87.22-5.72.6-8.52 1.31-1.63.41-3.28.69-4.96.8-3.76.24-7.52.2-11.26-.13-5.11-.44-10.22-.46-15.33-.38-1.36.02-2.72.07-4.06.25-2.07.27-4.14.35-6.22.36-2.13 0-4.27.04-6.4.07zM9.27 103.29c-.15.47-.24.69-.28.92-.76 4.19-.77 8.42-.74 12.66.02 2.24.02 4.48-.02 6.71-.06 4.08-.15 8.15-.25 12.23-.05 2-.1 4-.22 5.99-.26 4.07-.57 8.13-.86 12.19-.2 2.79-.42 5.58-.58 8.37-.22 3.67-.45 7.34-.59 11.01-.21 5.27.04 10.55.08 15.82.02 2.72.21 5.42.55 8.12.29 2.38.53 4.77.66 7.16.23 4.31.44 8.62 1 12.9.29 2.22.74 4.41 1.11 6.62.35-.38.5-.75.53-1.13.21-2.79.41-5.58.56-8.37.04-.71-.09-1.43-.19-2.14-.3-2.21-.68-4.42-.93-6.64-.5-4.37-.86-8.75-.49-13.15.32-3.9.73-7.8.99-11.7.25-3.67.59-7.35.46-11.01-.22-6 .01-11.99-.02-17.98-.02-3.52-.08-7.04.18-10.54.54-7.43.22-14.86.46-22.29.01-.4-.02-.8-.04-1.2-.27-4.15-.53-8.29-.82-12.44-.04-.61.08-1.27-.53-2.11zM7.74 455.23h-.23c-.03.84-.07 1.68-.09 2.52-.1 4.72.55 9.41.64 14.12.01.63.15 1.27.28 1.89.91 4.27.98 8.56.35 12.87-.37 2.55-.4 5.11-.19 7.65.22 2.79.42 5.58.39 8.38 0 .71.04 1.46.26 2.13.76 2.24.79 4.55.8 6.87 0 .8 0 1.61.1 2.39.51 3.52.46 7.01-.43 10.47-.2.76-.2 1.58-.2 2.38 0 1.07-.1 2.15.2 3.79.23-.93.35-1.3.41-1.68.19-1.26.34-2.53.54-3.79 1.34-8.78 2.24-17.6 2.84-26.45.43-6.31.21-12.61-1.5-18.8-1.53-5.55-2.56-11.21-3.21-16.94-.29-2.61-.64-5.21-.96-7.82zM6.41 423.7c.56-.48.41-1.17.45-1.76.17-3.27.55-6.52 1.04-9.76.46-3.08.81-6.16.78-9.29-.08-9.35-.15-18.69-.42-28.03-.19-6.46-.11-12.94-.88-19.37-.03-.23.16-.65-.32-.67-.44.37-.42.87-.47 1.34-.09.87-.13 1.75-.23 2.62-.81 6.67-1.22 13.35-.92 20.07.21 4.71.18 9.42 0 14.13-.18 4.63-.38 9.26-.56 13.89-.04.96-.06 1.92.01 2.87.22 3.03.47 6.05.75 9.07.15 1.59.39 3.17.59 4.75 0 .04.09.07.18.14zm416.29 69.27c.02.31.06.86.11 1.42 0 .04.11.08.17.09.07 0 .18 0 .21-.04.14-.19.3-.37.38-.59 2.1-6.03 4.24-12.05 6.27-18.11.71-2.12 1.12-4.31.94-6.6-.26-3.19-1.62-5.99-2.9-8.82-.06-.13-.21-.28-.34-.29-.28-.04-.42.17-.46.42-.31 1.81-.57 3.63-.93 5.43-1.7 8.56-2.41 17.24-3.38 25.89-.04.32-.04.64-.08 1.21zM24.54 8.24c-1.27 0-2.54-.01-3.81 0-2.41.02-4.79-.13-7.08-.99-.37-.14-.76-.23-1.15-.31-.54-.11-.99.23-.95.76.1 1.19.19 2.39.41 3.57.5 2.7.47 5.38-.06 8.08-.42 2.13-1.12 4.16-1.91 6.17a9.55 9.55 0 0 0-.65 3.74c.07 3.75.04 7.51-.23 11.26-.11 1.51-.17 3.04-.06 4.55.26 3.5.64 7 .98 10.5.02.23.1.48.42.48.05-.04.14-.08.15-.14.56-3.79 1.33-7.54 1.28-11.4-.01-1.11.11-2.24.3-3.33.54-3.02.54-6.03 0-9.06-.27-1.49-.46-3-.67-4.5-.13-.95-.18-1.91.14-2.84.6-1.76.78-3.6.89-5.43.09-1.49.51-2.8 1.22-4.07.63-1.11 1.15-2.27 1.47-3.52.65-2.53.8-2.56 3.47-2.46 1.97.07 3.97.18 5.84-1.04zm253.01.53c0-.23.03-.33 0-.38-.1-.12-.22-.23-.34-.32-2.69-1.98-5.71-2.78-9.01-2.41-3.01.34-6 .79-9 1.16-1.66.21-3.32.35-5 .12-1.49-.2-2.99-.32-4.54-.48.16.46.49.53.76.6 2.83.8 5.68 1.53 8.61 1.84 4.77.5 9.55.35 14.33.29 1.41-.02 2.82-.27 4.2-.42zM42.89 6.76c1.09.2 2.17.42 3.27.58 2.53.36 5.07.64 7.58 1.06 1.35.23 2.68.4 4.04.41 2.48.03 4.95.08 7.42.35 1.42.15 2.9.18 4.3-.03 2.55-.39 5.1-.33 7.65-.36 1.65-.02 3.29-.08 4.94-.12-2.24-.28-4.48-.33-6.72-.36-4.71-.08-9.44.15-14.13-.45-3.1-.39-6.2-.56-9.33-.54-1.68 0-3.34-.3-4.98-.67-1.34-.3-2.68-.33-4.06.13zM6.28 573.91c.44-.7.55-1.39.64-2.11.87-6.98 1.31-13.97.79-21-.12.47-.18.94-.18 1.41-.02 3.28-.37 6.54-.59 9.8-.07 1.05-.14 2.08-.45 3.07-.92 2.89-.82 5.79-.2 8.82zM9.89 95.86c.19-.13.3-.16.31-.22.81-3.58 1.05-7.22.9-10.88-.02-.4.07-.92-.64-1.09-.03 4.08-.88 8.06-.58 12.18zm413.05 242.11c-.15-2.67-.29-5.35-.44-8.02-.2 2.69-.51 5.39.44 8.02z"/><path d="M170.85 432.93c.66.91 1.58 1.6 2.65 1.58 1.58-.03 2.99.37 4.38 1.04.59.28 1.23.33 1.88.14 2.16-.66 4.42-.65 6.63-.97 5.63-.8 11.31-.68 16.98-.9 2.75-.11 5.39.52 7.94 1.5.45.17.89.34 1.32.5.14-.15.31-.25.35-.38q.55-2.08 2.66-2.3c.4-.04.8-.09 1.19-.15q1.34-.21 1.64-1.73c.07-.32.17-.63.54-.71.51-.11.7.25.83.65.05.15.07.31.1.47.02.08.03.16.04.24.1.55.47.83 1 .86.72.04 1.44.06 2.15 0 3.66-.3 7.32-.57 10.92-1.47 1.95-.49 3.98-.34 5.97-.05 4.22.62 8.3 1.66 12.05 3.77.73.41 1.53.44 2.33.44 1.53 0 3.01-.33 4.5-.67 3.67-.85 7.38-1.42 11.16-1.35 1.85.04 3.69.17 5.45.72 1.66.52 3.32.56 4.98.21 1.53-.33 3.01-.35 4.5.1 2.55.77 5.23.61 7.83 1.05 1 .17 2.1.08 3.1-.16 1.64-.4 3.2-.21 4.72.31 1.45.5 2.91.88 4.42 1.04 2.54.26 5.02 1.02 7.6.91.67-.03 1.25.22 1.81.55.48.28.94.78 1.44.82 1.6.13 1.71 1.19 1.68 2.38-.02.63-.06 1.28-.21 1.9-1.08 4.44-1.62 8.97-2.14 13.5-.23 2.05-.09 4.16.03 6.23.14 2.43-.04 4.78-.86 7.09-.59 1.68-.73 3.42-.55 5.2.22 2.22-.07 4.47.26 6.7.15 1.02.23 2.06.41 3.08.4 2.22.31 4.47-.03 6.69-.43 2.87-.29 5.74 0 8.61.21 2.07.5 4.12 1.06 6.13.09.31.13.63.15.95.34 4.7 1.04 9.38.82 14.12-.18 3.95.38 7.82 1.48 11.6.72 2.46 1.27 4.93 1.55 7.49.25 2.25.28 4.46.13 6.69-.04.56-.01 1.15-.2 1.66-.58 1.57-.42 3.12-.08 4.71.42 1.98.36 3.97 0 5.95-.09.47-.22.95-.21 1.42.07 2-.67 3.73-1.61 5.44-.46.83-1.04 1.19-1.9 1.12-.87-.07-1.74-.24-2.61-.34-.63-.08-1.31-.3-1.89-.16-2.58.64-5.27.29-7.83 1.03-.38.11-.79.18-1.18.17-2.64-.05-5.27-.11-7.91-.21-.72-.03-1.44-.11-2.14-.27-.88-.2-1.72-.22-2.61-.03-.54.12-1.13.17-1.67.09-2.29-.33-4.63-.52-6.84-1.13-2.5-.69-4.89-.59-7.31.11-2.79.81-5.63 1.15-8.53 1.18-1.13.01-2.22-.09-3.28-.55-1.26-.56-2.62-.71-3.99-.67-2.48.07-4.96.07-7.43.24-2.68.19-5.28-.15-7.78-1.05-.95-.34-1.79-.46-2.77-.08-1.73.68-3.61.62-5.42.92-2.49-.56-5.07-.5-7.53-1.19-.08-.02-.15-.06-.22-.09-1.72-.9-3.42-.74-5.03.22-1.68 1.01-3.54 1.46-5.4 1.91-1.42.34-2.44-.3-2.41-1.78.03-1.81-.46-3.46-.9-5.16-.32-1.23-.55-2.5-.12-3.78 1.22-3.71 1.34-7.52 1.11-11.38-.26-4.23-.44-8.46-.9-12.68-.29-2.62-.18-5.26.11-7.9.3-2.7.47-5.42.55-8.13.03-1.18-.3-2.37-.56-3.57-.21 1.83-.78 3.47-1.92 4.94-.41.53-.5 1.33-.69 2.02-.21.76-.68 1.24-1.4 1.51-1.13.43-2.28.77-3.51.61-2.14-.28-4.29-.47-6.4-.89-2.38-.47-4.74-.62-7.15-.26-2.21.33-4.42.61-6.62 1.05-2.17.43-4.45.4-6.68.42-1.6.01-3.18-.09-4.79.09-2.64.29-5.26-.2-7.89-.36-2.47-.15-4.93-.49-7.42-.14-.55.08-1.15.09-1.67-.06-1.42-.41-2.86-.3-4.29-.35-2.16-.08-4.3-.21-6.46-.44-3.61-.39-7.19.08-10.71.9-3.79.88-7.57 1.2-11.4.29-1.02-.24-2.06-.37-3.1-.28-2.8.25-5.59-.11-8.39-.08-.55 0-1.12-.07-1.66-.18-1.48-.28-2.33-1.04-2.38-2.54-.06-1.87-.53-3.63-1.04-5.4-.22-.79-.2-1.58-.19-2.38.08-3.68-.06-7.34-.44-11.01-.36-3.5-.5-7.02-.71-10.53-.11-1.92-.02-3.83.33-5.73.32-1.73.47-3.49.43-5.25-.06-2.48-.02-4.96.23-7.43.25-2.48.21-4.95-.17-7.42-.19-1.27-.22-2.56-.03-3.83.26-1.75.28-3.51.26-5.27-.04-4.8-.1-9.6-.11-14.4 0-2.56.05-5.11.07-7.67 0-.65.3-1.04.96-1.17.87-.17 1.66-.52 2.39-1.21-.33-.1-.54-.21-.76-.23-.94-.06-1.39-.6-1.65-1.46-.58-1.87-.55-3.8-.61-5.7-.05-1.35.08-2.73.36-4.05.55-2.56.45-5.09-.04-7.62-.43-2.29-.68-4.58-.69-6.91 0-4.32-.25-8.64.41-12.93.07-.47.09-.97.01-1.43-.55-3.34-.33-6.7-.29-10.05.03-2.56-.04-5.11-.34-7.66-.29-2.38-.47-4.77.22-7.14.22-.75.24-1.59.22-2.38-.07-4.16.2-8.31.68-12.44.04-.32.06-.64.07-.96.07-2.64-.23-2.24 2.04-4.24.74-.65 1.44-.86 2.37-.77 2.63.24 5.26.27 7.9.13 2.95-.16 5.91-.15 8.81.65 1.07.29 2.21.34 3.33.42 2.47.18 4.94.43 7.38.87.62.11 1.29.17 1.91.05 2.42-.45 4.79.01 7.17.26 3.26.34 6.5.83 9.75 1.26.24.03.49.04.71.11 2.62.89 5.34.84 8.06.88 3.44.04 6.87.16 10.31-.08 2.23-.16 4.45.13 6.68.42 3.25.42 6.54.33 9.81-.08l8.32-1.05c.08-.01.16-.02.24-.02 2.79.09 5.58.19 8.37.28.08 0 .16.01.24.04 3.13 1.03 3.67.79 4.29 4.27.28 1.59.5 3.16.5 4.76.01 5.76.11 11.52-.03 17.28-.1 3.99-.5 7.98-1.31 11.91-.16.78-.29 1.58-.32 2.37-.25 6.47-.47 12.95-.36 19.43.01.64.05 1.27.32 1.95.15-.84.35-1.68.43-2.53.53-5.98 1.67-11.87 2.38-17.83.15-1.27.22-2.55.32-3.82.17-2.15.3-4.31.75-6.43.38-1.81.51-3.64.37-5.49-.5-6.3-.94-12.6-.62-18.92.05-.96-.01-1.92-.03-2.88-.02-.72.02-1.38-.92-1.71-.55-.19-.39-1.07.16-1.35.74-.37 1.53-.39 2.34-.43 3.19-.16 6.37-.4 9.51-1 1.49-.29 2.99-.51 4.5-.7 1.51-.19 3.01-.36 4.49-.76.91-.24 1.89-.29 2.85-.33 1.44-.06 2.88 0 4.32-.06 1.23-.05 2.39.14 3.47.73s2.23.81 3.46.76c4.48-.19 8.95-.25 13.43.02 1.51.09 3.04-.06 4.56-.12 1.29-.05 2.56.01 3.79.46.38.14.76.3 1.15.32 4.2.22 8.34 1.08 12.62-.04 3.84-1 7.84-1.52 11.88-1.22 2.4.18 4.8.13 7.17-.32.55-.1 1.11-.12 1.67-.13 2.08-.03 4.16-.05 6.24-.06.47 0 .97-.08 1.39.23.11.09.25.26.24.37-.02.21-.09.51-.23.6-.26.15-.59.23-.89.24-1.6.05-3.2.08-4.8.08-1.44 0-2.87.04-4.3.27-1.98.32-3.99.37-5.98.22-4.28-.33-8.45.39-12.59 1.26-2.7.57-5.36.83-8.09.34-.78-.14-1.59-.15-2.39-.18-1.21-.03-2.4-.15-3.54-.57-1.08-.4-2.18-.49-3.31-.4-2.72.2-5.43.1-8.15-.02-2.87-.12-5.76 0-8.63.09-1.94.06-3.83.08-5.58-.98-.61-.37-1.34-.49-2.08-.48-1.84.04-3.68.05-5.52.09-.4 0-.81.03-1.19.14-3.79 1.06-7.74 1.11-11.58 1.95-2.55.56-5.22.55-7.82.8-.46.44-.13.92-.13 1.37-.02 2.56.1 5.12-.04 7.68-.25 4.42.37 8.78.63 13.17.17 2.74.1 5.42-.47 8.11-.25 1.17-.35 2.37-.42 3.57-.32 5.44-1.2 10.8-1.99 16.18-.74 5.06-1.22 10.16-1.54 15.27-.05.89.04 1.76.28 2.61.38 1.39.76 2.77 1.21 4.14.3.92.8 1.73 1.42 2.48 1.15 1.39 2.51 2.08 4.38 1.99 3.75-.18 7.51-.27 11.23-.79 1.45-.2 2.87-.08 4.29.23 2.46.53 4.89.65 7.33-.18.57-.2 1.29-.19 1.89-.05 1.82.43 3.66.36 5.49.36 1.54 0 3.03.14 4.43.85.88.44 1.82.55 2.8.42 1.77-.24 3.5 0 5.22.44 2.19.55 4.43.69 6.67.41 2.86-.36 5.76-.2 8.59-.75.87-.17 1.75 0 2.61.23.61.17 1.25.38 1.87.36 2.63-.07 5.27-.13 7.89-.38 2.08-.2 4.13-.41 6.21-.15 3.03.37 6.07.22 9.11 0 1.11-.08 2.2-.36 3.29-.6.38-.08.78-.27 1.07-.52 1.08-.95 2.13-1.93 3.18-2.91.32-.3.34-.69.32-1.1-.27-6.48-.1-12.96-.17-19.43-.01-1.36-.14-2.71-.27-4.07-.23-2.31-.25-4.63-.22-6.95.03-3.36-.03-6.71-.33-10.07-.37-4.07-.23-8.15 0-12.22.06-1.04.1-2.08.02-3.11-.39-5.12.04-10.23-.08-15.35-.02-.87.18-1.75.32-2.61.07-.42.31-.75.78-.74.44 0 .88.53.74 1.04-.69 2.6-.32 5.25-.38 7.88-.09 3.6-.21 7.2.16 10.79.05.47.06.96.02 1.43-.46 4.95-.38 9.89.06 14.85.22 2.54.15 5.11.16 7.67 0 2.72.01 5.43.34 8.14.16 1.34.16 2.71.17 4.07.06 6.24.08 12.48.16 18.72.02 1.13-.2 1.97-1.24 2.61-.73.45-1.32 1.16-1.93 1.78-.87.88-1.86 1.42-3.09 1.69-3.55.78-7.15.86-10.74.61-2.72-.19-5.39-.26-8.12.13-2.52.36-5.1.24-7.66.29-.55 0-1.13-.1-1.64-.28-1.18-.42-2.36-.42-3.55-.19-1.5.29-3.01.36-4.53.38-.8 0-1.59.11-2.39.21-2.73.33-5.42.24-8.09-.48-1.33-.36-2.68-.48-4.04-.33-1.47.16-2.86.01-4.21-.63-1.19-.57-2.47-.6-3.76-.62-1.76-.03-3.52.09-5.25-.34-.71-.18-1.43-.05-2.12.19-1.62.57-3.29.63-4.98.54-2.3-.13-4.6-.07-6.92-.45-1.85-.3-3.83.02-5.73.23-1.76.19-3.52.11-5.27.25-2.78.23-4.49-1.29-5.9-3.36a8.406 8.406 0 0 1-1.27-2.83c-.14-.6-.35-1.18-.81-2.02-.24 2.36-.42 4.33-.63 6.29-.18 1.65-.9 2.98-2.13 4.16-1.79 1.72-4 2.16-6.21 1.9-2.8-.33-5.59-.23-8.38-.31-4.15-.12-8.31-.03-12.47-.05-.56 0-1.12-.09-1.67-.17-1.91-.26-3.82-.28-5.74-.03-2.3.3-4.62.46-6.94.13-2.44-.81-5.02-.74-7.52-1.15-3.33-.54-6.66-.39-9.98.21-.54.1-1.17-.03-1.92.49 2.76.99 5.25 1.73 7.9.86 2.48-.81 4.99-.84 7.55-.55 1.33.15 2.67.46 4.02.1zm-58.92-3.38c-.05-.2.09-.23.09-.1 0 .31.15-.05-.15.07.29-.59.01-1.08-.29-1.54-.62-.94-.95-1.98-1.15-3.08-.14-.78-.36-1.54-.58-2.3-.09-.31.03-.81-.64-.79-.28 1.98-.03 3.94.22 5.89.15 1.15.31 1.23 1.69 1.45.33.05.6.15.8.41zm103.57 8.16c.04-.64.04-1.04.1-1.42.07-.43.34-.73.79-.76.45-.04.76.23.92.62.28.68.24 1.41.22 2.13-.06 2.24-.08 4.48-.17 6.72-.06 1.52-.14 3.04-.36 4.54-.21 1.44-.2 2.85-.05 4.29.29 2.78.59 5.57.16 8.37-.72 4.66-1.38 9.33-2.12 13.99-.79 4.9-1.43 9.81-1.1 14.8.16 2.47.36 4.94.46 7.42.13 3.36.74 6.68.66 10.05 0 .24.06.47.08.71.29 3.82.72 7.64.83 11.46.14 4.79.04 9.59.01 14.39-.01 2.88-.1 5.76-.1 8.63 0 2.72.08 5.44.08 8.16 0 .79 0 1.65-.26 2.37-.75 2.01-.59 4.1-.73 6.16-.04.55.01 1.13.14 1.66.25 1.03.91 1.41 1.97 1.19.62-.13 1.27-.27 1.84-.53.96-.44 1.87-.4 2.76.09 1.29.71 2.6.61 3.96.25 1.65-.43 3.31-.44 4.99-.05.7.16 1.42.25 2.13.32 2.15.21 4.31.31 6.44.61 1.22.17 2.38.2 3.54-.23 1.23-.45 2.49-.6 3.78-.38 1.51.26 3.02.31 4.54.29.64 0 1.29.04 1.91.16 2.35.48 4.72.89 7.02 1.55 1.94.56 3.87.99 5.88 1.08 2.33.1 4.63-.16 6.8-1.05a7.13 7.13 0 0 1 2.79-.56c1.12 0 2.23-.04 3.34-.25 3-.57 6.02-.71 9.04-.1.71.14 1.42.27 2.14.12.8-.16 1.59-.08 2.39 0l5.97.54c1.59.14 3.18.24 4.79.13 2.31-.16 4.64-.28 6.95-.19 1.46.06 2.6-.26 3.73-1.19.96-.79 1.47-1.55 1.33-2.83-.33-2.84.51-5.54 1.16-8.26 1.11-1.6.73-3.36.54-5.1-.11-1.03-.17-2.07-.19-3.11-.05-2.41-.36-4.77-.97-7.11-.29-1.08-.56-2.2-.57-3.3-.03-3.85-.67-7.64-.93-11.47-.13-1.84-.55-3.62-1.11-5.38-1.24-3.89-1.81-7.94-2.73-11.9-.05-.23-.04-.48-.06-.72-.14-2.39-.38-4.78-.41-7.18-.04-3.37-.39-6.69-1.02-9.99-.32-1.65-.41-3.33-.59-4.99-.31-2.86-.2-5.75-.81-8.59-.27-1.24-.34-2.54-.37-3.81-.07-3.12-.03-6.24-.09-9.36-.04-1.78.16-3.51.69-5.2.36-1.15.61-2.32.64-3.53.05-1.68.13-3.36.09-5.04-.05-1.93-.13-3.84.77-5.63.07-.14.08-.31.1-.47.05-.52-.08-.97-.58-1.2-.8-.38-1.61-.67-2.53-.64-1.12.04-2.27.13-3.35-.07-2.22-.42-4.45-.41-6.69-.42-.81 0-1.6-.09-2.36-.38-2.29-.85-4.67-1.03-7.08-1.05-3.2-.02-6.39-.1-9.59-.37-2.44-.21-4.91-.66-7.33.3-.42.17-.95.07-1.43.11-2.71.22-5.41.46-8 1.4-.67.24-1.4.35-2.07.6-1.82.67-3.45.25-5-.77-.66-.44-1.33-.94-2.07-1.17-2.13-.68-4.27-1.32-6.45-1.83-1.24-.29-2.55-.22-3.8-.45-1.44-.26-2.86-.3-4.29-.03-1.03.19-2.04.21-3.08-.11-1.16-.36-2.37-.26-3.57-.07-2.52.4-5.05.74-7.57 1.17-.92.15-1.83.13-2.5-.47-.83-.73-1.72-.73-2.69-.65-.48.04-.95.05-1.43.07-.91.04-1.13.27-.98 1.16.09.54.08 1.13.75 1.77zm-104.08 81.71c1.86-.45 3.73-.84 5.56-1.37 3.79-1.1 7.23-.78 10.26 2.04 1.31 1.22 2.95 1.85 4.84 1.43.85-.19 1.73-.3 2.58-.49 3.92-.86 7.88-1.44 11.89-1 2.15.23 4.3.34 6.45.43 1.43.05 2.87-.04 4.29.36.59.17 1.28.08 1.9-.02 1.52-.24 3.03-.13 4.54-.01 2.55.19 5.09.47 7.64.62 1.11.07 2.24 0 3.34-.14.96-.12 1.91-.19 2.86-.05 2.4.36 4.77-.24 7.16-.2.31 0 .63-.1.94-.19 2.78-.85 5.68-.89 8.53-1.24 1.02-.12 2.08-.02 3.1.12 2.37.33 4.73.77 7.09 1.13 1.19.18 2.38.28 3.55-.18.64-.25 1.1-.56 1.23-1.3.15-.87.42-1.72 1.04-2.39.87-.95 1.14-2.11 1.11-3.33-.06-2.34.37-4.61.86-6.88.31-1.42.45-2.86.13-4.28-.53-2.36-.64-4.75-.53-7.15.12-2.65-.15-5.26-.6-7.87-.76-4.34-1.24-8.71-.9-13.13.26-3.27.34-6.54.4-9.82.07-4.16.14-8.31.28-12.47.08-2.32.33-4.62.8-6.9.45-2.2.52-4.44.61-6.68.03-.62-.15-1.1-.75-1.35-2.3-.93-4.63-1.75-7.15-1.74-5.99.03-11.97.02-17.92.84-1.98.27-4.01.14-5.93.8-1.37.47-2.68.29-3.95-.32-.8-.39-1.59-.73-2.52-.66-1.16.09-2.21-.28-3.2-.84-.86-.48-1.77-.69-2.75-.74-1.04-.05-2.07-.17-3.1-.28-1.28-.13-2.55-.08-3.81.23-1.16.29-2.33.55-3.51.77-.54.1-1.14.23-1.66.11-1.63-.4-3.31-.53-4.89-1.18-1.1-.46-2.29-.71-3.41-1.12-1.33-.49-2.64-.54-4-.2-.46.11-.98.25-1.42.14-1.43-.36-2.85-.06-4.27-.05-2.33 0-4.63.16-6.93.48-.71.1-1.45.2-2.13-.08-1.84-.77-3.76-.68-5.67-.63-1.36.04-2.69.02-4.04-.34-.82-.22-1.75-.17-2.62-.08-1.43.16-2.86.27-4.3.24-.47-.01-.97.02-1.41.15-1.06.31-1.37.79-1.4 1.91-.08 2.72-.19 5.43-.25 8.15-.13 5.35-.45 10.71-.14 16.06.26 4.56.06 9.11.25 13.66.03.63-.07 1.28-.11 1.91-.22 2.95-.58 5.89-.63 8.85-.09 6.15 0 12.31 0 18.47 0 .48 0 .97.13 1.43.63 2.26.71 4.57.69 6.89 0 1.2.11 2.34.47 3.53.5 1.66 1.16 3.33 1.06 5.14-.01.21.16.44.31.79zm12.74-88.87c.55.09.86.18 1.17.18 5.35.1 10.69.58 16.05.33 3.83-.18 7.7.08 11.49-.54 6.19-1.01 12.26-.17 18.33.91 1.28.23 2.54.33 3.81.09 3.33-.63 6.66-.66 10.01-.11.7.12 1.43.11 2.15.12 4.32.04 8.63.07 12.95.12 2.08.02 4.15 0 6.23.23 1.26.14 2.63.05 3.7-.68 1.4-.96 2.45-2.29 2.65-4.09.06-.56.13-1.11.17-1.67.27-4.07.38-8.14.19-12.22-.37-7.91-.07-15.83.19-23.74.03-.79.14-1.6.31-2.37.79-3.76 1.23-7.59 1.33-11.41.16-6.23.02-12.47.03-18.71 0-1.62-.49-3.15-.77-4.72-.11-.59-.46-.98-1.09-1.12-1.32-.29-2.62-.61-4.02-.52-1.51.1-3.03-.02-4.55-.02-.8 0-1.6-.02-2.39.06-1.83.19-3.65.4-5.47.68-4.61.71-9.21 1.06-13.81-.06-.69-.17-1.43-.14-2.15-.16-4.31-.07-8.61.29-12.93.24-2.57-.03-5.09.12-7.59-.64-.76-.23-1.57-.32-2.36-.44-2.21-.34-4.42-.66-6.63-.99-3.09-.47-6.17-.85-9.31-.59-.87.07-1.75-.04-2.63-.13-1.03-.1-2.06-.27-3.08-.41-3-.42-6.08-.28-9-1.25-.37-.12-.79-.1-1.19-.11-4.4-.03-8.79-.07-13.19-.08-1.33 0-1.84.53-1.92 1.89-.08 1.44.01 2.9-.21 4.31-.5 3.25-.84 6.48-.3 9.77.24 1.48.39 3.05-.17 4.51-.42 1.09-.49 2.18-.29 3.29.16.89.15 1.78-.14 2.61-.76 2.18-.71 4.41-.55 6.64.14 2 .16 3.99.12 5.99-.03 1.6-.04 3.21.17 4.79.41 3.1.54 6.21.66 9.32.18 4.63.14 9.27.14 13.91 0 1.69.12 3.36.47 5 .48 2.18.96 4.37 1.4 6.56.52 2.55 2.4 4.42 5.32 4.04 2.13-.28 4.3-.21 6.44-.58 1.88-.32 3.82-.33 5.71-.65 3.12-.52 6.21-.3 9.31.1.73.09 1.37.42 2.01.75.38.19.62.54.43.98-.14.34-.49.39-.81.33-.39-.07-.76-.25-1.14-.33-.54-.12-1.09-.25-1.64-.29-4.41-.36-8.77.25-13.15.59-.07 0-.13.08-.44.3zm190.76 85.72c-.15-1.89-.27-3.3-.36-4.72-.15-2.15-.4-4.28-.85-6.4-1.01-4.8-1.32-9.65-.59-14.53.25-1.67.26-3.36 0-5.02-.6-3.71-1.05-7.42-1.06-11.19 0-1.61.05-3.2.59-4.73.98-2.78 1.05-5.63.77-8.52-.07-.71-.14-1.45-.04-2.15.75-5.22 1.27-10.47 2.42-15.62.14-.62.22-1.25.27-1.89.02-.21-.08-.56-.23-.64-.98-.52-1.73-1.44-2.89-1.65-1.05-.19-1.45.05-1.51 1.11-.05.82-.28 1.58-.57 2.31-.3.76-.4 1.53-.4 2.34 0 2-.04 3.99-.03 5.99 0 1.61-.2 3.18-.68 4.72-.38 1.22-.71 2.45-.69 3.75.04 3.76.03 7.51.07 11.27 0 .63.13 1.27.22 1.9.21 1.5.52 2.99.64 4.5.24 3.11.37 6.22.56 9.33.03.56.11 1.11.22 1.66.52 2.76.75 5.54.86 8.34.23 5.93 1.22 11.75 2.35 17.56.12.6.1 1.28.96 2.26zm-101.07-72.55l-.24-.09c-.23 1.08-.52 2.14-.67 3.23-.22 1.58-.43 3.17-.47 4.76-.18 6.7-.29 13.4-.43 20.1 0 .07.04.14.16.51.24-1 .49-1.74.58-2.51.56-4.83 1.34-9.64 1.03-14.54-.08-1.35.03-2.71.03-4.07v-7.39zm-88.1 77.48c-1.19-1.48-2.66-2.25-4.52-2.26-2.35-.02-4.53.71-6.72 1.4-.09.03-.11.26-.19.46 1.92.14 3.81.29 5.72.13 1.91-.16 3.79.1 5.72.26zm192.19 33.99c-.44 0-.48.35-.58.63-.4 1.23-.46 2.5-.54 3.78-.04.64-.06 1.27-.1 1.91-.09 1.34-.54 2.47-1.75 3.22-.38.23-.85.49-.79 1.09 1.74.36 1.73.35 2.47-.87.59-.97.97-1.98 1.02-3.14.04-.95.25-1.89.33-2.84.1-1.26.49-2.52-.04-3.77zm-97.26 9.03c-.13-.08-.28-.24-.38-.22-1.55.34-3.09.7-4.63 1.09-.2.05-.33.32-.26.59.06.25.21.47.45.46 1.69-.11 3.29-.52 4.69-1.51.09-.06.08-.26.12-.4zm24.1.57c1.92 1 4.68 1.17 7.48.37-1.5-.05-2.68-.11-3.87-.13-1.18-.01-2.34-.55-3.61-.25zm-5.38-131.92c-1.49-.4-2.98-.42-4.48-.22-.2.03-.33.13-.26.29.05.12.17.28.29.3 1.51.26 2.97-.15 4.46-.37zm-23.96 23.59v5.08c.39-1.57.51-3.13 0-5.08zm73.15 109.84c-1.38-.51-2.52-.99-3.77-.43 1.19-.03 2.25.83 3.77.43zm-20.55-130.96c-.79-.11-1.58-.46-2.4 0h2.4zm24.84 130.98c.87.25 1.75.38 2.65.02-.88-.14-1.75-.38-2.65-.02zm-77.78-102.7c-.04.13-.11.26-.12.39-.01.14.02.28.03.42.29-.04.15-.27.17-.41.02-.13-.05-.27-.08-.4zm14.68 100.65c-.52-.02-.87-.03-1.23-.03-.06 0-.12.08-.18.13.05.05.1.14.16.16.36.09.73.21 1.25-.25zm-16.18-89.6s.11-.05.11-.08c.01-.14.04-.29 0-.41-.06-.17-.17-.13-.17.1 0 .13.04.26.06.39zm-.48 1.87c-.02.15-.04.3-.04.45 0 .02.08.04.12.06.02-.15.04-.3.05-.45 0-.02-.09-.04-.13-.06zm-3.5-150.43c1.78.26 3.47.14 5.1-.07 2.62-.34 5.25-.48 7.87-.72 2.87-.26 5.73-.62 8.54-1.23 2.54-.55 5.09-.57 7.64-.34 5.35.49 10.7.43 16.06.06 3.59-.25 7.19-.14 10.79.11 6.86.48 13.72.89 20.62.42 3.19-.21 6.4-.14 9.6-.15 2.97 0 5.91-.19 8.85-.63.24-.04.48-.12.71-.11 4.22.22 8.49-.23 12.64.93.53.15 1.09.28 1.58.54 1.2.65 1.56 1.76.94 2.81-.89 1.49-.88 3.13-.15 4.59.79 1.57.4 3.09-.23 4.35-.6 1.2-.47 2.29-.45 3.45.01.47.22.93.29 1.41.22 1.5-.09 1.99-1.58 2.47-.38.12-.78.18-1.17.23-3.48.47-6.97.96-10.45 1.39-1.03.13-2.07.14-3.11.17-5.28.12-10.55.2-15.83.35-3.92.11-7.83 0-11.75-.21-4.47-.25-8.93-.65-13.4-.91-4.23-.25-8.47-.25-12.71-.32-2.88-.04-5.76 0-8.64.01-2 .01-4 .07-5.98.38-.24.04-.48.07-.72.07-7.43.19-14.86.81-22.3.17-.64-.05-1.28-.08-1.92-.09-6.4-.04-12.8-.13-19.19-.1-4.8.03-9.61-.06-14.39-.44-7.1-.57-14.22-.59-21.33-.89-3.92-.17-7.83-.39-11.74-.53-2.24-.08-4.48-.07-6.72-.02-2.4.05-4.8-.06-7.2-.08-3.12-.03-6.24.05-9.35.28-3.09.23-6.04-.31-8.97-1.13-1.37-.39-2.28-1.29-2.8-2.71-.72-1.96-.75-3.89-.31-5.88.15-.7.28-1.41.35-2.12.13-1.36.25-2.71 1.16-3.84.19-.24.26-.58.37-.88.38-.98.4-1.02-.49-1.73-.4-.31-.73-.67-.88-1.1-.85-2.47-2.18-4.81-1.98-7.57.06-.79 0-1.62-.17-2.38-.77-3.24-.54-6.52-.44-9.79.13-4.47.3-8.95.43-13.42.08-2.88.13-5.76-.73-8.57-.16-.53-.19-1.11-.19-1.66-.02-3.28-.15-6.55.26-9.82.34-2.7.36-5.42.11-8.14-.1-1.11-.07-2.24-.07-3.36 0-1.36-.02-2.71-.2-4.07-.21-1.59-.07-3.19.15-4.78.35-2.53.54-5.08.77-7.63.35-3.9.17-7.83.88-11.7.55-2.99.93-6 1.34-9.01.14-1.03.17-2.07.17-3.11.01-3.6-.04-7.2.36-10.78.08-.71.19-1.43.35-2.12.77-3.23.9-6.49.37-9.77-.28-1.74-.5-3.48-.52-5.25 0-.68-.02-1.29.78-1.54.15-.05.36-.15.38-.26.35-1.63 1.63-1.52 2.83-1.51 1.84 0 3.67.03 5.5.32 2.13.33 4.28.58 6.45.37.63-.06 1.28-.03 1.91.05 2.96.35 5.91.18 8.86-.05 1.59-.12 3.19-.19 4.79-.26 2.16-.1 4.31-.18 6.47-.25 2.48-.08 4.96-.16 7.43-.22 4.56-.11 9.11-.3 13.67-.28 4.55.02 9.11.3 13.66.4 3.2.07 6.4.03 9.59.01.39 0 .78-.14 1.17-.2.95-.13 1.9-.32 2.86-.34 3.2-.06 6.39-.02 9.59.22 1.22.09 2.33.5 3.45.92 1.71.64 2.66 1.94 3.33 3.53.09.22.05.6.19.66 1.35.66.98 1.86.96 2.94-.04 3.2-.09 6.4-.11 9.6-.01 1.84-.21 3.67-.49 5.49-.38 2.45-.61 4.92-.6 7.41 0 1.92.04 3.85-.13 5.75-.42 4.71-.23 9.43-.23 14.15 0 6.48.03 12.96-.2 19.43-.21 5.91-.52 11.83-.46 17.74.03 2.72.27 5.43.26 8.15-.02 4.64-.14 9.27-.27 13.91-.12 4.08-.09 8.16.23 12.23.2 2.63.3 5.27.52 7.9.18 2.19-.34 4.29-.63 6.42-.09.68-.42 1.18-1.06 1.48-.33.16-.73.28-.93.83zm-101.75-22.35c-.13 3.25-.35 6.76.43 10.24.11.47.2.96.17 1.43-.18 2.55.59 4.85 1.54 7.17.44 1.08 1.06 1.53 2.11 1.57 1.6.06 3.2 0 4.79.12 3.49.28 7.04-.26 10.46.89.44.15.95.15 1.43.16 2.48.04 4.96.15 7.43.05 3.12-.13 6.23-.17 9.35.13 2.23.21 4.46.33 6.71.3 4.16-.04 8.32-.14 12.47-.02 4.09.11 8.15.04 12.18-.8a8.67 8.67 0 0 1 1.9-.17c2.16.04 4.31.12 6.47.21 1.91.08 3.82.28 5.7-.35 1.94-.65 3.99.27 5.95-.27.08-.02.16-.04.24-.05 2.64-.33 5.29-.13 7.86.39 1.43.29 2.57.24 3.88-.41.94-.47 1.3-1.06 1.41-1.99.26-2.14.49-4.27.29-6.45-.86-9.26-.75-18.53-.42-27.81.11-2.96.08-5.92-.02-8.87-.07-2.08-.18-4.16-.16-6.23.03-3.68.13-7.36.23-11.03.07-2.48.29-4.95.31-7.43.05-8.56.03-17.11.05-25.67 0-.96.02-1.92.12-2.87.26-2.47.38-4.94.31-7.42-.05-1.76.01-3.52.25-5.27.27-1.98.64-3.96.72-5.95.15-3.59.13-7.19.18-10.79.02-.95.2-1.95-1.17-2.2-.17-.03-.32-.52-.38-.81-.06-.31-.03-.64.03-.95.22-1.04-.34-1.77-1.11-2.18-.97-.52-1.96-1.11-3.1-1.23-3.66-.38-7.36-.61-11.01-.24-4.15.42-8.3.56-12.45.44-3.84-.11-7.67-.4-11.5-.4-6.32 0-12.63.18-18.95.28-.16 0-.32.02-.48.03-5.58.42-11.19.28-16.77.8-3.03.28-6.07-.04-9.1-.06-2.73-.02-5.42-.21-8.12-.57-1.42-.19-2.87-.11-4.31-.17-.78-.04-1.21.36-1.32 1.08-.33 2.03-.89 4.02-.6 6.13.43 3.03.43 6.07-.27 9.07-.53 2.27-.73 4.58-.75 6.89-.04 5.44-.17 10.87-1.12 16.24-.36 2.05-.81 4.09-.95 6.16-.16 2.55-.28 5.1-.42 7.66-.17 3.12-.52 6.21-.9 9.3-.12.95-.19 1.94-.04 2.87.23 1.44.21 2.87.23 4.3.01 1.12-.05 2.25.05 3.36.29 3.28.19 6.55-.22 9.81-.36 2.95-.11 5.91-.12 8.86 0 .47.11.96.25 1.41.61 2.02.71 4.09.66 6.18-.12 4.95-.27 9.91-.42 15.13zm182.05 22.06c-1.34 0-2.54-.05-3.73 0-3.36.17-6.71.3-10.07.15-3.83-.17-7.67-.38-11.5-.64-3.28-.22-6.56-.27-9.83-.04-5.27.38-10.54.41-15.81-.05-2.39-.21-4.76-.26-7.16.25-2.73.58-5.5 1-8.3 1.21-1.99.15-3.99.23-5.97.5-1.43.19-2.85.37-4.29.42-4.63.17-9.27.36-13.9.53-.72.03-1.44-.04-2.15-.09-4.31-.32-8.61-.61-12.94-.58-3.2.02-6.4-.08-9.59-.17-1.13-.03-2.21.08-3.31.38-2.89.8-5.83 1.01-8.76.19-2.76-.78-5.57-.54-8.32-.21-1.6.19-3.14.47-4.74.15-.46-.09-.96-.03-1.44-.04-2-.05-4-.07-5.99-.16-4.31-.18-8.62-.39-12.93-.6-.71-.04-1.43-.14-2.14-.25-3.72-.62-7.46-.93-11.22-.81-1.18.04-2.58-.31-3.51.38-.85.63-.79 2.04-1.2 3.07-.33.82-.62 1.63-.57 2.54.05 1.04 0 2.08-.01 3.11-.03 2.04 1.11 3.5 3.11 3.92.62.13 1.27.19 1.91.17 1.84-.06 3.69-.04 5.5-.3 2-.28 3.98-.3 5.98-.26 1.68.03 3.35.13 5.03-.02 1.1-.1 2.25-.03 3.35.13 4.59.66 9.16 1.47 13.75 2.05 6.02.76 12.04 1.58 18.14 1.6 3.67.01 7.34.34 11 .52.24.01.48.03.72.07 5.81.87 11.66.66 17.47.27 3.51-.23 7.02-.53 10.53-.7 9.11-.43 18.23-.3 27.34 0 5.99.19 11.97.55 17.97.38 3.75-.11 7.5-.04 11.25.48 5.96.82 11.98.49 17.97.63 4.63.11 9.27-.13 13.91-.17 2.81-.03 5.6-.23 8.36-.66 2.53-.4 5.05-.78 7.62-.78 1.29 0 2.53-.28 3.79-.55 1.5-.32 2.26-1.47 2.42-2.64.19-1.45.66-2.78.98-4.17.27-1.16.12-2.28-.54-3.21a12.33 12.33 0 0 1-1.81-3.89c-.24-.89-.78-1.33-1.71-1.38-2.07-.12-4.15-.32-6.22-.42-2.56-.13-5.11-.08-7.64.42-1.17.23-2.37.37-3.57.42-2.08.1-4.16.07-6.2.53-.31.07-.63.07-.95.07-.63 0-.78-.44-.41-1.17.07-.14.15-.27.32-.58zm-148.59 15.9v-.57c-2.68-.28-5.28-1.05-8-1.11-.56-.01-1.13-.05-1.67.07-.96.21-1.9.13-2.86.07-2.47-.16-4.93-.18-7.4.14-2.05.27-4.12.41-6.2.33-1.45-.06-2.87-.2-4.06-1.17-.18-.14-.46-.19-.57.1-.05.11.03.35.13.43.36.3.72.7 1.15.81 2.54.62 5.06 1.43 7.74 1.21 1.35-.11 2.71-.11 4.06-.18 2.87-.16 5.72-.23 8.6-.08 3.01.16 6.04 0 9.06-.03zm62.02-15.49c-2.26-.11-4.54-1.12-7.08.14 2.59.56 4.83.1 7.08-.14zm114.99 2.25c.25-.42.5-.82.72-1.22.23-.41.13-.81-.25-1.02-.33-.18-.79-.33-1.11-.24-.55.15-.23.64-.14.98.15.51.24 1.07.78 1.51z"/><path d="M123.37 183.62c.29.75.83.59 1.26.7.3.08.64.15.87.34.33.27.38.68.19 1.09-.2.43-.56.64-.96.46-2.13-.98-4.32-.89-6.55-.46-1.09.21-2.21.26-3.29.59-.47.15-.98.07-1.33-.32-.69-.74-1.63-.97-2.51-1.34-1.61-.66-2.83-1.73-3.47-3.41a5.852 5.852 0 0 1-.15-3.78c.77-2.63.65-5.41 1.48-8 .27-.85-.55-1.76.29-2.49.69-.61 1.56 0 2.3-.37 1.36-.7 2.86-1.01 4.29-1.5 3.28-1.13 6.64-1.23 9.94-.51 4.59 1 9.18 1.16 13.83.78 3.05-.25 6.08.16 9.09.5 4.81.54 9.58.24 14.35-.39 2.93-.39 5.86-.77 8.77-1.28 3.93-.69 7.81-.36 11.69.27 1.26.2 2.51.47 3.77.69 3.25.57 6.51.65 9.8.32 1.51-.15 3.03-.2 4.55-.21 4.4-.02 8.8-.16 13.18-.52 5.04-.41 10.07-.22 15.1.05 3.04.16 6.07.19 9.11.14 2.96-.06 5.91.17 8.86.48.79.08 1.59.15 2.39.19 2.08.1 4.15.17 6.22.48.94.14 1.91.13 2.87.12 2.24-.01 4.48-.08 6.72-.1 1.84-.02 3.67-.2 5.5-.28 5.59-.23 11.14-1.07 16.76-.68 2.86.2 5.75-.03 8.63-.03 4 0 7.99.03 11.99.05.48 0 .96.02 1.44-.02 1.44-.13 2.86-.28 3.95-1.43.48-.51 1.11-.68 1.65-.02.28.35.65.41 1.06.43.56.02 1.12.06 1.67.14 1 .14 1.82.53 2.18 1.6.32.97 1.05 1.57 1.98 1.96.37.15.72.36 1.05.58.81.55.99 1.37.21 2-1.58 1.28-1.92 2.8-1.44 4.68.13.52.11 1.14-.04 1.66-.39 1.36-.22 2.69.05 4.03.11.55.16 1.11.25 1.66.13.85.08 1.61-.87 1.99-.65.26-.63.87-.69 1.41-.16 1.43-.99 2.14-2.38 2.19-3.99.16-7.88 1.45-11.91 1.15-.32-.02-.65-.01-.96.06-2.53.63-5.08.37-7.64.19-3.83-.27-7.67-.29-11.51-.31-3.2-.02-6.38-.32-9.56-.69-3.49-.41-7-.69-10.5-1.03-.56-.05-1.13-.07-1.66-.21-3.96-1.07-8.05-1.23-12.1-1.67-2.7-.3-5.42-.46-8.12-.78-3.75-.44-7.51-.32-11.26-.12-6.07.32-12.14.47-18.21-.06-3.42-.3-6.85-.61-10.3-.55-3.6.07-7.19-.22-10.78-.41-2-.11-3.99-.05-5.99.13-1.99.17-3.99.24-5.99.26-4.08.06-8.16.09-12.24.07-1.52 0-3.04-.08-4.54-.27-2.48-.32-4.93-.35-7.41-.04-1.27.16-2.55.19-3.83.24-4.56.18-9.12.08-13.68 0-1.84-.03-3.66-.02-5.5.23-2.4.33-4.79-.16-7.15-.56-1.58-.27-3.11-.17-4.74-.09zm197.56-2.52l-.05-.02.1-.07c-.03.21-.08.42-.07.63 0 .09.15.18.23.27.05-.11.15-.23.14-.34 0-.22-.1-.42-.36-.48zm-28.33 4.32c5.56-.4 10.78-.13 15.93-.93.31-.05.64-.03.96-.05 2.79-.2 5.58-.39 8.37-.59.32-.02.64-.08.95-.14.63-.13.9-.41.68-.99-.67-1.76-.23-3.29.84-4.72.48-.65.46-1.31.15-2.04-.41-.97-.7-1.95-.15-2.99.38-.74.11-1.41-.42-1.97-.55-.58-1.14-1.12-1.68-1.71-.35-.38-.29-.92.1-1.27.29-.26.67-.43.94-.71.31-.32.17-1.05-.23-1.26-.27-.14-.58-.26-.89-.3-1.44-.16-2.88-.07-4.26.39-.84.28-1.68.47-2.56.58-4.52.56-9.04 1.19-13.56 1.72-3.41.4-6.83.84-10.28.81-3.12-.03-6.24-.03-9.36-.04-1.76 0-3.51-.15-5.26-.38-2.38-.31-4.77-.54-7.17-.64-5.03-.21-10.07-.32-15.1-.46-3.68-.1-7.36-.21-11.03-.22-1.36 0-2.71 0-4.07-.12-3.19-.26-6.37-.75-9.57-.57-4.88.28-9.75-.04-14.63-.14-3.85-.08-7.67.18-11.37 1.41-1.45.48-2.95.69-4.49.58-1.2-.09-2.4-.14-3.59-.18-3.04-.1-6.09-.25-9.1.16-3.5.48-7.01.61-10.53.62-3.76 0-7.52-.11-11.27-.17-1.6-.03-3.2-.02-4.8-.12-6.22-.41-12.44-.86-18.65-1.3-.32-.02-.65 0-.96-.06-3.02-.58-6.06-.34-9.09-.14-4.55.31-9.1.64-13.66.69-.64 0-1.28.02-1.92.08-.51.05-.91.33-1.1.81-.64 1.59-1.24 3.19.44 4.57.12.1.2.25.28.38.43.7.82 1.39.22 2.21-.21.29-.09.62.13.87.26.3.55.58.82.87.3.31.46.66.26 1.08-.16.34-.86.35-1.25-.05-.61-.62-1.45-1.05-1.82-1.87-.3-.67.51-1.16.4-1.81-.04-.21-.21-.39-.32-.58-.11.11-.3.19-.33.32-.39 1.38-.86 2.73-.88 4.2-.03 2.35 2.77 4.87 5.04 4.14 2.27-.73 4.66-1.07 6.99-1.6.54-.12 1.06-.25 1.48-.7.56-.61 1.32-.67 1.95-.18 1.23.96 2.62 1.1 4.08 1.04 1.77-.07 3.52.06 5.27.28 1.92.25 3.82.26 5.74.11 1.35-.1 2.72-.16 4.07-.05 4.32.36 8.64.19 12.95 0 3.68-.15 7.35-.24 11.03-.25 3.68 0 7.36 0 11.04-.12 2.08-.07 4.16-.2 6.23-.07 3.92.25 7.83.27 11.74-.13.55-.06 1.12-.04 1.68-.03 5.36.05 10.7.49 16.06.52 3.1.02 6.23.29 9.34.33 5.04.06 10.08 0 15.11-.06 2.88-.04 5.75-.23 8.63-.31 3.28-.09 6.56.05 9.82.43 2.14.25 4.29.57 6.45.51 3.78-.1 7.49.53 11.19 1.15 2.68.45 5.34 1.11 8.07 1.15 3.44.05 6.88.01 9.94.01zm-31.83-.75c2.27.41 4.13 1.13 6.13 1.3 2.94.25 5.89.54 8.83.84 1.43.14 2.85.43 4.28.49 3.51.16 7 .46 10.53.42 3.11-.03 6.23.21 9.34.37 1.92.1 3.82.23 5.72-.23.61-.15 1.28-.16 1.91-.12 1.85.11 3.68-.09 5.49-.42 1.57-.29 3.15-.51 4.75-.62.55-.04 1.09-.2 1.62-.37.21-.07.35-.29.32-.57-.04-.32-.29-.4-.49-.39-1.52.04-3.04.05-4.55.18-3.42.28-6.82.74-10.25.9-6.46.31-12.93.55-19.41.52-2.89-.01-5.73-.33-8.56-.87-5.03-.96-10.08-1.77-15.64-1.42zm-75.32-18.12c-2.67-.75-5.4-1.07-8.14-1.24-1.19-.07-2.38.01-3.57.19-3.15.47-6.3.88-9.45 1.34-.95.14-1.89.36-2.83.54 8.04.36 16.05.86 23.99-.84zm89.78.97c7.09.07 14.2.73 21.25-.68-7.09.19-14.2-.89-21.25.68zm-157.5-1.08c2.02.04 4.04.02 6.01-.48-2.05-.31-4.06-.29-6.01.48zm203.47 2.5c-.21.09-.39.12-.47.23-.07.09-.07.31 0 .4.18.26.4.49.62.72.18.19.42.19.64.07.29-.16.48-.41.51-.74.03-.29-.21-.39-.44-.46-.3-.09-.61-.15-.85-.21zm-65.17 15.33c.07 0 .13 0 .2-.01-.05-.03-.1-.07-.16-.08-.06-.01-.13 0-.2.01.05.03.11.05.16.08z"/><path d="M317.71 218.83v.45c.17 4.32.08 8.63-.08 12.95-.14 3.6.31 7.19.52 10.78.2 3.35.28 6.71.37 10.06.02.79-.09 1.6-.25 2.38-.58 2.84-.81 5.69-.71 8.58.05 1.6.02 3.19-.42 4.76-.26.94-.81 1.54-1.76 1.75-.47.1-.94.25-1.41.27-2.15.1-4.31.13-6.47.23-2.95.15-5.9.35-8.85.53-.23.01-.47.1-.69.18-3.61 1.44-7.38 1.18-11.13 1.03-3.68-.15-7.35-.19-10.96.74-1.09.28-2.22.2-3.33-.02-.62-.12-1.28-.27-1.89-.2-3.11.34-6.22-.24-9.34.18-1.64.22-3.37-.04-4.97-.59-3.16-1.09-6.42-1.22-9.71-1.11-4.24.14-8.47.3-12.7.49-.95.04-1.89.28-2.84.41-2.77.37-5.53.79-8.31 1.08-1.66.17-3.36.24-5.03.13-1.35-.09-2.55-.86-3.74-1.48-.36-.19-.46-.65-.41-1.07.1-.71.18-1.43.38-2.12.77-2.64.96-5.32.72-8.06-.17-1.91-.34-3.84-.22-5.74.18-2.87-.3-5.75.17-8.62.14-.85-.04-1.75-.11-2.63-.08-1.12-.16-2.23-.3-3.34-.35-2.72.03-5.42.25-8.13.13-1.68.23-3.32-.4-4.95-.22-.57-.28-1.29-.15-1.88.34-1.59.29-3.18.28-4.78-.03-3.78.75-7.47 1.33-11.17.31-1.97.74-3.93 1.25-5.86.37-1.44.46-2.84.08-4.26-.73-2.73-.79-5.5-.82-8.3-.01-1.01.32-1.35 1-1.86 1.76-1.3 3.71-1.39 5.71-1.03 1.44.26 2.85.27 4.29.22 1.12-.04 2.26-.1 3.35.11 2.19.42 4.4.75 6.6 1.12 2.33.39 4.61.41 6.92.22 1.61-.13 3.17-.2 4.75.26 1.23.36 2.53.44 3.8.18 2.62-.54 5.22-.44 7.87-.25 2.62.19 5.27.03 7.9-.07 1.6-.06 3.2-.18 4.79.02 1.21.16 2.39-.08 3.59-.14 1.45-.06 2.89-.03 4.24.57.84.38 1.7.37 2.59.32 1.44-.08 2.85.06 4.28.32 2.04.36 4.12.43 6.18.68 3.82.46 7.65-.06 11.48.09 1.12.04 2.23.03 3.32.34 1.09.31 2.22.37 3.31 0 1.28-.43 2.52-.14 3.77.08.83.15 1.2.65 1.34 1.45.2 1.19.36 2.38.26 3.58-.41 5.04.14 10.07.2 15.1.03 2.08.21 4.15.12 6.02zm-102.57 52.33c1.36.92 2.67 1.18 4.18 1.23 2.99.1 5.89-.47 8.81-.83 3.41-.42 6.81-.86 10.25-1 4.15-.17 8.31-.34 12.47-.21 1.53.05 3.01.26 4.48.73 1.83.59 3.73 1.08 5.65.88 3.28-.34 6.55.14 9.82-.15.62-.06 1.28.06 1.9.2 1.12.25 2.2.16 3.31-.09 3.29-.73 6.65-.83 10.01-.7 1.92.08 3.83.19 5.75.18 1.36 0 2.76-.04 4.03-.53 3.37-1.31 6.93-.98 10.4-1.35 2.21-.24 4.46-.09 6.69-.13.56-.01 1.12-.07 1.67-.17.69-.12 1.11-.53 1.28-1.24.33-1.34.35-2.68.16-4.04-.36-2.55-.28-5.1.47-7.57.54-1.8.7-3.59.56-5.44-.09-1.19-.1-2.39-.15-3.59-.06-1.52-.1-3.04-.2-4.55-.33-4.7-.77-9.41-.4-14.13.16-2.08.08-4.15.02-6.23-.13-4.39-.22-8.79-.3-13.18-.07-4.15-.43-8.3-.1-12.46.07-.84.06-1.75-.43-2.49-1.29-.11-2.46-.03-3.62.37-.84.3-1.76.42-2.58.03-1.52-.71-3.11-.57-4.71-.57-1.92 0-3.84-.14-5.75-.04-1.44.07-2.87.11-4.3-.06-1.9-.22-3.82-.38-5.72-.59-.63-.07-1.29-.14-1.88-.37-1.08-.42-2.18-.43-3.3-.42-1.04.01-2.09.09-3.07-.36-1.52-.69-3.1-.67-4.71-.47-1.03.13-2.07.21-3.11.06-1.43-.21-2.87-.07-4.3-.03-3.19.1-6.38.3-9.57-.06-1.35-.15-2.67-.13-4.02.28-2.4.71-4.85.99-7.3.06-.99-.38-2.02-.3-3.07-.12-2.38.4-4.74.32-7.14-.07-2.28-.38-4.58-.61-6.84-1.15-.61-.15-1.27-.18-1.91-.15-2.07.1-4.14.21-6.2-.26-.53-.12-1.12-.05-1.67-.04-1.8.04-3.12 1.35-3.08 3.19.03 1.59.02 3.18.49 4.75.67 2.26.69 4.53-.02 6.84-.94 3.06-1.29 6.25-1.74 9.42-.29 2.05-.69 4.08-.63 6.18.05 1.75.11 3.52-.27 5.26-.12.56.04 1.09.19 1.64.56 1.99.82 3.97.37 6.09-.63 2.99-.54 6.05.05 9.05.25 1.27.38 2.52.36 3.8-.03 2.72-.08 5.43-.06 8.15.01 2.24.05 4.48.17 6.71.15 2.65.05 5.26-.96 7.76-.24.59-.46 1.19-.42 1.95zm75.1-145.92c2.38.39 4.5.88 6.64 1.05 2.86.23 5.71.65 8.6.59 1.44-.03 2.88.03 4.32.1 1.52.08 2.65 1.42 2.36 2.95-.5 2.62-.32 5.24-.1 7.86.09 1.02.28 2.09-.53 2.97-.43.47-.26 1.05-.26 1.6.02 1.2.02 2.4.03 3.6 0 .78-.31 1.42-.95 1.84-.55.36-1.21.52-1.8.08-1.03-.77-2.24-.89-3.43-.85-4.01.14-7.99-.17-11.97-.51-1.29-.11-2.55-.05-3.82.2-1.74.34-3.5.39-5.25.22-1.2-.12-2.38-.11-3.58.02-1.19.13-2.39.15-3.59.14-1.13 0-2.23.12-3.33.33-.97.18-1.35-.2-1.3-1.16.05-1.12.11-2.23.16-3.35.01-.32.08-.66 0-.96-.63-2.61.08-5.23-.05-7.84-.04-.71.02-1.44.1-2.15.27-2.24 1.55-3.75 3.75-4.07 1.45-.21 2.79-.64 4.12-1.19a9.54 9.54 0 0 1 3.5-.74c.31 0 .65.02.88-.3-.08-.09-.16-.26-.25-.26-1.43-.14-2.86-.27-4.29-.38-.88-.07-1.76 0-2.62.23-.94.25-1.9.23-2.85.07-1.02-.17-2.05-.3-3.08-.47-.47-.08-.95-.16-1.4-.3-.97-.31-1.57-.94-1.9-1.97-.86-2.73-.94-5.51-.53-8.3.27-1.83.27-3.66.34-5.5.04-1.06-.24-2.05-.48-3.06-.11-.48-.03-1.11.5-1.2.8-.14 1.23-.59 1.63-1.21.4-.62 1.08-.93 1.73-1.24 1.63-.77 3.36-1.04 5.14-.9 1.51.12 3.04.22 4.52.54 4.03.88 8.11.71 12.18.64.88-.02 1.76-.03 2.64-.06 3.2-.11 5.58 2.39 6.09 5.37.09.55.1 1.11.16 1.67.2 1.74.35 3.5.88 5.19.55 1.72.45 3.47.18 5.22-.38 2.4-2.58 4.54-4.98 4.76-.71.06-1.43-.03-2.15-.04-1.12-.01-2.24-.02-3.35-.02-.9 0-1.72.24-2.6.81zm9.37-19.54c-.6-1.14-1.61-1.74-2.85-1.87-1.03-.1-2.07-.06-3.11-.03-4.39.11-8.78.24-13.12-.7-1.32-.29-2.69-.35-4.05-.44a9.14 9.14 0 0 0-3.99.62c-1.2.47-1.73 1.22-1.8 2.51-.16 2.87-.38 5.74-.68 8.6-.19 1.84-.15 3.67 0 5.5.11 1.47.24 1.71 1.62 1.9 2.61.37 5.22.85 7.86.61 2.63-.24 5.26-.31 7.9-.37.72-.02 1.44-.06 2.14-.2 1.43-.29 2.86-.33 4.29-.1 1.92.31 3.83-.07 5.74 0 .78.03 1.12-.35 1.32-1.13.06-.23.11-.47.14-.7.42-3.44.18-6.86-.34-10.26-.12-.8-.54-1.51-1.36-1.85-.45-.19-.88-.37-1.19-.77-.21-.27-.31-.57-.21-.89.12-.35.43-.43.77-.4.28.03.56.33.9-.03zm10.63 28.47c.13-1.09-.01-2.03-.21-2.98-.35-1.65-1.38-2.47-2.97-2.65-1.11-.12-2.23-.14-3.34-.18-1.2-.04-2.4-.07-3.49.59-.46.28-.89.26-1.34-.05-.1-.07-.35-.12-.41-.06-1.15 1.26-2.69.74-4.07.89-2.06.23-4.15.06-6.19.52-1.18.27-2.36.32-3.57.34-2.87.05-5.74.15-8.62.21-.64.01-1.13.26-1.28.86-.36 1.46-.96 2.87-.82 4.43.22 2.54.4 5.08.6 7.62.02.24.05.48.1.71.12.49.59.88 1.07.72 1.32-.43 2.68-.22 4.02-.37 1.27-.14 2.55-.2 3.8-.4 2.54-.39 5.08-.43 7.6.1.94.2 1.71.22 2.23-.77.2-.39.65-.54.99-.19.5.52 1.11.58 1.75.55.72-.03 1.44-.05 2.15-.13 2.31-.25 4.61-.38 6.91.06 1.06.2 2.05-.02 3.05-.37.78-.27 1.3-.77 1.18-1.57-.17-1.22.22-2.34.34-3.51.16-1.5.71-2.96.49-4.37zm-31.1-5.15c1.75.38 3.16.08 4.56.07 1.17-.02 1.17-.06 1.44-1.63-2.01-.03-3.94.17-6 1.56zm30.66 16.41c-.02-.14-.08-.32-.19-.4-.28-.19-1.32.08-1.47.36-.03.06-.03.19.01.22.22.2.44.41.7.55.18.09.46.15.63.07.3-.14.36-.49.32-.8zm-8.46-.11c.2-.01-.17 0 0 0-.16 0 .2 0 0 0zm-13.56-18.15c-.39-.08-.78-.34-1.31.08.54-.03.92-.06 1.31-.08zm-96.6-73.51c.52.43 1.06.22 1.58 0 2.23-.91 4.35-2.03 6.34-3.38 1.59-1.08 3.12-2.23 4.71-3.31.92-.63 1.86-1.28 2.87-1.72 2.75-1.2 4.23-.49 5.52 1.22.53.7 1.05 1.41 1.55 2.13.96 1.41 2.19 2.52 3.61 3.46.62.41 1.11.47 1.72-.03 1.42-1.19 3-2.12 4.63-2.98 3.62-1.93 7.41-2.42 11.38-1.4.23.06.47.1.7.18 2.67.85 3.77 2.31 3.87 5.1.01.32-.03.64-.03.96 0 .23.03.47.05.68.51.37.75-.08 1.01-.3 2.33-1.93 5.02-3.09 7.95-3.76.23-.05.47-.09.7-.16 5.12-1.58 10.12-.97 15.04.86 1.35.5 2.71.97 4.12 1.27 4.3.94 8.58.64 12.86-.2 2.91-.57 5.86-.84 8.82-.77.48.01.96.03 1.43.1.42.07.73.35.77.79.05.46-.28.76-.67.86-.46.12-.95.15-1.42.14-3.54-.04-7 .55-10.47 1.14-5.37.91-10.66.69-15.79-1.41-1.4-.57-2.89-.93-4.35-1.32-2.34-.63-4.7-.89-7.11-.31-1.55.37-3.14.61-4.68 1.02-2.76.73-5.19 2.05-7.2 4.11-.39.4-.8.79-1.24 1.13-.38.3-.83.5-1.33.22-.47-.27-.64-.69-.58-1.21.05-.4.16-.79.2-1.18.08-.87.2-1.75.2-2.63 0-1.98-.54-2.79-2.39-3.4-2.56-.84-5.17-1.08-7.79-.3-2.63.79-4.99 2.13-7.2 3.75-.5.37-.67.73-.35 1.41.88 1.89.5 3.19-1.17 4.32a6.8 6.8 0 0 1-1.72.82c-1.08.35-1.88-.27-1.95-1.43-.07-1.19.5-2.16 1.04-3.14.59-1.07.61-1.1-.25-1.7-1.73-1.2-3.19-2.65-4.28-4.47-.2-.34-.48-.64-.73-.95-1.43-1.73-2.11-1.91-4.11-.82-1.26.69-2.42 1.55-3.6 2.38-2.35 1.67-4.69 3.35-7.29 4.61-.65.31-1.3.62-1.95.92-1.39.65-2.84 1.1-4.4.95-.88-.08-1.52.22-2.14.8-1.34 1.26-2.68 2.52-4.26 3.49-.62.38-1.23.74-1.97.83-.94.12-1.6-.35-1.63-1.29-.03-.71.04-1.44.15-2.14.14-.87.38-1.72.56-2.58.49-2.25.24-4.46-.35-6.64-.12-.46-.34-.9-.58-1.31-.39-.68-1-.99-1.81-.93-1.23.1-2.33.55-3.35 1.19-.29.18-.37.52-.16.83.96 1.44 1.02 3.03.64 4.62-.5 2.07-1.64 3.82-3.18 5.27-1.8 1.7-3.88 2.75-6.49 2.56-4.22-.31-6.75-3.71-5.8-7.87.36-1.58 1.02-3.02 1.88-4.38.73-1.15 1.47-2.29 2.16-3.46.49-.83.83-1.73.71-2.73-.09-.79-.43-1.09-1.22-1.17-2.16-.22-4.12.31-5.9 1.53-.72.5-1.43 1.02-2.12 1.57-2 1.56-2.56 4.69-1.1 7.19.16.27.34.54.56.78 1.38 1.54 1.26 3.23.37 4.9-.9 1.69-1.92 3.32-2.87 4.98-.77 1.34-2 2.06-3.44 2.39-1.26.29-2.55.28-3.82.05-1.61-.3-2.5-1.26-2.75-2.9-.34-2.2 0-4.3.91-6.32.13-.29.31-.56.5-.81.34-.45.94-.52 1.23-.14.32.43 0 .66-.26.99-1.6 1.95-1.66 4.22-1.2 6.56.13.66.64 1.07 1.28 1.32 2.39.95 5.34-.02 6.67-2.24.82-1.37 1.59-2.77 2.38-4.16.78-1.37.9-2.61-.21-3.96-1.64-1.99-1.94-4.32-1.17-6.79.27-.85.68-1.62 1.32-2.25 1.67-1.66 3.58-2.95 5.8-3.73 1.62-.57 3.32-.43 4.99-.32.62.04 1 .5 1.19 1.05.52 1.5.5 3-.29 4.4-.75 1.32-1.56 2.61-2.36 3.9-.8 1.3-1.47 2.64-1.77 4.17-.6 3.09 1.04 5.42 4.15 5.77.55.06 1.12.03 1.67-.05 3.18-.45 6.51-4.41 6.58-7.66 0-.47-.12-.95-.26-1.4-.26-.81-.79-.95-1.41-.36-.81.77-1.58 1.58-2.37 2.38-.4.4-.85.71-1.47.7-.59 0-1.11-.64-.83-1.14 1.04-1.82 2.24-3.58 4.15-4.53.92-.46 1.83-.96 2.78-1.36 1.03-.43 2.07-.88 3.15-1.11 1.92-.43 3.21.24 4.21 1.96.49.85.69 1.79.9 2.72.55 2.47.43 4.92-.15 7.37-.18.76-.51 1.52-.26 2.31.38.14.66 0 .91-.19.94-.74 1.87-1.5 2.82-2.22.96-.73 1.66-1.47.79-2.76-.24-.35-.2-.93-.17-1.4.05-1.16.68-1.98 1.79-2.28 1.42-.39 2.86-.32 4.26.11 1.06.33 1.34 1.41.65 2.3-.45.58-1.02 1.01-1.64 1.37l.06.14-.02-.18zm-.67-1.99c-.7-.28-1.32-.22-1.94-.12-.44.07-.66.39-.69.82-.02.38-.05.79.38 1 .33.16.61-.03.84-.23.46-.4 1.07-.64 1.41-1.46zm28.5 4.15c-.09-.12-.15-.29-.26-.36-.11-.07-.33-.1-.42-.04-.66.47-1.04 1.13-1.08 1.95 0 .08.21.26.3.25.82-.11 1.51-1 1.45-1.8zm-25.6 73.59c-.36-.39-.75-.49-1.15-.51-2.23-.14-4.46-.4-6.7-.27-1.68.1-3.36.07-5.03.2-2.18.17-4.3-.26-6.43-.59-1.3-.2-2.14-.99-2.54-2.25-.34-1.08-.53-2.17-.5-3.3.12-3.84-.38-7.66-.58-11.48-.07-1.31.4-2.4 1.64-2.86 1.26-.47 2.47-1.18 3.88-1.14.24 0 .49-.01.71-.09 2.62-.92 5.36-.69 8.06-.87 3.43-.24 6.86.01 10.3-.35 2.76-.3 5.59-.36 8.35.34.7.18 1.4.35 2.02.71.79.45 1.41 1.08 1.62 1.99.5 2.16 1.26 4.24 1.11 6.57-.13 1.97.2 3.99.43 5.97.24 2.03-.34 3.97-.55 5.95-.05.51-.42.86-.91 1.02-.52.18-1.06.31-1.71.5 1.61.95 3.26 1.07 4.97.95 2.55-.18 5.1-.12 7.62.33.58.1.81-.44 1.3-.4.38.03.6.22.65.56.03.23 0 .48-.07.7-.32 1.03-.19 2.04 0 3.08.4 2.28.75 4.57 1.1 6.86.08.55.06 1.12.09 1.68.04.75-.09 1.44-.67 1.97-.36.33-.61.72-.77 1.19-.1.32-.35.52-.69.58-4.36.74-8.72 1.2-13.03-.22-1.46-.48-2.95-.68-4.48-.63-1.44.05-2.88.03-4.32.04-1.28 0-2.55-.03-3.81-.34-1.25-.31-2.54-.26-3.82-.24-.32 0-.64.05-.96.03-.83-.03-1.34-.49-1.09-1.18.64-1.75.41-3.65 1.12-5.37.22-.54.35-1.07.22-1.63-.34-1.53.1-3.02.24-4.53.09-.99.82-1.8 1.72-1.62 1.38.26 2-.46 2.67-1.33zm-6.45-21.83v.17c-.72 0-1.44.06-2.15 0-3.23-.3-6.34.5-9.48 1.04-2.19.38-2.78 1.08-2.97 3.34-.06.71 0 1.43.09 2.14.15 1.27.23 2.54.16 3.82-.12 2.24.17 4.46.37 6.69.09 1.01.58 1.56 1.6 1.78 2.42.52 4.82 1.05 7.34.53 1.16-.24 2.38-.21 3.58-.27 1.75-.09 3.51-.16 5.26-.24 1.28-.06 2.55-.09 3.81.25 1.68.46 3.32.26 4.94-.32.6-.21 1.22-.41 1.84-.51.72-.11 1.35 0 1.92.65.69.8 2.21.9 3.03.34.18-.12.35-.36.37-.57.22-1.73.7-3.43.44-5.22-.26-1.81-.51-3.67-.4-5.49.14-2.15-.54-4.09-1-6.1-.18-.78-.66-1.26-1.36-1.54-.44-.17-.91-.29-1.37-.4-2.84-.68-5.72-.51-8.58-.25-1.52.14-3.02.22-4.54.18-.96-.02-1.91 0-2.87 0zm31.75 31.76c-.11-1.27-.2-2.63-.36-3.97-.19-1.61-.23-1.52-1.91-1.92-1.27-.3-2.52-.29-3.79-.24-.71.03-1.43.03-2.14-.02-2.62-.18-5.24-.43-7.86-.58-1.03-.06-2.08 0-3.1.16-1.98.29-3.95.59-5.95.5-.56-.03-.93.22-1.14.68-.67 1.44-1.4 2.87-1.95 4.37-.35.96-.49 2.01-.63 3.04-.1.72.35 1.27 1.06 1.33.87.07 1.75.1 2.63.06 2.73-.12 5.41.05 8.03.92.98.32 2.01.57 3.06.35 2.01-.41 3.95-.11 5.9.42 1.38.37 2.81.57 4.24.76 2.26.29 3.52-.69 3.77-2.9.11-.95.1-1.91.15-2.95zm-13.16-8.32c-.09-.29-.35-.31-.57-.36-2.85-.53-5.73-.34-8.6-.28-.62.01-1.23.31-1.84.5-.32.1-.54.32-.48.87 3.71.05 7.41-1.03 11.15-.52.1.01.23-.13.34-.2zm-2.93-2.42c-1.43-.41-2.41-.29-3.39-.04.98.31 1.96.34 3.39.04zm-12.04 5.46c.21-.38.39-.68.55-.99.09-.18.02-.33-.17-.35-.13-.01-.33.03-.39.12-.22.34-.25.71 0 1.23zm15.81-45.6c.07 1.76.24 3.51.18 5.27-.11 3.38-1.79 6.06-4.1 8.39-.59.6-1.36.77-2.19.8-2.63.08-5.27.12-7.89-.15-2.23-.23-4.44-.45-6.69-.22-1.03.1-2.08.06-3.11-.04-2.96-.27-5.9.1-8.84.2-3.44.12-6.85-.38-10.29-.29-1.68.05-3.35.04-5.03.04-.8 0-1.61.03-2.39-.09-1.18-.18-2.3-.34-3.53-.07-1.14.25-2.44 0-3.44-.65-1.23-.81-1.89-1.9-1.9-3.58-.04-5.19.05-10.37.5-15.54.11-1.31.7-2.05 2.08-2.14 2.38-.16 4.78-.51 7.16.03 1.11.25 2.21.24 3.33.16 1.19-.08 2.41-.24 3.59-.09 3.16.4 6.22-.09 9.26-.8 1.73-.41 3.46-.53 5.23-.44 3.35.17 6.7.3 10.05.43.55.02 1.12-.04 1.67-.11 2.7-.37 5.39-.51 8.08.2.98.26 2.06.21 3.1.19 1.39-.03 2.67.4 3.95.85.65.23 1.01.7 1.02 1.45.03 2.08.11 4.15.17 6.23h.05zm-9.42 12.93c.72 0 1.44.05 2.15-.01 1.25-.11 2.16-.62 2.92-1.76 1.21-1.82 1.4-3.72.99-5.72-.24-1.18-.49-2.35-.48-3.55.03-2.33-.31-4.62-.74-6.9-.18-.96-.27-1.08-1.2-1.1-2.16-.07-4.31-.06-6.46-.32-4.12-.5-8.26-.88-12.43-.67-.56.03-1.12.03-1.68.01-4.35-.13-8.59.62-12.81 1.57-1.17.26-2.35.45-3.53.65-.58.1-1.16-.02-1.46-.57-.32-.58-.79-.69-1.39-.7-1.36 0-2.73.15-4.06-.2-1.98-.52-3.97-.23-5.96-.13-.75.04-1.12.47-1.3 1.17-.4 1.56-.7 3.13-.5 4.74.14 1.12.2 2.22-.22 3.31-.21.53-.24 1.11-.07 1.65.35 1.14.9 2.22.9 3.46 0 1.42 1.7 1.59 2.12 2.76.23.64.89.87 1.55 1 1.88.37 3.76.87 5.68.76 2.23-.13 4.44-.54 6.67-.04.07.02.16 0 .24-.03 2.8-.73 5.72-.57 8.54-1.21 1.86-.43 3.79-.74 5.71-.48 4.27.57 8.55 1.13 12.8 1.83 1.34.22 2.66.46 4.02.49zm7.67-9.82v-8.46c0-.16 0-.36-.08-.46-.13-.17-.33-.3-.53-.4-.04-.02-.24.18-.29.3-.23.63-.15 1.28.06 1.88.6 1.7.55 3.46.56 5.22 0 .55-.13 1.11.27 1.92zm-55.47 7.35c-.11.1-.31.22-.29.27.17.56.61.88 1.11 1.13.16.08.35.02.37-.16.04-.48-.65-1.15-1.18-1.24z"/><path d="M256.13 125.37c-.56 0-1.12.04-1.68 0-2-.18-3.91-.09-5.87.65-1.36.51-2.99.36-4.5.4-2.95.08-5.91.06-8.86.13-1.28.03-2.53.31-3.78.58-3.53.77-7.09 1.14-10.69.46-.72-.14-1.43-.08-2.14.02-.56.08-1.12.16-1.65-.08-1.17-.51-2.28-1.13-3.61-1.18-.49-.02-.78-.49-.96-.97-.28-.77-.35-1.54-.19-2.36.26-1.27.35-2.51-.43-3.7-.44-.68-.46-1.52-.43-2.33.09-2.63.43-5.25.21-7.9-.1-1.23.68-2.27 1.09-3.37.2-.53.78-.78 1.35-.91 2.48-.56 4.92-1.46 7.54-.76.59.16 1.28.07 1.9-.01 1.83-.24 3.66-.27 5.5-.28 2.4 0 4.8 0 7.19-.03 1.52-.02 3.03 0 4.52.37.69.17 1.42.23 2.14.26 2.96.12 5.91.22 8.87.28.79.02 1.59-.1 2.38-.19 1.12-.12 2.26-.27 3.34 0 2.23.56 4.07 1.55 5.04 3.94a34.5 34.5 0 0 1 2.31 9.02c.19 1.6-.31 3.17-.39 4.75-.05 1.13-.54 1.76-1.23 2.43-.48.47-1.02.72-1.71.71-1.76-.02-3.51 0-5.27 0v.06zm-42.85-11.91c.24 2.06.41 4.14.76 6.18.21 1.25.6 2.49 1.11 3.65.43.97 1.74.66 2.48 1.3 1.31 1.14 2.9 1.24 4.52 1.17 2.88-.12 5.73-.53 8.54-1.13 2.05-.43 4.08-.72 6.17-.72 1.36 0 2.72-.02 4.08-.07 3.11-.09 6.23-.16 9.34-.4 2-.15 3.98-.2 5.91-.82.94-.3 1.93-.39 2.83-.03.96.37 1.67.26 2.28-.55 1.37-.12 1.58-1.17 1.71-2.22.11-.87.18-1.76.1-2.63-.25-2.8-1.06-5.45-2.18-8.04-.88-2.04-2.4-2.91-4.44-3.07-.87-.07-1.75.08-2.63.12-4.55.21-9.11.41-13.61-.5-1.27-.26-2.53-.39-3.8-.34-4.31.15-8.63.33-12.94.48-.88.03-1.8.14-2.62-.09-1.56-.44-3-.1-4.47.27-2.2.55-2.2.54-2.49 2.69-.05.39-.09.8-.21 1.18-.39 1.16-.42 2.35-.42 3.57zm51.9 25.39c0 1.6.05 3.19-.01 4.79-.07 1.7-1.92 3.16-3.52 2.58-2.59-.93-5.16-.61-7.79-.43-5.25.37-10.51.86-15.78.66-2.39-.09-4.77-.41-7.14-.71-1.6-.2-3.17-.22-4.74.23-.23.06-.47.08-.71.09-.48.02-.91-.5-.76-.97.2-.6.43-1.2.72-1.77.48-.91.68-1.77-.02-2.68-.47-.61-.44-1.33-.36-2.07.3-2.55 1.06-4.99 1.65-7.47.05-.23.14-.56.3-.63 1.14-.5 1.7-1.66 2.69-2.33.42-.28.88-.35 1.36-.37 1.06-.04 2.09.14 3.02.61 1.27.63 2.58.72 3.96.61 2.78-.22 5.59-.01 8.34-.65.15-.04.32-.03.48-.04 2-.1 4 .2 5.97.09 1.99-.11 3.97-.33 5.97-.23 1.49.07 2.98.02 4.47-.05.6-.03.94.24 1.04.73.27 1.33.56 2.66.69 4.01.19 1.98.26 3.98.38 5.97h-.22zm-37.51-.29c.14 1.26-.11 2.55.41 3.78.54 1.27.69 1.47 2.11 1.47 3.59-.01 7.17 0 10.76.26 4.78.34 9.57-.13 14.3-.93 1.46-.25 2.76-.21 4.15.5 2.48 1.27 4.47-.28 4.18-3.08-.11-1.03-.2-2.07-.34-3.1-.29-2.14-.72-4.25-1.65-6.22-.35-.74-.8-1.09-1.65-1.07-1.84.04-3.67-.02-5.51-.02-.64 0-1.28.03-1.91.09-.32.03-.63.18-.67.56-.05.45.27.95-.13 1.36-.54.56-1.03-.07-1.55-.07-.4 0-.8-.05-1.2-.02-1.12.08-2.22-.15-3.32-.24-2.37-.21-4.74-.77-7.15-.26-.86.18-1.73 0-2.61-.16-1.49-.28-2.99-.48-4.5-.61-1.39-.13-3.12 1.05-3.24 2.29-.17 1.82-.72 3.62-.49 5.48zm18.49-8.57c.58.72 1.2.67 1.83.56.12-.02.25-.18.29-.31.11-.31-.15-.41-.37-.44-.54-.07-1.09-.09-1.75.18zm-78.54-14.56c-.28 2.16-.31 4.31-.04 6.46.15 1.18.16 2.39.12 3.59-.05 1.41-.74 2.39-2.15 2.84-1.22.38-2.39.91-3.61 1.28-.83.26-1.71.46-2.58.52-4.47.32-8.93.54-13.35-.54-1.62-.4-3.27-.76-4.96-.81-1.68-.05-3.33.04-5 .35-4.88.9-9.8 1.36-14.77 1.02-.79-.05-1.58-.2-2.37-.29-.75-.08-1.17-.57-1.28-1.23-.29-1.7-1.17-3.33-.64-5.15.08-.29.03-.64-.05-.94-.91-3.23-.37-6.51-.4-9.77 0-.95.09-1.9.03-2.86-.19-2.96 1.61-4.41 4.48-3.84 2.18.44 4.39.65 6.64.37 1.74-.21 3.51-.33 5.26-.29 4.87.12 9.74.12 14.62-.02 2.93-.09 5.92-.15 8.83.51.39.09.8.13 1.19.1 2.25-.2 4.43.48 6.67.47 1.81 0 3.26 1.61 3.33 3.43.06 1.59.01 3.19.01 4.79zm-20.29 12.63c1.31.54 2.48.76 3.69.76 2.08 0 4.15 0 6.23-.04 1.84-.04 3.66-.22 5.35-1.08.49-.25 1.06-.35 1.59-.53 1.85-.6 2.08-.92 2.07-2.92 0-.4-.02-.8-.07-1.2-.42-3.03-.32-6.06-.13-9.09.06-1.03.1-2.08.05-3.11-.06-1.27-.86-2.19-2.09-2.17-2.17.04-4.27-.63-6.44-.47-.55.04-1.12-.04-1.67-.15-3-.59-6.05-.51-9.08-.44-2.64.07-5.27.11-7.91.13-3.04.03-6.07-.33-9.1-.04-2.23.22-4.44.35-6.68.24-.98-.05-1.88-.25-2.81-.44-1.13-.22-1.91.32-1.99 1.46-.07.95-.05 1.92.05 2.87.14 1.35.23 2.7.14 4.06-.22 3.2.35 6.38.33 9.58 0 1.13.86 1.93 2.01 1.94 1.37.02 2.7.23 4.05.37.87.09 1.77.12 2.63-.02 2.86-.48 5.73-.41 8.61-.52 3.19-.12 6.38-.11 9.54-.74 1.89-.38 3.82.03 5.74.08.15 0 .34.07.43.18.15.17.32.38.34.59.04.36-.25.67-.54.68-1.35.05-2.7.02-4.33.02zm125.34-28.94c-2 0-4-.06-5.99.02-2.56.1-5.11.23-7.66.48-2.48.24-4.95.23-7.42-.07-1.52-.18-3.03-.13-4.55-.04-.64.04-1.28.04-1.92 0-.69-.05-1-.34-1.06-1.07-.1-1.29-.39-2.5-.96-3.68-.35-.73-.22-1.57-.08-2.37.32-1.91.23-3.81.1-5.73-.13-1.82.01-3.67.1-5.5.05-.94.56-1.41 1.51-1.86 1.56-.73 2.98-1.01 4.59-.37.98.39 2.02.44 3.07.44 2.24 0 4.47-.06 6.69-.41.71-.11 1.43-.13 2.15-.13 2.48 0 4.95.12 7.43-.19 1.43-.18 2.88.05 4.29.37 1.11.26 2.21.33 3.33.33 2.72.01 5.43.15 8.14.48 1.27.16 2.07.72 2.45 1.92.14.46.38.9.44 1.36.2 1.6.57 3.13 1.22 4.61.25.56.3 1.25.3 1.88 0 1.84-.03 3.68-.14 5.51-.04.7-.32 1.39-.5 2.09-.22.9-.83 1.09-1.7 1.33-2.76.75-5.55.45-8.33.5-1.84.03-3.67.13-5.51.19v-.09zm2.66-1.76c3.56.24 6.17.05 8.77-.45.39-.08.87-.02 1.1-.37 1.1-1.63 2.5-3.17 1.72-5.43-.29-.82-.41-1.71-.66-2.55-.4-1.35-.48-2.85-1.88-3.72-.31-.19-.08-.83.33-.95.22-.06.47 0 .7 0 .27-.01.45-.17.43-.43-.11-1.35-.74-2.03-2-2.2-2.54-.35-5.09-.46-7.64-.47-1.2 0-2.38-.08-3.56-.35-1.64-.37-3.32-.41-5-.26-1.11.1-2.23.17-3.34.14-2.32-.07-4.62.02-6.93.27-3.1.34-6.2.45-9.27-.39-1.54-.42-1.92-.06-2.58 1.32-1.4 2.94-.7 5.94-.41 8.94.68.83.48 1.81.48 2.76 0 .47-.09 1.03.12 1.4.39.7.29 1.36.19 2.08-.1.66.11.9.71.96.4.04.8 0 1.2.04 3.14.28 6.18-.58 9.26-.9 5.61-.59 5.59-.72 10.88.41.23.05.46.16.69.19.55.06 1.12.17 1.66.1 1.99-.23 3.98-.33 5.05-.13zm-97.87 43.41c0 1.36.04 2.71-.01 4.07-.04.99-.34 1.27-1.32 1.31-1.83.06-3.67.08-5.46-.44-1.15-.34-2.31-.41-3.53-.37-4.06.14-8.12.35-12.17-.2-.93-.13-1.91.03-2.86.05-2.79.06-3.23-.37-3.11-3.1.04-.88.11-1.76-.1-2.62-.32-1.32.11-2.49.63-3.69 1.05-2.43 2.96-3.75 5.46-4.09 3.63-.49 7.18-1.49 10.87-1.58.88-.02 1.77-.14 2.62.09 1.58.44 3.14.38 4.72.05.78-.16 1.57-.26 2.37-.35 1.07-.13 1.43.11 1.31 1.09-.13 1.06.05 1.8 1.02 2.42.76.49.73.75.05 1.74-.25.36-.34.69-.35 1.09-.07 1.51-.13 3.03-.2 4.54h.08zm-2.92 1.66c-.3-1.36.07-2.34.34-3.34.16-.62.36-1.23.46-1.86.17-1.11-.05-1.42-1.17-1.56-.56-.07-1.15-.08-1.59-.46-1.15-.98-2.58-1.2-3.96-1.55-2.92-.76-5.85-.76-8.75.01-1.2.32-2.34.48-3.52.04-.15-.06-.31-.08-.47-.12-1.12-.26-2.03.28-2.9.84-.64.42-.46 1.14-.5 1.76-.05.73-.19 1.42-.47 2.09-.16.36-.31.74-.39 1.13-.13.68.3 1.23 1 1.32 1.27.18 2.56.25 3.79.56 1.52.38 2.98.29 4.51.1 1.97-.25 3.94-.83 5.95-.56 2.45.33 4.92.58 7.68 1.59zm.09 2.11c-1.37-.82-2.4-1.17-3.51-1.37-3.09-.55-6.18-.63-9.27-.06-1.83.33-3.66.37-5.46-.1-1.71-.45-3.46-.5-5.21-.64-.19-.02-.49-.03-.47.33.96.96.97 1.03 1.71.95 1.44-.16 2.86.06 4.29.12 1.5.07 3-.19 4.49.21.36.09.79-.04 1.18-.13 1.02-.25 2.06-.2 3.09-.13.48.03.96.14 1.43.09 1.62-.18 3.16.12 4.7.6.84.26 1.71.31 3.02.14zm.45-10.85c-.02-.06-.04-.12-.05-.18-.11.05-.23.1-.34.16-.01 0 .03.1.05.16.11-.05.23-.1.34-.15zm-45.16-30.3c-3.38-.07-6.89.25-10.38-.13-2.7-.29-5.4-.47-8.12-.5-1.3-.01-2.07-.67-2.49-1.85-.76-2.12-1.22-4.3-1.07-6.57.03-.48.07-.96.1-1.43.02-.34-.1-.56-.44-.73-1.12-.58-1.19-.64-.58-1.59.56-.87.53-1.61.02-2.44-.96-1.54-.72-3.25-.54-4.9.15-1.4 2.02-3.06 3.47-3.25.79-.1 1.59-.14 2.39-.17 1.2-.04 2.38-.17 3.53-.56 1.31-.45 2.67-.41 4.03-.3 3.9.31 7.8.44 11.7 0 2.23-.25 4.45.32 6.68.42.3.01.62.18.88.35.83.54 1.75.74 2.72.8 1.55.09 2.41.96 2.92 2.39.49 1.38.7 2.75.59 4.22-.13 1.83-.14 3.67-.13 5.5.01 2.3-.68 4.4-1.7 6.42-.25.5-.52 1.13-1.08 1.22-.99.15-1.49.83-2.1 1.46-1.17 1.21-2.58 1.8-4.3 1.66-1.99-.16-3.99-.18-6.1-.02zm-1.98-1.55c2.8.01 5.59-.09 8.39.07.63.04 1.07-.14.99-.94-.05-.52.35-.88.78-1.12.55-.32 1.11-.62 1.7-.87 1.89-.79 3.09-2.16 3.55-4.17.43-1.9.3-3.81.07-5.73-.15-1.27-.3-2.54-.4-3.81-.22-2.78-.23-2.79-3.05-3.29-1.02-.18-2.11-.11-3.04-.63-1.84-1.03-3.81-.97-5.8-.84-.64.04-1.27.25-1.9.23-3.11-.12-6.24.13-9.34-.24-.86-.11-1.81-.23-2.62 0-2.17.64-4.4.74-6.61 1.04-2.09.28-3.02 1.49-2.87 3.64.03.42.13.77.61.9.53.14.72.55.81 1.06.37 2.05.64 4.09.26 6.19-.42 2.34.06 4.61.8 6.84.22.67.66 1.11 1.39 1.1 3.12-.03 6.21.46 9.33.56 2.31.08 4.63.01 6.94.01zm87.68-22.07c.88 0 1.76-.02 2.63 0 1.04.04 2.06-.02 3.07-.34 1.15-.37 2.32-.34 3.54-.22 2.13.2 4.29.23 6.43.16 1.24-.04 1.96.37 2.39 1.5.23.59.59 1.13.89 1.69.18.35.43.68.51 1.06.67 2.87 1.32 5.74 1.97 8.62.04.16.07.31.11.47.7 2.58-.29 4.52-2.3 6.06-.51.39-1.07.7-1.59 1.07-1.67 1.15-3.51 1.55-5.47 1.11-1.2-.27-2.36-.25-3.56-.16-1.11.09-2.23.06-3.35.07-2.47.02-4.95-.02-7.39.49-.69.14-1.43.07-2.15.02-1.02-.08-1.6-.61-1.79-1.61a5.73 5.73 0 0 1-.08-1.43c.21-3.37-.17-6.7-.51-10.04-.24-2.33.05-4.62.55-6.89.25-1.11.67-1.5 1.8-1.54 1.43-.06 2.87-.01 4.31-.01v-.05zm-4.53 11.13v3.35c-.01 1.2-.05 2.39-.05 3.59 0 1.17.37 1.59 1.54 1.67 1.76.12 3.51-.05 5.25-.31 1.74-.27 3.49-.45 5.24-.31 2.18.18 4.28-.05 6.33-.82.66-.25 1.4-.31 2.1-.47.54-.13 1.09-.25 1.61-.42.96-.31 1.39-1.01 1.36-2 0-.32 0-.64-.07-.95-.3-1.5-.36-3.01-.32-4.52.03-1.22-.22-2.35-.81-3.44-.45-.83-.83-1.76-.96-2.69-.16-1.22-.78-1.82-1.88-2.12-3.03-.81-6.1-1.1-9.19-.41-.87.19-1.72.25-2.6.24-2.07-.02-4.15 0-6.22 0-.54 0-.84.25-1 .8-.34 1.17-.32 2.36-.32 3.56v5.26zm89.26-12.89c.98-.11 2.45.25 3.9.73.68.22 1.38.62 2.05.6 2.81-.1 5.54.76 8.35.5.76-.07 1.35.21 1.99.61 1.65 1.05 2.54 2.41 2.67 4.44.16 2.54.62 5.07.92 7.6.05.39 0 .81-.09 1.19-.37 1.39-.71 2.79-1.19 4.14-.53 1.48-1.5 1.94-3.02 1.37-2.04-.75-4.03-.8-6.09-.14-1.37.44-2.76.81-4.16 1.15-2.45.58-4.89.87-7.21-.49-.14-.08-.29-.15-.45-.17-1.97-.19-2.88-1.63-3.54-3.18-.75-1.76-1.36-3.59-1.88-5.43-.82-2.89-.24-5.71.75-8.45.32-.9.76-1.75.82-2.74.03-.54.38-.8.93-.9.7-.13 1.36-.45 2.06-.56.86-.14 1.75-.15 3.19-.25zm17.94 10.06c-.17-1-.49-2.1-.51-3.2-.03-1.37-.82-2.14-1.75-2.92-.45-.37-.87-.65-1.49-.61-2.73.18-5.4-.54-8.12-.49-.69.01-1.42-.25-2.08-.52-2.15-.88-4.37-.88-6.61-.61-1.62.2-2.36.93-2.25 2.51.16 2.34.02 4.62-.59 6.89-.16.61-.16 1.27-.21 1.9-.06.81.08 1.61.45 2.33.54 1.07 1.1 2.13 1.72 3.16.68 1.14 1.71 1.64 3.04 1.43 1.18-.18 2.39-.27 3.55-.57 1.89-.48 3.78-.62 5.71-.45 2.01.18 4-.04 5.97-.37 1.63-.27 2.83-1.23 3.18-2.87.33-1.56.6-3.23-1.4-4.05a.548.548 0 0 1-.18-.16c-.23-.24-.4-.51-.22-.85.17-.32.46-.44.8-.37.31.07.61.18 1-.19zm-185.97 42.98c1.36.12 2.71.18 4.04.49 1.42.33 2.86.11 4.3-.02 2.04-.19 2.19-.05 2.32 1.97.07 1.04.14 2.07.26 3.1.12 1.04.17 2.04-.21 3.07-.4 1.07-.16 2.22-.2 3.33-.03.96 0 1.91-.35 2.84-.36.98-.8 1.43-1.75 1.22-2.38-.53-4.77-.29-7.16-.4-.32-.01-.67.04-.95-.07-2.15-.83-4.27-.22-6.37.18-1.22.23-2.35.29-3.49-.28-1.27-.63-2.65-.58-4-.46-1.68.14-3.14-.42-4.55-1.22-1.09-.63-1.52-1.59-1.45-2.81.01-.24.05-.48.09-.71.25-1.74.47-3.48.75-5.22.18-1.12.51-2.03 1.79-2.57 1.04-.44 2-.84 3.14-.92 2.79-.2 5.59-.3 8.33-.87.47-.1.95-.12 1.42-.22.63-.12 1.24-.34 1.87-.4.71-.07 1.43-.02 2.15-.02zm-1.03 2.03c-2.25-.09-4.47.1-6.67.56-.7.15-1.42.27-2.14.28-1.7.03-3.31.46-4.94.89-.7.19-1.47.27-1.78 1.03-.35.87-.98 1.73-.66 2.73.43 1.31.51 2.66.71 4 .15.97.41 1.2 1.37 1.38.39.07.79.1 1.19.15 2.38.29 4.77.45 7.18.3 2.38-.15 4.78.27 7.16-.21.6-.12 1.3-.03 1.89.15 1.57.46 3.18.27 4.77.41.7.06.95-.22 1.02-1.01.09-.95-.03-1.92.39-2.83.91-1.97.72-4.05.6-6.13-.03-.55-.29-.9-.85-.96-1.9-.21-3.81-.35-5.66-.87-.44-.12-.95-.02-1.43 0-.72.04-1.43.09-2.15.14zm25.17 396.22c-1.27.98-2.38.98-3.54-.05-.88-.78-1.26-.75-2.1-.19-.26.18-.5.4-.73.61-.53.49-1.18.61-1.78.32-1.69-.81-3.12-.14-4.5.72-.88.55-1.72 1.17-2.51 1.85-1.01.86-2.09 1.03-3.35.74-1.16-.28-2.35-.45-3.53-.64-.95-.16-1.91-.18-2.86.01-1.25.26-1.92.59-1.53 2.11.08.29.06.64-.02.93-.05.19-.29.4-.48.45-.19.04-.47-.06-.64-.19-.5-.37-.58-.93-.57-1.51.03-1.19-.51-2.15-1.18-3.07-.53-.73-1.19-1.03-2.08-.74-.69.22-1.38.42-2.07.61-.46.13-.93.25-1.4.31-1.12.15-1.68-.16-2.05-1.18-.19-.52-.27-1.08-.44-1.61-.04-.12-.22-.26-.35-.28-.12-.02-.31.08-.38.19-.32.46-.62.93-.9 1.42-.67 1.15-1.66 1.94-2.84 2.49-.5.23-1.06.38-1.6.43-1.56.14-2.42-.58-2.62-2.12-.18-1.38.17-2.71.52-4.02.17-.62.6-1.15 1.34-1.22.32-.03.65.02.85.33.19.3.2.66-.08.86-1.38 1.04-1.08 2.54-1.07 3.94 0 .51.48.8 1.04.73 1.27-.16 2.21-.88 2.96-1.85.39-.5.66-1.09.99-1.64.21-.34.4-.7.66-.99.87-.99 1.92-.91 2.51.25.32.63.49 1.34.69 2.03.16.56.53.81 1.07.68.78-.18 1.54-.42 2.3-.67 1.8-.61 3.32-.41 4.33 1.39.47.84 1.1.98 2 .68 1.89-.62 3.83-.44 5.69.06 2.25.61 4.15.47 5.86-1.34.68-.72 1.64-1.25 2.66-1.58 1.16-.38 2.33-.62 3.52-.18.52.19.96.13 1.32-.23.92-.9 2.19-.92 3.29-1.34.52-.2.92.06 1.06.64.06.23.12.47.23.67.21.38.7.46 1.01.15.34-.33.65-.7.96-1.07.26-.31.48-.64.73-.95.26-.32.56-.6 1.01-.5.48.11.56.54.57.93.02.72-.03 1.44-.01 2.16 0 .21.11.49.26.62.3.25.63.04.85-.17.74-.72 1.46-1.48 2.18-2.22.33-.34.64-.71 1-1.03.29-.27.83-.07.95.34.06.22.05.47.03.7-.04.4.12.6.51.59.32 0 .64-.06.96-.08.63-.04 1.1.21 1.28.84.16.54.42 1.01.78 1.46.28.34.16.76-.16 1.07-.65.63-1.35.47-1.65-.38-.05-.15-.04-.32-.09-.47-.31-.95-.47-1.05-1.34-.68-.88.37-1.71.79-2.73.72-.39-.03-.81.43-1.23.66-1.52.81-2.09.64-3.09-.92-.08-.13-.19-.25-.42-.55zm60.91-249.56c1.02-2.04 2.74-2.63 4.57-2.97 1.11-.21 1.61.09 1.87 1.26.15.66.32 1.04 1.05.94.16-.02.33-.05.48 0 .98.3 1.8.19 2.65-.5.78-.64 1.14-.52 1.91.09.25.2.45.46.71.64.97.7 2.04.93 3.17.46.73-.31 1.45-.67 2.14-1.07.77-.45 1.6-.71 2.47-.88.56-.11 1.22-.22 1.64.12 1.18.97 2.74.74 4 1.42.51.28.93.08 1.3-.27.47-.44.89-.92 1.35-1.36.35-.34.78-.55 1.28-.59.53-.04.96.16 1.19.62.14.27.16.61.23.92.3 1.44.48 1.67 1.9 1.28 1.55-.42 2.82-.07 4.05.83.32.24.66.45 1.02.63.63.3 1.34.35 1.75-.24 1.7-2.39 4.09-2.11 6.5-1.76.24.03.47.1.7.16.52.15.94.02 1.22-.46.37-.63.84-1.16 1.49-1.52.78-.43 1.64-.52 2.18.2.71.94 1.56.94 2.55.85 1.51-.14 3.03-.25 4.54-.31.8-.03 1.61.07 2.26.62.26.22.38.55.2.85-.1.17-.42.37-.58.33-2.31-.6-4.61-.1-6.91.05-1.08.07-2.04-.03-2.83-.92-.43-.48-1.01-.32-1.37.27-.37.61-.66 1.28-1.02 1.89-.28.46-.79.61-1.22.25-1.07-.91-2.32-.93-3.61-.96-1.12-.03-1.95.33-2.71 1.2-1.32 1.49-2.53 1.6-4.25.61-.35-.2-.68-.43-1.01-.65-.76-.52-1.57-.78-2.49-.44-.07.03-.16.04-.23.05-2.45.34-3.04.04-3.77-2.2-.8-.12-1.02.63-1.47 1.01-.79.67-1.64 1.04-2.64.56-1.29-.61-2.88-.31-4-1.42-.28-.28-.76-.17-1.16-.1-.88.16-1.66.56-2.41 1.02-2.24 1.38-4.47 1.69-6.67-.07-.46-.37-.9-.27-1.3.07-.89.73-1.81.92-2.88.38-.32-.16-.78-.08-1.18-.05-.97.07-1.43-.37-1.68-1.3-.23-.87-.57-.94-1.4-.69-1.07.32-1.81.93-2.09 2.08-.19.77-.49 1.52-.82 2.24-.28.6-.92.92-1.35.79-.49-.15-.82-.5-.94-1-.52-2.1-.2-4.12.57-6.1.12-.3.42-.46.78-.42.37.04.63.46.57.91-.11.78-.67 1.47-.29 2.68z"/><path d="M236.1 287.02c1.71-.71 3.25-1.38 4.8-1.99.72-.28 1.24-.64 1.34-1.48.05-.42.41-.66.86-.68.52-.02.91.24 1.19.67.25.39.03 1.01.56 1.25.55.24 1.13.08 1.63-.11 1.4-.51 2.48-.07 3.45.95.32.34.74.58 1.21.93 1.03-1.24 2.26-1.3 3.69-.88 1.46.42 2.98.59 4.48.04.63-.23 1.28-.19 1.83.23.61.46 1.35.46 2.03.66.9.28 1.71.17 2.52-.32 1.25-.76 2.64-1.1 4.08-1.24.32-.03.62.23.64.58.01.2-.13.44-.25.62-.08.12-.25.23-.4.25-1.53.21-2.88.87-4.26 1.53-1.41.67-2.9.19-4.19-.33-1.05-.42-1.93-.49-2.97-.23-1.19.3-2.39 0-3.55-.26-.97-.22-1.84-.37-2.62.53-.54.63-1.31.51-1.96.05-.52-.37-1.01-.78-1.47-1.22-.52-.48-1.08-.63-1.76-.45-1.26.33-2.51.47-3.76-.06-.49-.21-.95.05-1.38.22-2.16.84-4.33 1.63-6.27 2.94-.26.18-.54.34-.82.48-.3.14-.63.15-.91-.04-.3-.2-.33-.52-.3-.85.07-.78.7-1.46.41-2.38-1.26-.44-2.48.1-3.71.3-1.2.19-2.31.58-3.09 1.64-.33.45-.81.76-1.4.86-.5.08-.9-.36-.86-.86.05-.71.79-.99.94-1.61-.15-.44-.48-.32-.76-.23-.53.17-1.05.37-1.57.58-.75.31-1.48.6-2.3.22-.33-.15-.62.02-.81.3-.37.52-.7 1.07-1.1 1.56-.24.3-.55.58-.88.79-.55.34-1.4.18-1.73-.32-.7-1.05-.92-2.2-.38-3.39.08-.17.37-.34.56-.35.19 0 .44.17.55.34.12.18.11.45.14.68.05.44-.2 1.09.42 1.18.51.07.72-.57.94-.97.44-.85.82-1.73 1.21-2.6.17-.37.34-.73.73-.91.22-.1.44-.1.64.11.45.45.29 1.06.46 1.58.11.36.37.54.71.43.69-.2 1.35-.48 2.04-.67 1.09-.29 2.2-.48 3.21.28.35.26.72.23 1.13.12.85-.21 1.71-.4 2.58-.54.63-.1 1.27-.15 1.91-.16 1.77 0 2.08.26 2.59 2.25zm-52.98 241.71c1.24-.78 2.33-.88 3.38.07.26.23.78.15 1.14.3.66.29 1.21.22 1.77-.24 1.09-.89 2.27-1.02 3.58-.42.64.3 1.39.36 2.06.6 1.33.47 2.61.63 3.9-.19.69-.44 1.51-.46 2.33-.38.55.05 1.07.12 1.64-.07.77-.25 1.12.04 1.42.81.28.72-.15 1.31-.91 1.22-.39-.05-.78-.16-1.16-.26-1.12-.3-2.18-.32-3.24.29-1.18.68-2.43.64-3.7.2-.68-.23-1.41-.32-2.07-.58-1.36-.54-2.6-.68-3.69.56-.27.3-.72.41-1.11.32-1-.23-2.09-.33-2.94-.84-.72-.43-1.11-.21-1.72.05-1.33.56-2.05.14-2.44-1.29-.04-.15-.03-.32-.06-.47-.04-.15-.11-.29-.17-.45-.55-.3-.87.18-1.24.41-.61.38-1.16.84-1.76 1.25-.53.36-1.08.68-1.61 1.03-.69.46-1.62.28-2.26.7-.64.42-1.05 1.18-1.6 1.75-.22.23-.57.31-.87.1-.28-.19-.46-.47-.37-.81.3-1.16.63-2.31.97-3.45.07-.22.18-.53.35-.61 1.06-.49 1.67-1.41 2.37-2.26.11-.13.46-.16.64-.09.31.12.46.4.43.76-.08.86-.83 1.54-.72 2.52.87 0 1.36-.55 1.93-.93.99-.67 1.96-1.38 2.96-2.03.4-.26.85-.44 1.29-.6.52-.18.95.11 1.06.64.14.7-.06 1.44.42 2.41zm-25.61 9.97c-.41.35-.76.69-1.15.96-.79.53-1.63.74-2.41.02-.56-.52-1.02-.31-1.47.09-.6.52-1.16 1.1-1.77 1.61-1.51 1.27-1.99 1.29-3.57.21-.26-.18-.5-.39-.76-.61-.87.33-1.28 1.18-1.97 1.7-.79.59-1.52.44-1.9-.49-.24-.58-.4-1.21-.52-1.82-.03-.17.16-.44.33-.58.29-.24.62-.1.85.13.16.16.21.42.33.63.2.35.5.39.78.13.59-.54 1.12-1.13 1.71-1.67.5-.45.98-.35 1.4.23 1.36 1.88 1.38 1.87 2.99.43.65-.58 1.32-1.16 2.04-1.65.79-.54 1.61-.72 2.31.2.34.44.71.26 1.01-.04.57-.55 1.07-1.18 1.79-1.58.5-.28.95-.21 1.22.28.3.56.51 1.16.81 1.72.21.39.58.53 1.01.36.3-.12.58-.26.86-.41 1.13-.6 2.29-.69 3.44-.08 1.18.63 2.41.8 3.71.51l.23-.06c.44-.1.79.01.93.48s-.15.89-.74 1.01c-1.27.25-2.53.33-3.77-.16-.3-.12-.59-.24-.87-.39-.78-.39-1.53-.37-2.28.07-.07.04-.14.09-.21.12-2.17.92-2.4.85-3.97-1.11-.04-.06-.13-.08-.38-.23zm124.78-250.84c.86-.07 1.41-.69 2.04-1.16.45-.33.83-.76 1.29-1.07 1.35-.92 2.08-.68 2.57.91.18.6.51.76 1.03.74 1.04-.04 2.07-.12 3.11-.14.17 0 .42.21.51.39.18.35-.06.63-.35.77-.28.14-.6.21-.91.25-.63.09-1.27.13-1.91.22q-2.2.32-3.25-1.6c-.79.21-1.32.86-1.96 1.3-1.92 1.32-1.95 1.34-4.15.33-.3.35-.59.73-.93 1.06-.96.9-2.13.75-2.85-.32-.82-1.24-.97-2.69-1.31-4.08-.1-.4.41-.93.88-.96.47-.03.75.27.83.69.16.86.02 1.77.38 2.6.15.35.26.78.74.83.37.04.57-.23.76-.48.19-.25.37-.52.56-.78.18-.26.35-.54.55-.79.64-.81 1.14-.79 1.6.08.22.42.28.93.75 1.2zM128.76 542.91c-.49.03-.98-.08-1.33-.43-.79-.78-1.44-.37-2.07.21-.47.43-.91.9-1.37 1.34-1.56 1.47-3.93 1.32-5.23-.37-.43-.56-.72-1.24-1.12-1.83-.22-.32-.56-.3-.79 0-.45.56-.84 1.16-1.28 1.72-.21.26-.51.41-.84.24-.3-.16-.5-.46-.36-.79.49-1.2 1.16-2.28 2.23-3.03.85-.59 1.68-.35 2.17.58.34.63.6 1.31.98 1.91.81 1.27 2.12 1.44 3.24.47.78-.68 1.51-1.42 2.33-2.05.83-.65 1.75-.83 2.59 0 .7.69 1.44.52 2.21.21.67-.27 1.32-.57 2-.78.28-.09.65-.03.92.09.17.07.29.37.35.58.03.12-.06.38-.15.42-1.49.53-2.85 1.43-4.48 1.52z"/><path class="cls-2" d="M291.17 194.49c.64.08 1.28.15 1.92.23.64.43 1.33.24 2.01.17.9.03 1.81.05 2.71.08 2.58.04 5.17.16 7.76-.06.63-.15 1.26-.4 1.87.07h.04c1.58.67 3.16.93 4.83.24.83-.34 1.71-.22 2.56.05.09 1.43.14 2.86-.28 4.26-.11.37-.14.8-.09 1.18.3 2.21.41 4.42.08 6.65-.05.31 0 .64.08.95.37 1.41.29 2.85.31 4.28.02.87 0 1.76.13 2.62.25 1.74.35 3.49.29 5.24-.14 3.91-.06 7.81.05 11.71 0 1.2.01 2.39.02 3.59-.08.79-.16 1.58-.23 2.37-.3 3.48-.48 6.96.21 10.42.18.93.39 1.86.58 2.79 0 1.72-.03 3.44 0 5.16 0 .28.2.57.31.85-.48 2.57-.41 5.18-.51 7.78-.73.65-1.06 1.55-1.49 2.38-.42.81-1.05 1.37-1.83 1.77-.99.5-2.02.82-3.17.73-1.17-.09-2.35-.08-3.52.16-.56-.02-1.16-.19-1.66-.02-1.33.43-2.69.27-4.03.43-.64-.06-1.27-.17-1.91-.17-4.07-.02-8.14-.01-12.22-.01-.72 0-1.43.08-2.12.3-1.24.38-2.51.41-3.79.36-2.39-.1-4.77-.38-7.16-.54-4.78-.32-9.57-.02-14.35.32-2 .14-3.97.19-5.95-.22-2.03-.42-4.09-.68-6.18-.57-1.13.06-2.22-.11-3.3-.47-1.22-.42-2.49-.52-3.78-.49-2.49.04-4.92.51-7.34.99-1.82.37-3.64.53-5.47.44-2.17-.11-4.31 0-6.39.67-.73.23-1.4.22-2.08-.14-.42-.22-.86-.44-1.31-.58-.92-.3-.97-.92-.7-1.7-.05-.15-.15-.31-.14-.45.37-3.82 0-7.63-.02-11.45-.02-2.93-.22-5.87.07-8.82.13-1.33.01-2.68 0-4.02-.04-.07-.11-.14-.11-.2.11-2.02.18-4.04.37-6.05.09-.96.18-1.87-.3-2.74 0-.3.12-.62-.18-.86.05-.47.11-.95.16-1.42.21-.36.11-.74.06-1.12.65-.98.65-1.05.04-1.93h.04v-.54c.27-1.49-.07-3.02.39-4.52.68-2.24.82-4.54.4-6.87-.07-.39 0-.8 0-1.2.08-.08.09-.16.04-.26.32-1.15.75-2.29.94-3.46.33-2.05.75-4.07 1.3-6.08.6-2.19.69-4.41-.3-6.54.02-.12-.03-.2-.14-.24-.04-1.11-.14-2.22-.11-3.33.04-1.3-.15-2.54-.76-3.69.3-1.39 1.15-1.99 2.57-1.87 1.18.1 2.38-.04 3.53.37l.04.11.09-.09h2.28c.22.2.41.21.55-.08.95-.14 1.9-.15 2.85.04.26.32.61.25.95.2l2.92.69c.92.49 1.9.25 2.86.25 2.58.61 5.18.7 7.79.19 1.63-.32 3.15.09 4.67.57.27.34.62.27.97.18l2.2-.15.12.08.1-.11c.62-.1 1.24-.21 1.86-.31l.79-.03c1.08.12 2.08.75 3.22.52 2.22.13 4.4.39 6.57.94 1.75.44 3.57.67 5.42.58 1.5-.07 3.01-.04 4.52 0 2.23.05 4.43-.19 6.59-.73 1.75-.11 3.5-.22 5.25-.32 1.05.1 2.1.19 3.14.29.43.38.95.27 1.46.24z"/><path class="cls-1" d="M201.13 351c1.34-.25 2.67-.24 4.04-.13 1.34.11 2.7.04 4.05-.02 1.22-.06 2.38.06 3.48.61.33.73.66 1.47 1 2.2.03 2.87-.09 5.73-.39 8.59-.53 5.11.16 10.19.65 15.27-.15 3.42-.47 6.82-1.07 10.2-.19 1.09-.59 2.16-.45 3.3-.2 1.65-.51 3.3-.57 4.95-.22 6.26.15 12.51.57 18.75.03.39.13.78.21 1.17.05.56.09 1.12.14 1.68.1.17.19.34.29.52.24 3.12.08 6.22-.33 9.32-.21 1.57-.72 2.95-2.27 3.69-.18 0-.35-.01-.53-.02-1.79.07-3.4-.73-5.1-1.09-2.19-.47-4.35-.66-6.58-.15-1.84.42-3.72.85-5.64.76-2-.09-3.95.23-5.88.69-.58.17-1.16.34-1.75.51-.69-.2-1.39-.31-2.11-.13-1.7-.01-3.41-.02-5.11-.04a9.496 9.496 0 0 0-3.19.1c-1.28-.03-2.45-.54-3.64-.93-1.13-.37-2.25-.65-3.46-.62-1.96.05-3.93.04-5.89.05l-.82-.18c-1.83-.85-5.33-1.76-7.08-1.78-4.94-.05-9.88-.09-14.82-.13-.83-.2-1.61 0-2.37.3-.36-.03-.71-.05-1.07-.08-1.73-.36-3.46-.22-5.2-.04-.14.01-.26.17-.39.26-.23.03-.47.05-.7.08l-1.37.06-1.17-.15c-.75-.87-1.83-.86-2.82-1-2.51-.35-5.05-.43-7.55-.9-2.39-.44-2.41-.33-4.26-1.78-1.14-3.48-2.03-7-1.96-10.71.1-5.65-.14-11.3-.35-16.95-.08-2.23-.32-4.45-.48-6.67l.14-.06-.15-.04c-.23-1.64-.25-3.27-.16-4.92.08-1.48.02-2.97.02-4.46.09-.42.19-.83.28-1.25.45-1.66.28-3.39.53-5.07.33-.9.41-1.79-.03-2.68-.02-.34-.04-.68-.07-1.01.63-.9.27-1.93.37-2.9a8.21 8.21 0 0 0-.13-.53c.38-2.07.15-4.14-.03-6.2.12-1.44.16-2.88-.01-4.32.2-2.78.7-5.54.64-8.35-.03-1.25.73-1.97 1.94-1.88 4.3.32 8.61.1 12.92.12 1.22 0 2.37.26 3.51.62.2.12.38.3.6.34 2.4.39 4.82.64 7.26.51.63.07 1.27.07 1.88.22 1.17.29 2.35.34 3.53.21 1.67-.19 3.31-.09 4.96.13.95.62 2.02.39 3.05.42l1.24.15c.47.47 1.06.38 1.64.32.26.03.52.07.78.1.78.59 1.68.42 2.56.41.11-.03.21-.02.3.03.81.55 1.73.41 2.63.38 1.03.23 2.07.45 3.1.68.38.38.87.35 1.34.35 3.51 0 7.02-.01 10.53-.03.48 0 .96 0 1.34-.37 2-.22 4.01-.24 6.01-.05.64.53 1.4.38 2.14.36l.72.18c.2.11.41.31.62.31 2.62.02 5.24.02 7.86 0 .29 0 .57-.21.86-.33l.79-.09c.72.03 1.47.18 2.1-.34.85-.08 1.7-.17 2.56-.25.62.14 1.23.21 1.76-.27z"/><path class="cls-4" d="M234.42 436.33c1.21.01 2.43.03 3.65.04-.35.58-1.21.09-1.62.69 1.73.32 3.32-.01 4.9-.51 2.01-.31 3.96.08 5.89.59 1.16.3 2.3.67 3.45.99 1.24.35 2.43.76 3.46 1.58 1.26 1.02 2.74 1.27 4.3.92 1.17-.27 2.34-.55 3.46-.95 1.67-.6 3.38-.96 5.15-1 1.92-.05 3.82-.23 5.69-.71.53-.14 1.12-.22 1.65-.14 3.81.53 7.66.36 11.48.54 1.52.07 3.03.18 4.55.25 1.29.06 2.53.26 3.72.79 1.04.47 2.17.51 3.29.51 2 0 3.99.08 5.97.4 1.09.17 2.24.18 3.35.11 1.09-.07 2.05.27 3 .69.5.22.71.64.59 1.17-.15.62-.32 1.23-.54 1.83-.34.92-.52 1.85-.42 2.82.24 2.48-.14 4.95-.09 7.42.02.98-.23 1.91-.54 2.81-.47 1.39-.6 2.8-.59 4.25.03 3.76.02 7.52.08 11.27.02 1.19.1 2.41.35 3.57.39 1.81.56 3.63.62 5.47.1 2.96.43 5.89.96 8.81.34 1.88.5 3.8.62 5.72.2 3.11.29 6.23.44 9.34.03.56.05 1.13.19 1.67 1.07 4.17 1.54 8.49 3 12.58.67 1.89.87 3.91 1.02 5.89.24 3.18.7 6.35.64 9.56-.03 1.21.32 2.37.62 3.53.74 2.88 1.17 5.79 1.16 8.77 0 1.28 0 2.56.32 3.81.15.56.06 1.07-.18 1.62-1.24 2.81-1.81 5.77-1.87 8.84-.01.56.08 1.12-.22 1.64-.3.03-.61.05-.91.08-.3-.19-.59-.17-.89 0-.9.4-1.82.56-2.76.2-.61-.23-1.23-.31-1.86-.24-1.47.15-2.8-.25-4.07-.94h-.46c-.37.12-.75.23-1.12.33-.3-.03-.58.02-.79.25-1.4.57-2.78 1.17-4.33 1.24-2.46.13-4.91.31-7.37.39-2.22.07-4.43-.15-6.65-.35-1.96-.18-3.72-.62-5.41-1.56-1.13-.63-2.32-1.02-3.63-.98-.47.02-.95-.09-1.42-.14-.42-.31-.88-.31-1.35-.18l-2.96-.27c-.14-.19-.29-.2-.46-.03h-.97c-.17-.17-.32-.16-.45.04-1.39.15-2.66.68-3.95 1.17-.15-.04-.28 0-.38.12-1.44.46-2.89.28-4.35.13-.14-.19-.29-.19-.44-.01-.79.12-1.6.19-2.3.61-.94.57-1.96.6-3.01.56-1.91-.08-3.83-.15-5.74-.22-.16-.17-.32-.17-.47.02-1.61.28-3.22.09-4.83-.01-.47-.32-.93-.36-1.38.04-1.02.08-2.04.2-3.07.23-.87.03-1.74 0-2.54-.43-1.41-.77-2.96-1.06-4.53-1.26-.41-.36-.87-.35-1.35-.19h-2.52c-.48-.16-.94-.15-1.37.15-.81 0-1.62.01-2.43.02-.48-.32-.94-.36-1.38.06-.86.06-1.71.13-2.57.17-.93.04-1.87.25-2.76-.19-.16-.42-.5-.63-.89-.8-.21-1.84-.12-3.63.4-5.44.33-1.13.4-2.36.41-3.55.03-2.39.05-4.78-.24-7.17-.16-1.33-.12-2.72.04-4.06.24-2.15.17-4.3.23-6.46.02-.71-.04-1.44-.16-2.14-.29-1.67-.24-3.34-.05-5.01.35-2.95.25-5.89-.05-8.83-.29-2.93-.47-5.88-.66-8.83-.14-2.15-.22-4.3-.33-6.45.46-.21.77-.54.76-1.08 0-.78-.01-1.57-.02-2.35.1-1.99.42-3.96.83-5.91.78-3.66 1.67-7.29 1.9-11.05.18-2.86.67-5.69.6-8.57-.06-2.39-.16-4.78-.19-7.16-.07-4.31-.39-8.59-.83-12.87.26-.97-.11-1.74-.73-2.45.03-1.19-.02-2.39.12-3.57.37-3.17.23-6.36.3-9.54.02-.98-.35-1.52-.85-1.4-.75.19-.58.84-.59 1.37-.01 1.1 0 2.2 0 3.5-.2-.32-.35-.45-.35-.57.04-1.12-.67-2.14-.47-3.28.17-.7.74-1.41-.06-2.08 1.1-.53 2.31-.28 3.46-.49.33-.06.85.11 1.08.36.95 1.02 2.12.93 3.31.76 2.19-.3 4.37-.62 6.56-.93.31-.04.63-.03.94-.05 1.06.7 2.15.64 3.25.11z"/><path class="cls-3" d="M254.5 123.22c-.38.1-.75.27-1.14.29-2.92.19-5.84.4-8.77.51-3.56.13-7.13.16-10.69.24-.33-.12-.65-.19-.93.11-.77.17-1.53.38-2.32.2-1.05-.4-2.06-.37-3.19-.15-2.64.52-5.31.76-7.87-.5-.34-.17-.75-.24-1.14-.28-1.44-.15-2.74-.69-3.97-1.45-1.24-2.1-1.35-4.42-1.33-6.77.26-.17.59-.31.61-.66.04-1.1.19-2.2-.22-3.27-.17-.43-.38-.88-.03-1.33-.03-.07-.08-.15-.08-.22q0-3.37 3.19-4.06c.3-.07.61-.1.92-.16l.08-.02c.63-.29 1.27-.32 1.92-.09.09.21.25.21.43.13 2.15.36 4.29-.02 6.44-.08l10.99-.3c1.46-.04 2.82.44 4.22.71.25.32.57.25.89.14 3.7.06 7.4.34 11.09 0l3.33-.03c.73.1 1.37.41 2 .78.56.33 1 .74 1.3 1.35 1.38 2.82 2.4 5.75 2.64 8.9.11 1.35.09 2.71-.34 4.04-.16.5-.37.88-.94.9-.68.02-.96.47-1.13 1.04-.12-.03-.19.01-.23.12-1.29-.31-2.55-.87-3.93-.59-.3-.02-.61-.07-.79.26-.33.08-.66.16-1 .24h-.02zm-97.36-22.6c-.48-.05-.96-.1-1.44-.14-.08-.21-.24-.21-.42-.15-.82-.14-1.64-.28-2.45-.41-.08-.14-.2-.18-.36-.12-1.11-.29-1.37-1.29-1.78-2.16-.51-2.51-.8-5.08-1.86-7.46l.03-2.02c1.2-1.15.94-2.55.61-3.93-.02-.1-.26-.15-.4-.23-.02-.31-.11-.63-.05-.92.3-1.39.36-1.42 1.69-1.52 2.15-.15 4.29-.27 6.44.24.99.23 2.08.22 3.1.09 1.18-.15 1.75.46 2.24 1.32.46.27.9.28 1.34-.05l2.38-.36.09-.02c2.48-.87 5.06-1.16 7.64-1.43.18.11.34.11.45-.1.71-.09 1.42-.24 2.12-.25 3.66-.02 7.32-.06 10.97.03 1.98.05 3.96.32 5.93.55 2.22.26 4.44.39 6.67.36.47 0 .96-.05 1.41.24.47 2.8 1.05 5.59.92 8.48-.04.86.17 1.74.38 2.58.31 1.27.28 2.53.11 3.79-.17 1.29-1.06 2.61-2.37 3.62-1.35-.78-2.61-.65-3.77.4-1.07.1-2.13.32-3.18-.07-.19-.31-.49-.27-.79-.25-4.23-.59-8.47-1.19-12.7-1.78-1.25-.22-2.5-.29-3.74.12-2.65.4-5.27 1.04-7.96 1.1-.47.01-.94-.01-1.41-.02.42-.48 1.01-.41 1.55-.45.75-.05 1.5-.1 2.37-.16-.71-.8-1.51-.77-2.31-.8-2.98-.11-5.84.65-8.72 1.18-.02 0 .03.39.05.6-.91.39-1.83.11-2.75.09l-.02-.12-.03.12zm8.08 40.44c-3.55.59-7.09 1.4-10.66.18-.75-.44-1.55-.33-2.35-.17-.91-.6-.87-1.44-.49-2.29.4-.88.7-1.79.62-2.74-.1-1.17.48-1.76 1.47-2.11.3-.11.59-.21.88-.31.31-.04.62-.09.94-.13.47.15.95.3 1.42.45.59.35 1.2.31 1.81.05 3.55-1.24 7.11-1.16 10.66-.05.26.3.58.23.9.11.5.03.9.29 1.28.58.91.68 1.87 1.17 3.06 1.06.47-.04.71.28.74.73.06.72-.04 1.42-.25 2.11-.25.83-.5 1.67-.66 2.53-.3 1.56-.27 1.57-1.78 1.05-.08-.19-.23-.19-.4-.13-.67-.12-1.35-.24-2.02-.35-.23-.25-.52-.21-.81-.16l-2.58-.36c-.59-.25-1.19-.19-1.79-.05z"/></svg>