<svg viewBox="0 0 710.37 188.3" xmlns="http://www.w3.org/2000/svg"><g fill="#001e1e" stroke="#001e1e"><path d="m193.2 24.82c-.3.54-.42 1.03-.61 2.72s-.29 2.79-.34 5.71c-.04 2.92.11 4.85.11 8.9-.01 4.04-.06 6.53-.13 11.34-.07 4.8-.14 7.6-.23 12.67-.1 5.07-.13 7.88-.26 12.66-.12 4.78-.23 7.32-.35 11.24-.13 3.92-.27 5.97-.26 8.36.01 2.4.31 3.29.29 3.62-.01.33-.05-.54-.36-1.97-.31-1.44-.47-3.15-1.2-5.21s-1.67-4.17-2.45-5.1-1.36-.76-1.46.46.25 3.52.95 5.65c.7 2.12 1.56 3.66 2.54 4.96.98 1.31 1.65 2.03 2.37 1.57s.97-1.42 1.23-3.88.04-4.49.08-8.42.05-6.46.12-11.24c.08-4.79.12-7.6.24-12.67.13-5.06.21-7.86.4-12.66.18-4.8.3-7.28.52-11.33.21-4.05.5-5.98.54-8.91s-.15-4.05-.32-5.74-.26-2.18-.54-2.72c-.29-.55-.59-.56-.88-.01"/><path d="m162.89 21.92c.32.17.47.09 1.33.06s1.36-.07 2.97-.2c1.6-.14 2.65-.25 5.07-.48 2.42-.24 3.94-.41 7.03-.7 3.09-.3 4.91-.5 8.42-.78s5.47-.38 9.13-.63c3.67-.25 5.66-.38 9.19-.63s5.33-.34 8.47-.6c3.14-.27 4.7-.36 7.23-.73 2.53-.38 3.73-.7 5.42-1.13 1.7-.43 2.46-.68 3.04-1.02.58-.35.54-.57-.12-.71s-1.46-.08-3.19.03c-1.72.12-2.93.27-5.45.56-2.51.28-4.03.55-7.13.87-3.11.32-4.9.47-8.41.75-3.52.27-5.51.41-9.17.62-3.67.22-5.62.3-9.14.47-3.53.16-5.35.23-8.47.37-3.11.14-4.65.12-7.12.33-2.46.2-3.56.33-5.21.67-1.65.35-2.21.65-3.05 1.06-.84.42-.98.67-1.15 1.04-.17.36-.02.61.31.78"/><path d="m209.06 70.47c.1.43.35.97 1.11 1.34s1.39.66 2.69.51c1.31-.15 2.21-.33 3.84-1.26s2.59-1.72 4.31-3.39c1.71-1.68 2.67-2.86 4.25-5s2.41-3.46 3.66-5.69c1.24-2.23 1.87-3.49 2.57-5.47s.96-2.99.94-4.44-.24-2.16-1.02-2.81c-.78-.64-1.52-.85-2.89-.42-1.37.42-2.37.93-3.96 2.56-1.59 1.64-2.54 2.92-4 5.61-1.45 2.69-2.19 4.54-3.27 7.86-1.07 3.32-1.61 5.32-2.11 8.74-.49 3.41-.67 5.33-.36 8.33s.73 4.55 1.92 6.65 2.1 2.95 4.02 3.84c1.91.89 3.16 1.03 5.56.61s3.84-1.05 6.44-2.73c2.6-1.67 4.01-3.06 6.55-5.66 2.54-2.61 3.88-4.27 6.15-7.35s3.43-4.92 5.21-8.06c1.78-3.13 2.66-4.83 3.7-7.62 1.04-2.8 1.34-4.2 1.51-6.33.16-2.13 0-3.09-.67-4.34-.66-1.24-1.31-1.71-2.62-1.89-1.3-.18-2.29.01-3.89 1.01-1.61 1-2.61 1.88-4.12 3.98-1.52 2.11-2.3 3.61-3.48 6.54-1.17 2.93-1.73 4.81-2.39 8.13-.65 3.31-.92 5.28-.88 8.45.04 3.18.23 4.91 1.07 7.43s1.56 3.72 3.13 5.17c1.57 1.46 2.64 1.95 4.72 2.12 2.08.16 3.38-.13 5.67-1.29 2.29-1.17 3.54-2.25 5.79-4.54 2.24-2.29 3.39-3.93 5.44-6.9 2.06-2.97 3.11-4.87 4.85-7.95 1.73-3.08 2.65-4.82 3.85-7.45s1.63-4.1 2.13-5.69.45-2.16.36-2.25c-.08-.08-.44.43-.8 1.84-.35 1.41-.71 2.72-.97 5.22-.27 2.5-.33 4.37-.36 7.28-.04 2.92-.05 4.74.17 7.31s.36 3.88.93 5.53c.58 1.66 1.02 2.3 1.96 2.75.93.44 1.58.33 2.73-.54 1.14-.86 1.83-1.78 3-3.79s1.73-3.59 2.84-6.25 1.71-4.43 2.7-7.05 1.58-4.2 2.25-6.05c.67-1.86.86-2.7 1.09-3.21.24-.52.14-.32.09.63-.06.95-.25 2.03-.36 4.1-.12 2.07-.23 3.71-.2 6.24.02 2.53.06 4.18.31 6.39.24 2.22.37 3.38.91 4.69.53 1.32.93 1.78 1.76 1.89.84.1 1.41-.2 2.41-1.36.99-1.16 1.55-2.28 2.57-4.43 1.02-2.16 1.54-3.82 2.52-6.36.98-2.53 1.54-4.12 2.39-6.3.85-2.19 1.31-3.38 1.85-4.62.55-1.24.68-1.66.88-1.57s.09.62.11 2.01c.02 1.4-.09 2.67-.01 4.98.08 2.3.15 3.98.42 6.56.28 2.59.43 4.17.95 6.37.52 2.21.81 3.33 1.67 4.67.85 1.33 1.43 1.83 2.61 1.99 1.19.17 1.96-.08 3.33-1.17 1.37-1.08 2.15-2.1 3.5-4.24 1.35-2.15 2-3.77 3.25-6.49 1.25-2.71 1.98-4.46 3.01-7.1s1.57-4.25 2.14-6.08c.57-1.84.65-2.67.69-3.08.04-.42-.22-.13-.48 1s-.59 2.36-.83 4.64c-.24 2.29-.41 4.07-.38 6.8s.15 4.46.53 6.85c.38 2.38.62 3.57 1.38 5.06.76 1.5 1.29 2.06 2.43 2.42s1.9.23 3.27-.62c1.36-.85 2.16-1.71 3.53-3.64s2.09-3.41 3.32-5.99c1.23-2.59 1.86-4.34 2.82-6.93.95-2.58 1.45-4.17 1.96-6 .51-1.82.54-2.68.57-3.12.03-.43-.24-.16-.43.95-.19 1.12-.48 2.31-.54 4.61-.06 2.31-.08 4.12.24 6.92.32 2.79.61 4.53 1.37 7.06.76 2.52 1.23 3.81 2.43 5.57 1.19 1.77 1.95 2.53 3.55 3.25 1.61.71 2.78.6 4.48.3 1.69-.29 2.72-.91 3.99-1.78 1.28-.86 2.04-1.86 2.39-2.54s.06-.97-.65-.86c-.7.12-1.65.83-2.89 1.44-1.24.6-1.99 1.25-3.31 1.6-1.31.35-2.12.66-3.27.16s-1.66-1.11-2.48-2.67-1.17-2.75-1.64-5.13c-.47-2.37-.48-4.04-.72-6.74-.24-2.69-.2-4.44-.48-6.72s-.41-3.49-.91-4.68c-.51-1.19-.84-1.56-1.61-1.26s-1.28 1.04-2.23 2.76c-.96 1.71-1.45 3.3-2.53 5.8s-1.71 4.21-2.87 6.71c-1.17 2.49-1.88 3.88-2.94 5.77-1.07 1.88-1.58 2.73-2.39 3.65-.81.93-1.12 1.16-1.65.97-.54-.19-.72-.61-1.02-1.93s-.4-2.41-.48-4.66c-.07-2.25.06-3.92.1-6.58.04-2.65.2-4.4.1-6.71s-.19-3.59-.62-4.84-.77-1.67-1.54-1.42c-.78.26-1.33.97-2.33 2.69-1.01 1.72-1.56 3.33-2.7 5.91s-1.77 4.34-3 6.98-2.02 4.13-3.15 6.22c-1.12 2.1-1.64 3.11-2.47 4.24-.84 1.13-1.14 1.46-1.7 1.43s-.73-.4-1.1-1.58-.51-2.21-.74-4.31c-.24-2.1-.27-3.64-.44-6.19-.17-2.54-.13-4.2-.42-6.54s-.44-3.66-1.04-5.16-1.02-2.14-1.94-2.35c-.91-.22-1.54.12-2.63 1.29-1.09 1.16-1.7 2.36-2.83 4.52s-1.76 3.74-2.82 6.26c-1.06 2.53-1.68 4.16-2.46 6.34-.79 2.19-1.06 3.35-1.47 4.61-.4 1.25-.44 1.64-.56 1.66-.12.03-.06-.33-.04-1.53.01-1.19.05-2.28.12-4.43.06-2.15.22-3.77.22-6.3-.01-2.52.04-4.19-.23-6.33-.28-2.15-.52-3.32-1.17-4.39-.64-1.08-1.11-1.38-2.05-.99s-1.54 1.15-2.64 2.94c-1.09 1.78-1.68 3.39-2.82 5.98-1.13 2.59-1.77 4.34-2.85 6.97-1.08 2.62-1.7 4.12-2.56 6.13-.85 2.01-1.18 2.96-1.71 3.91-.53.96-.65 1.16-.95.87-.29-.29-.38-.82-.52-2.33-.13-1.51-.17-2.75-.16-5.22 0-2.46.1-4.24.22-7.1s.36-4.68.39-7.18c.03-2.51.03-3.84-.24-5.36-.27-1.51-.49-2.14-1.12-2.22-.62-.09-1.05.36-1.99 1.8-.94 1.45-1.47 2.85-2.72 5.43-1.24 2.57-1.86 4.41-3.52 7.44-1.66 3.04-2.73 4.9-4.76 7.74-2.03 2.83-3.27 4.32-5.38 6.44-2.11 2.13-3.25 3.06-5.17 4.2-1.93 1.13-2.86 1.49-4.45 1.47-1.6-.02-2.35-.36-3.51-1.58-1.16-1.21-1.67-2.23-2.31-4.49-.63-2.26-.87-3.84-.88-6.78 0-2.95.18-4.86.85-7.97s1.34-4.89 2.52-7.6c1.17-2.7 2.04-3.99 3.35-5.93 1.31-1.93 2.07-2.71 3.2-3.74s1.69-1.32 2.45-1.4c.77-.08 1.08.1 1.36 1.01.27.91.34 1.66.02 3.52-.33 1.85-.64 3.13-1.64 5.77-1 2.65-1.67 4.38-3.35 7.44s-2.83 4.88-5.06 7.85c-2.22 2.97-3.59 4.57-6.08 7s-3.97 3.58-6.35 5.15c-2.38 1.56-3.57 2.17-5.55 2.68-1.98.5-2.89.51-4.36-.15-1.48-.66-2.12-1.33-3-3.14s-1.17-3.18-1.4-5.93c-.22-2.74-.22-4.57.26-7.79s1.01-5.19 2.14-8.3c1.14-3.11 2.09-4.77 3.51-7.25s2.33-3.58 3.59-5.15 1.92-2.08 2.73-2.71 1.08-.7 1.33-.43c.25.28.22.69-.06 1.79-.28 1.11-.54 1.99-1.34 3.74-.79 1.75-1.4 2.95-2.65 5.02-1.26 2.07-2.09 3.33-3.62 5.33-1.53 1.99-2.48 3.09-4.03 4.63-1.55 1.55-2.41 2.23-3.72 3.08-1.31.86-1.93.95-2.83 1.21-.9.25-1.11.1-1.66.06-.55-.05-.77-.4-1.11-.29-.34.1-.7.38-.59.81"/><path d="m390.25 12.31c-.18.5-.12.82-.08 2.3.03 1.48-.02 2.47.24 5.12s.65 4.36 1.05 8.13c.4 3.76.62 6.16.94 10.69.32 4.52.43 7.23.65 11.94s.29 7.34.46 11.61.11 6.49.42 9.75c.3 3.26.48 4.84 1.13 6.55.65 1.72 1.16 2.22 2.14 2.02.97-.21 1.67-.92 2.73-3.04 1.07-2.12 1.45-3.85 2.58-7.55 1.14-3.71 1.68-6.18 3.1-11 1.43-4.81 2.3-7.77 4.05-13.07 1.74-5.3 2.78-8.3 4.68-13.42 1.91-5.11 2.96-7.82 4.84-12.16 1.88-4.33 2.93-6.38 4.55-9.51 1.63-3.14 2.45-4.39 3.57-6.17 1.11-1.77 1.47-2.03 2-2.7.54-.68.53-.62.68-.68s0 .34.09.38.39 0 .37-.18c-.01-.18-.05-.64-.44-.73-.39-.08-.67-.27-1.52.31-.84.58-1.43.8-2.69 2.6s-2.02 3.16-3.6 6.39c-1.59 3.22-2.51 5.34-4.33 9.73-1.82 4.4-2.87 7.12-4.77 12.25-1.91 5.14-2.95 8.15-4.76 13.45-1.81 5.29-2.72 8.25-4.3 13.02s-2.36 7.18-3.58 10.82-1.83 5.25-2.53 7.38-.7 2.96-.98 3.25c-.27.3-.19-.15-.39-1.77-.21-1.62-.35-3.15-.63-6.35-.27-3.2-.49-5.4-.74-9.65s-.31-6.89-.52-11.6c-.2-4.72-.29-7.43-.5-11.97-.2-4.55-.31-6.96-.5-10.76-.2-3.8-.15-5.58-.46-8.26-.3-2.68-.63-3.67-1.06-5.13-.42-1.46-.68-1.77-1.06-2.17s-.65-.31-.83.18"/><path d="m401.59 45.26c-.11.49-.03 1.01.35 1.97s.67 1.59 1.56 2.82c.89 1.24 1.58 1.99 2.88 3.36s2.14 2.06 3.63 3.48c1.49 1.43 2.32 2.18 3.83 3.65 1.52 1.47 2.33 2.27 3.75 3.71 1.41 1.44 2.07 2.22 3.35 3.48 1.28 1.27 1.85 1.91 3.04 2.84 1.18.93 1.74 1.39 2.88 1.83 1.13.43 1.69.55 2.8.34 1.1-.21 1.69-.46 2.73-1.38 1.05-.91 1.56-1.61 2.5-3.19.94-1.57 1.36-2.66 2.21-4.69.85-2.04 1.27-3.32 2.04-5.46.78-2.15 1.18-3.39 1.83-5.27.66-1.88.99-2.8 1.45-4.13.46-1.32.67-1.82.86-2.5.18-.67.16-.81.06-.88-.1-.06-.34.06-.56.55-.23.48-.42.9-.58 1.86-.15.96-.1 1.66-.19 2.96-.08 1.29-.1 2.07-.23 3.51-.12 1.44-.24 2.28-.39 3.7-.16 1.41-.25 2.19-.38 3.37-.12 1.18-.28 1.73-.26 2.53.02.79.11 1.13.37 1.43.27.3.58.35.96.06.38-.28.67-.63.93-1.48.26-.86.35-1.56.36-2.78.02-1.22-.04-2.06-.28-3.32-.25-1.27-.38-2.13-.92-3.01-.55-.87-1.07-1.32-1.82-1.38-.74-.06-1.29.2-1.93 1.07s-.98 1.69-1.28 3.29c-.31 1.59-.38 2.77-.25 4.67.12 1.9.3 3.08.85 4.82.55 1.75.96 2.69 1.89 3.9.94 1.2 1.55 1.71 2.79 2.14 1.23.42 2 .41 3.38-.02s2.16-.92 3.52-2.14c1.36-1.23 2.03-2.1 3.26-3.98 1.24-1.88 1.85-3.09 2.93-5.41 1.07-2.33 1.58-3.71 2.43-6.23s1.21-3.92 1.82-6.39.87-3.75 1.25-5.97c.37-2.21.49-3.26.63-5.09s.14-2.67.07-4.06-.15-1.97-.43-2.9c-.29-.92-.49-1.28-1-1.71s-.91-.56-1.57-.43c-.66.12-1.13.25-1.74 1.07-.61.83-.9 1.47-1.31 3.03s-.54 2.56-.73 4.76c-.19 2.21-.26 3.6-.22 6.27s.12 4.29.41 7.08c.29 2.8.5 4.36 1.04 6.9.55 2.53.87 3.83 1.67 5.79.79 1.97 1.26 2.87 2.31 4.04 1.06 1.17 1.7 1.57 2.98 1.82s2.05.14 3.43-.57c1.39-.71 2.17-1.39 3.48-2.99 1.32-1.6 1.99-2.83 3.11-5.01 1.12-2.19 1.65-3.63 2.48-5.9.83-2.26 1.26-3.56 1.67-5.43s.52-2.9.38-3.92-.5-1.37-1.07-1.19-1.14.71-1.78 2.08c-.65 1.36-1.04 2.54-1.44 4.74s-.55 3.75-.58 6.27-.01 4.05.42 6.35c.43 2.29.77 3.49 1.72 5.14.96 1.66 1.62 2.37 3.05 3.14s2.36.96 4.1.71c1.75-.24 2.81-.68 4.64-1.94 1.82-1.26 2.81-2.21 4.5-4.36 1.68-2.16 2.52-3.59 3.92-6.42 1.4-2.84 2.05-4.58 3.07-7.75s1.46-4.98 2.03-8.12c.56-3.14.76-4.85.79-7.58.03-2.72-.15-4.04-.64-6.03-.49-1.98-.9-2.82-1.79-3.89-.88-1.07-1.5-1.38-2.64-1.46-1.13-.08-1.88.13-3.02 1.07-1.14.93-1.81 1.7-2.67 3.6-.86 1.89-1.23 3.23-1.64 5.87-.41 2.65-.48 4.31-.41 7.36s.23 4.85.78 7.9c.54 3.05.93 4.74 1.96 7.36 1.02 2.62 1.72 3.85 3.15 5.72 1.44 1.87 2.32 2.65 4.04 3.64 1.72.98 2.72 1.26 4.56 1.29 1.85.03 2.9-.26 4.64-1.12s2.68-1.62 4.08-3.17 2.13-2.78 2.93-4.57c.79-1.8 1.04-3.02 1.04-4.43s-.4-2.16-1.05-2.6c-.64-.44-1.32-.33-2.17.41-.84.75-1.5 1.61-2.06 3.32-.56 1.7-.82 3.07-.75 5.19.07 2.13.33 3.5 1.1 5.42.77 1.93 1.36 2.95 2.76 4.22 1.4 1.26 2.36 1.77 4.23 2.12s3.04.26 5.11-.37c2.08-.63 3.28-1.3 5.27-2.79s3.06-2.6 4.68-4.64c1.61-2.04 2.4-3.39 3.4-5.56 1.01-2.16 1.41-3.43 1.64-5.25.22-1.82.09-2.76-.5-3.85-.6-1.09-1.29-1.51-2.48-1.6-1.19-.08-2.15.2-3.48 1.18-1.34.99-2.18 1.92-3.19 3.73-1.02 1.81-1.5 3.15-1.88 5.33-.37 2.19-.41 3.56 0 5.58s.88 3.11 2.04 4.52c1.16 1.42 2.06 2.02 3.75 2.53 1.69.52 2.82.53 4.71.06 1.88-.47 3-1.04 4.69-2.4s2.6-2.41 3.76-4.41c1.15-2 1.65-3.35 2.04-5.6s.37-3.62-.09-5.67c-.45-2.05-1.03-3.12-2.18-4.59-1.15-1.46-2.06-2.06-3.56-2.74-1.51-.68-2.56-.78-3.96-.64s-2.31.64-3.06 1.35-.79 1.38-.68 2.19c.11.8.59 1.4 1.22 1.82.64.42 1.48.47 1.95.28.47-.2.58-.85.41-1.26-.18-.41-.85-.54-1.3-.77s-.83-.22-.95-.38c-.11-.16-.13-.24.38-.44.52-.19 1.17-.5 2.19-.54 1.02-.03 1.79-.12 2.91.37 1.13.5 1.84.94 2.71 2.1.87 1.17 1.32 2.03 1.63 3.72s.3 2.84-.08 4.74-.83 3.06-1.82 4.76-1.77 2.58-3.14 3.76c-1.36 1.17-2.26 1.66-3.7 2.12s-2.27.53-3.51.2c-1.23-.33-1.87-.75-2.66-1.85-.79-1.09-1.1-1.97-1.3-3.63-.19-1.65-.08-2.82.32-4.65.41-1.82.92-2.94 1.71-4.49.79-1.56 1.41-2.33 2.25-3.29.83-.96 1.34-1.33 1.94-1.5.6-.16.89-.03 1.04.68.15.7.13 1.38-.28 2.86-.42 1.48-.79 2.63-1.79 4.54s-1.73 3.16-3.21 5.01-2.46 2.86-4.18 4.23-2.74 1.98-4.42 2.61c-1.68.64-2.58.76-4 .55-1.41-.2-2.1-.57-3.09-1.59-.98-1.02-1.37-1.87-1.82-3.5-.45-1.62-.45-2.8-.44-4.62.02-1.81.29-2.94.52-4.45.23-1.5.48-2.29.64-3.07s.23-1.01.16-.83-.14.68-.51 1.75c-.38 1.07-.61 2.07-1.37 3.6-.76 1.52-1.31 2.64-2.44 4.02-1.12 1.38-1.83 2.07-3.18 2.87-1.35.79-2.14 1.08-3.56 1.1-1.42.03-2.19-.15-3.56-.99s-2.1-1.51-3.28-3.21c-1.19-1.7-1.76-2.85-2.65-5.29s-1.33-4.03-1.8-6.92c-.48-2.88-.58-4.63-.58-7.51.01-2.88.22-4.45.6-6.89s.71-3.62 1.3-5.31c.59-1.7 1.01-2.31 1.64-3.17.64-.85.95-1.09 1.53-1.11.57-.02.87.13 1.35 1.01.48.87.79 1.58 1.07 3.37.27 1.78.39 3.01.32 5.57s-.15 4.22-.67 7.22c-.53 3.01-.94 4.78-1.95 7.81s-1.72 4.69-3.11 7.33c-1.39 2.65-2.3 3.91-3.84 5.89-1.54 1.99-2.38 2.84-3.85 4.03-1.48 1.19-2.26 1.61-3.53 1.93-1.28.33-1.88.27-2.85-.29-.98-.57-1.42-1.11-2.04-2.52s-.85-2.47-1.05-4.55c-.21-2.09-.13-3.51.03-5.86s.5-3.79.77-5.9c.26-2.1.46-3.21.55-4.61.1-1.4.11-2.02-.07-2.37-.19-.35-.41-.19-.85.62s-.72 1.72-1.36 3.44-.99 3-1.85 5.15c-.87 2.14-1.45 3.52-2.48 5.57-1.02 2.06-1.64 3.2-2.65 4.72s-1.52 2.15-2.41 2.88-1.27.89-2.05.76c-.77-.14-1.12-.42-1.81-1.44s-1.05-1.82-1.64-3.65-.88-3.07-1.31-5.51c-.42-2.43-.59-3.95-.81-6.66-.21-2.7-.27-4.28-.26-6.85 0-2.57.09-3.92.27-6 .17-2.08.37-3 .6-4.41s.39-1.92.54-2.64c.14-.71.13-.78.18-.94.06-.16.03-.15.1.13.06.28.14.51.21 1.28.07.76.16 1.29.15 2.56-.01 1.28-.01 2.07-.21 3.8-.19 1.74-.33 2.75-.75 4.88-.42 2.12-.7 3.38-1.34 5.76-.65 2.39-1.02 3.74-1.88 6.16s-1.39 3.73-2.42 5.94c-1.04 2.2-1.66 3.33-2.75 5.08-1.1 1.75-1.69 2.52-2.73 3.66-1.05 1.14-1.59 1.57-2.49 2.03-.91.46-1.32.55-2.04.27-.73-.28-1.05-.67-1.59-1.68-.53-1.01-.8-1.83-1.09-3.36-.29-1.54-.32-2.61-.36-4.3s.1-2.75.16-4.17c.06-1.41.12-2.14.13-2.9.02-.77 0-.99-.05-.94-.04.04-.13.4-.17 1.16s-.01 1.49-.03 2.63c-.02 1.13-.1 1.91-.08 3.05s-.01 1.81.19 2.66.42 1.24.8 1.59c.37.34.69.37 1.08.14.38-.22.55-.52.84-1.28s.36-1.33.59-2.52c.23-1.18.34-1.96.57-3.38.22-1.43.35-2.26.55-3.73.21-1.47.37-2.27.48-3.61.11-1.35.18-2.07.07-3.12s-.27-1.53-.63-2.13c-.36-.61-.66-.85-1.17-.9s-.79.04-1.37.65-.87 1.12-1.54 2.42-1.04 2.23-1.82 4.08c-.77 1.86-1.22 3.09-2.05 5.2s-1.29 3.37-2.1 5.34-1.21 3.01-1.94 4.5c-.72 1.49-1.05 2.13-1.69 2.96-.63.84-.87 1.07-1.5 1.23-.64.17-.88.05-1.66-.39-.78-.43-1.23-.86-2.24-1.78-1-.92-1.56-1.54-2.77-2.81-1.2-1.28-1.85-2.09-3.25-3.56-1.39-1.48-2.22-2.31-3.72-3.82-1.49-1.51-2.32-2.28-3.76-3.74-1.44-1.45-2.19-2.2-3.43-3.52-1.25-1.33-1.86-2.05-2.8-3.11-.94-1.07-1.27-1.52-1.91-2.22-.64-.71-.86-1.12-1.3-1.29-.43-.17-.77-.04-.87.44"/><path d="m21.47 113.63c-.28.37-.36.6-.56 1.84s-.39 2.03-.46 4.36c-.06 2.33.09 3.87.14 7.28.06 3.4.13 5.55.13 9.73s-.04 6.71-.1 11.17c-.06 4.45-.1 6.98-.2 11.1-.09 4.12-.25 6.28-.28 9.51-.03 3.22-.01 4.85.13 6.6.14 1.74.42 2.29.56 2.12.14-.18.36-.9.14-3.01-.23-2.12-.6-3.87-1.27-7.57-.68-3.7-1.27-6.26-2.09-10.93-.83-4.67-1.33-7.49-2.05-12.42-.72-4.94-1.05-7.67-1.56-12.25-.51-4.59-.73-6.88-.99-10.68s-.28-5.53-.32-8.31-.11-3.92.12-5.58.38-2.1 1.02-2.72c.64-.63.98-.53 2.18-.39 1.19.15 1.99.55 3.81 1.1s3 .99 5.29 1.65c2.28.66 3.69 1.04 6.15 1.64 2.47.61 3.85.93 6.17 1.38 2.31.45 3.55.62 5.41.87 1.86.26 2.69.35 3.9.42 1.21.06 1.57-.04 2.14-.09.58-.05.55-.06.72-.17.16-.1.21-.17.11-.35-.1-.19-.08-.31-.61-.57-.53-.27-.88-.47-2.05-.77-1.18-.31-2-.4-3.82-.77-1.81-.37-3.01-.56-5.27-1.08s-3.6-.86-6.02-1.51c-2.41-.66-3.76-1.11-6.06-1.75-2.29-.64-3.45-1.09-5.43-1.47s-2.95-.58-4.46-.41c-1.52.17-2.14.34-3.12 1.27s-1.32 1.52-1.77 3.39c-.45 1.86-.53 3.07-.49 5.94.05 2.87.34 4.59.71 8.42.38 3.83.62 6.11 1.16 10.71s.88 7.33 1.55 12.29 1.12 7.79 1.8 12.5.98 7.3 1.6 11.03.83 5.52 1.48 7.61c.65 2.08 1.17 2.71 1.77 2.82.6.1.92-.5 1.23-2.28.31-1.79.25-3.43.31-6.66.05-3.23-.07-5.38-.04-9.5.02-4.13.08-6.65.17-11.1.1-4.45.17-6.98.31-11.17.14-4.18.27-6.33.39-9.74.12-3.4.24-4.96.21-7.28-.04-2.33-.21-3.13-.4-4.37s-.28-1.48-.56-1.85-.55-.36-.83 0"/><path d="m.76 146.49c.39.36.79.65 2.1.9 1.3.25 2.25.45 4.44.34 2.18-.11 3.69-.28 6.49-.88 2.8-.59 4.49-1.19 7.52-2.1 3.03-.9 4.72-1.49 7.64-2.43 2.92-.93 4.48-1.42 6.97-2.23 2.49-.8 3.73-1.32 5.47-1.79 1.75-.47 2.42-.71 3.25-.55s.86.33.92 1.35c.05 1.03-.23 1.78-.65 3.77-.41 1.99-.87 3.39-1.44 6.18-.57 2.8-.93 4.65-1.42 7.8-.49 3.14-.89 5.03-1.02 7.93-.13 2.91-.15 4.45.37 6.58.51 2.13 1 3.17 2.2 4.07 1.19.91 2.07 1.01 3.77.45 1.7-.57 2.8-1.29 4.72-3.27 1.93-1.98 2.89-3.54 4.89-6.62 2.01-3.09 3.09-5.09 5.12-8.8s3.15-5.87 5.05-9.76c1.9-3.9 2.87-6.07 4.44-9.71 1.58-3.64 2.37-5.48 3.44-8.5 1.06-3.02 1.5-4.43 1.9-6.59.4-2.15.42-3.06.1-4.18s-.78-1.5-1.7-1.41c-.91.08-1.67.43-2.88 1.83-1.2 1.4-2.01 2.53-3.15 5.17-1.13 2.65-1.61 4.52-2.54 8.07s-1.48 5.74-2.12 9.68c-.65 3.94-.95 6.21-1.11 10.03-.15 3.81-.16 5.86.33 9.04.48 3.18.94 4.72 2.1 6.86 1.15 2.14 1.98 2.98 3.66 3.86 1.68.89 2.75.97 4.74.57 2-.4 3.19-1.06 5.23-2.58s3.12-2.76 4.99-5c1.87-2.25 2.84-3.81 4.35-6.24s2.28-4.02 3.19-5.91c.92-1.88 1.14-2.83 1.39-3.52.26-.69.07-.62-.12.09-.2.7-.56 1.6-.86 3.42-.29 1.83-.55 3.38-.6 5.7s.04 3.86.36 5.91c.31 2.05.53 3.08 1.21 4.35s1.13 1.75 2.19 1.98 1.79.05 3.12-.82c1.32-.87 2.09-1.78 3.49-3.54 1.39-1.76 2.13-3.13 3.46-5.27 1.34-2.14 2.14-3.58 3.2-5.41s1.53-2.86 2.1-3.74c.57-.89.64-1.05.75-.68.1.36-.08 1.05-.21 2.5s-.39 2.74-.45 4.75c-.06 2-.08 3.41.15 5.28.23 1.88.4 2.89.99 4.09.6 1.2 1.01 1.69 2 1.92s1.66.06 2.94-.76c1.27-.82 2.05-1.68 3.44-3.33 1.39-1.64 2.18-2.96 3.52-4.9 1.35-1.95 2.13-3.23 3.21-4.81 1.07-1.59 1.53-2.42 2.16-3.12.62-.69.72-.79.96-.36.23.44.12 1.09.21 2.53.08 1.43-.04 2.62.2 4.64s.4 3.42 1 5.44c.6 2.03 1.09 3.16 2.01 4.7s1.61 2.19 2.59 2.99c.98.81 1.74.95 2.29 1.02.55.08.64-.18.44-.63-.2-.44-.82-.69-1.45-1.59-.64-.9-1.09-1.47-1.71-2.91-.63-1.44-1-2.41-1.42-4.3-.41-1.88-.36-3.17-.68-5.15-.32-1.97-.37-3.18-.9-4.71-.54-1.52-.89-2.3-1.77-2.9-.89-.6-1.47-.64-2.67-.1-1.21.53-1.94 1.28-3.35 2.77-1.4 1.48-2.26 2.75-3.67 4.66s-2.22 3.19-3.39 4.87c-1.17 1.69-1.7 2.6-2.45 3.57-.75.96-.97 1.28-1.31 1.27-.33 0-.33-.34-.38-1.34-.06-1.01.04-1.93.11-3.69.06-1.77.26-3.12.21-5.14-.04-2.02-.04-3.37-.43-4.96-.38-1.59-.69-2.42-1.5-2.99s-1.38-.56-2.55.15-1.93 1.65-3.29 3.39c-1.37 1.74-2.18 3.21-3.53 5.31-1.36 2.1-2.11 3.42-3.26 5.2s-1.68 2.69-2.48 3.68c-.79.98-1.06 1.3-1.49 1.26s-.51-.37-.68-1.44c-.16-1.08-.18-2.02-.15-3.93.02-1.91.23-3.37.29-5.63s.16-3.79 0-5.68c-.17-1.89-.3-2.89-.82-3.76-.53-.88-.9-1.11-1.81-.63s-1.5 1.3-2.74 3.04c-1.23 1.74-1.91 3.34-3.42 5.67-1.52 2.33-2.43 3.83-4.15 5.98-1.71 2.15-2.71 3.29-4.42 4.77-1.71 1.49-2.61 2.17-4.13 2.67-1.51.51-2.23.55-3.46-.13-1.22-.69-1.79-1.38-2.68-3.29-.9-1.92-1.34-3.3-1.8-6.29-.45-2.98-.6-4.97-.47-8.65s.42-5.94 1.12-9.76c.71-3.83 1.29-5.99 2.38-9.37 1.1-3.38 2.01-5.01 3.1-7.53 1.08-2.52 1.62-3.6 2.33-5.06.71-1.47.96-1.95 1.24-2.27s.29-.19.16.67c-.14.85-.29 1.62-.83 3.62s-.87 3.4-1.87 6.36c-1 2.97-1.63 4.86-3.13 8.48s-2.47 5.79-4.37 9.63c-1.9 3.85-3.03 6-5.13 9.61-2.09 3.61-3.29 5.54-5.35 8.45s-3.25 4.19-4.94 6.1-2.39 2.74-3.52 3.45c-1.14.72-1.54.78-2.17.13-.63-.66-.83-1.5-1-3.39s-.09-3.32.14-6.06c.22-2.75.43-4.62.98-7.68s1.18-4.81 1.75-7.62c.58-2.81.97-4.25 1.13-6.43s.16-3.12-.32-4.48c-.49-1.36-.86-1.82-2.09-2.32-1.24-.5-2.11-.45-4.09-.18-1.97.27-3.24.76-5.79 1.52s-4.05 1.36-6.97 2.28c-2.91.92-4.58 1.52-7.58 2.3-3.01.78-4.72 1.09-7.43 1.6-2.72.51-4.12.68-6.17.96-2.05.27-2.87.29-4.1.43s-1.62.04-2.05.28c-.44.23-.53.53-.13.88"/><path d="m199.86 121.86c-.23.55-.23 1.08-.27 2.66s-.09 2.58.07 5.25.47 4.41.74 8.1c.27 3.7.42 6.01.63 10.38.21 4.36.28 6.94.41 11.45.13 4.52.17 7.04.23 11.12.06 4.07-.06 6.22.07 9.25.13 3.04.3 4.41.58 5.92.29 1.52.61 1.9.85 1.64.25-.26.49-.98.37-2.94s-.4-3.56-.95-6.88-1.13-5.54-1.81-9.73c-.67-4.19-1.07-6.72-1.58-11.21-.51-4.5-.73-6.94-.95-11.26s-.3-6.52-.15-10.33c.15-3.82.32-5.67.89-8.74.57-3.08 1.02-4.45 1.96-6.64.93-2.19 1.47-3.07 2.71-4.31 1.25-1.24 2.03-1.6 3.52-1.88 1.5-.28 2.39-.14 3.95.48 1.56.63 2.44 1.22 3.86 2.65 1.42 1.42 2.27 2.38 3.25 4.47s1.42 3.41 1.66 5.98.19 4.09-.45 6.86c-.64 2.78-1.27 4.36-2.76 7.02-1.49 2.65-2.65 4.07-4.68 6.24s-3.38 3.15-5.48 4.61c-2.1 1.45-3.31 1.99-5.03 2.66-1.72.68-2.58.71-3.56.72-.99.02-1.34-.15-1.37-.64-.02-.48.53-1 1.24-1.78.71-.77 1.46-1.21 2.31-2.09s1.68-1.65 1.93-2.31c.25-.65.05-1.02-.69-.97-.75.05-1.92.41-3.03 1.23-1.1.82-1.88 1.62-2.49 2.87-.6 1.25-.9 2.33-.52 3.38.37 1.06 1.03 1.57 2.41 1.9 1.37.32 2.43.32 4.46-.27 2.03-.6 3.39-1.17 5.69-2.72 2.31-1.54 3.66-2.67 5.82-5.02 2.15-2.35 3.36-3.85 4.97-6.7 1.61-2.86 2.33-4.54 3.07-7.58.75-3.04.9-4.74.66-7.63s-.73-4.44-1.87-6.84-2.1-3.54-3.83-5.16-2.84-2.3-4.82-2.96c-1.98-.65-3.18-.73-5.09-.31s-2.91.96-4.45 2.41c-1.55 1.46-2.23 2.48-3.29 4.87-1.05 2.4-1.45 3.89-1.98 7.12s-.59 5.12-.68 9.02 0 6.11.23 10.48c.23 4.36.46 6.81.9 11.34s.79 7.08 1.29 11.31c.51 4.24.72 6.52 1.24 9.87.52 3.34.79 4.94 1.36 6.85.58 1.91 1.04 2.52 1.52 2.69.48.18.7-.26.89-1.81.19-1.56.14-2.92.06-5.95-.08-3.04-.31-5.16-.46-9.23-.16-4.07-.19-6.59-.31-11.11-.11-4.52-.16-7.1-.26-11.48-.1-4.37-.14-6.69-.23-10.41-.08-3.72.02-5.5-.18-8.19s-.49-3.69-.82-5.25c-.34-1.56-.51-2.07-.86-2.57-.35-.49-.66-.45-.9.1"/><path d="m234.79 119.2c-.32.42-.42.79-.7 2.14-.29 1.36-.51 2.19-.73 4.64s-.17 4.1-.39 7.62c-.21 3.52-.35 5.76-.68 9.97s-.59 6.75-.98 11.07c-.38 4.33-.64 6.81-.96 10.55-.32 3.75-.66 5.62-.64 8.18.03 2.56.21 3.61.79 4.63.57 1.01 1.09 1.06 2.09.43.99-.63 1.7-1.63 2.88-3.6 1.19-1.97 1.83-3.64 3.03-6.24 1.19-2.6 1.86-4.34 2.95-6.74 1.1-2.4 1.72-3.69 2.53-5.24.82-1.55 1.12-2.16 1.54-2.52s.42-.16.56.71.03 1.8.16 3.66c.12 1.86.15 3.28.48 5.65.34 2.36.56 3.89 1.2 6.15.63 2.26.97 3.54 1.98 5.15s1.66 2.31 3.08 2.9c1.42.6 2.32.61 4.02.07 1.7-.55 2.69-1.25 4.47-2.8s2.76-2.77 4.42-4.95c1.65-2.18 2.55-3.66 3.85-5.93 1.31-2.28 2.03-3.7 2.67-5.46s.72-2.67.54-3.33c-.17-.67-.68-.7-1.42 0-.73.7-1.45 1.61-2.23 3.5-.79 1.9-1.29 3.48-1.69 5.99-.4 2.5-.47 4.16-.3 6.53.18 2.37.4 3.65 1.17 5.32.77 1.68 1.4 2.41 2.68 3.05 1.28.65 2.2.69 3.71.19 1.51-.51 2.47-1.16 3.83-2.71 1.36-1.54 2.08-2.75 2.97-5.03s1.26-3.82 1.47-6.35c.2-2.54.12-4.06-.43-6.32-.54-2.26-1.13-3.41-2.29-4.99s-2.06-2.21-3.5-2.91c-1.45-.7-2.43-.75-3.73-.6-1.3.14-2.09.59-2.76 1.33-.67.75-.89 1.55-.6 2.39s.82 1.46 2.05 1.83c1.24.37 2.22.46 4.14.01 1.93-.45 3.17-.88 5.47-2.26 2.31-1.38 3.62-2.43 6.05-4.64 2.43-2.22 3.76-3.59 6.11-6.43 2.34-2.83 3.56-4.56 5.62-7.74s3.05-5.02 4.68-8.16c1.62-3.13 2.44-4.81 3.44-7.5 1-2.68 1.31-4.09 1.54-5.93.24-1.85.06-2.65-.36-3.27-.42-.63-.97-.67-1.73.15-.75.82-1.37 1.65-2.04 3.94s-.87 3.96-1.31 7.52c-.43 3.55-.59 5.85-.86 10.26-.28 4.4-.42 7.05-.52 11.79-.09 4.74-.11 7.39.04 11.9.16 4.52.29 6.92.74 10.69.44 3.76.66 5.58 1.5 8.13s1.5 3.5 2.7 4.61 2 1.32 3.3.94c1.29-.37 2.12-1.08 3.18-2.8 1.07-1.71 1.63-3.14 2.14-5.75s.61-4.4.41-7.3c-.19-2.9-.51-4.62-1.41-7.2-.89-2.57-1.61-3.89-3.06-5.67-1.45-1.79-2.49-2.48-4.18-3.25-1.7-.78-2.8-.83-4.29-.64-1.48.19-2.35.68-3.14 1.6-.8.92-1.06 1.79-.83 3.01.22 1.23.69 2.07 1.97 3.13 1.27 1.06 2.31 1.62 4.41 2.18s3.5.67 6.1.61 4.15-.32 6.89-.91c2.73-.6 4.29-1.12 6.79-2.05 2.5-.92 3.87-1.55 5.71-2.58 1.84-1.04 2.71-1.77 3.48-2.59s.74-1.38.37-1.52c-.36-.13-1.08-.04-2.18.86-1.11.9-2.08 1.72-3.34 3.64s-2.07 3.4-2.97 5.95-1.35 4.21-1.55 6.8c-.19 2.59-.12 4.06.57 6.16.69 2.11 1.36 3.15 2.89 4.37 1.53 1.21 2.68 1.61 4.77 1.72 2.09.1 3.46-.16 5.67-1.21 2.2-1.06 3.5-2.01 5.34-4.06 1.85-2.06 2.79-3.54 3.87-6.23 1.08-2.68 1.46-4.36 1.54-7.2.08-2.85-.17-4.52-1.12-7.02-.95-2.49-1.88-3.76-3.63-5.48-1.76-1.71-3.09-2.39-5.14-3.11s-3.34-.73-5.1-.47c-1.75.25-2.74.78-3.67 1.74-.94.97-1.23 1.86-1 3.09.23 1.24.75 2.08 2.17 3.07 1.41 1 2.56 1.45 4.89 1.91 2.32.45 3.87.54 6.75.38 2.88-.15 4.6-.52 7.66-1.16s4.81-1.13 7.64-2.04c2.84-.91 4.31-1.5 6.54-2.5 2.24-1 3.25-1.61 4.63-2.5 1.38-.9 1.72-1.36 2.28-1.98.55-.62.47-.85.5-1.13.04-.29-.07-.32-.32-.28-.24.04-.21.15-.9.47-.68.32-1.11.49-2.54 1.14-1.42.64-2.4 1.19-4.58 2.07-2.19.88-3.61 1.48-6.36 2.33-2.75.86-4.45 1.4-7.38 1.95-2.94.55-4.61.7-7.3.8s-4.09-.01-6.16-.29c-2.08-.29-3.02-.6-4.22-1.12s-1.57-.91-1.81-1.5c-.23-.59-.04-.96.64-1.43.68-.46 1.4-.81 2.77-.89 1.38-.08 2.43-.14 4.11.48 1.68.61 2.82 1.15 4.29 2.61 1.47 1.45 2.27 2.51 3.05 4.66s.98 3.62.86 6.1c-.13 2.49-.48 3.97-1.47 6.33-.98 2.36-1.86 3.64-3.45 5.46-1.59 1.81-2.7 2.62-4.5 3.59-1.8.98-2.89 1.25-4.51 1.28-1.63.04-2.48-.18-3.61-1.09-1.12-.91-1.59-1.71-2-3.46-.41-1.74-.4-3.01-.05-5.26.35-2.26.87-3.74 1.8-6.02.92-2.28 1.79-3.53 2.82-5.38 1.03-1.86 1.72-2.7 2.33-3.9.61-1.19.87-1.66.72-2.07s-.43-.34-1.47 0c-1.04.35-1.88.91-3.73 1.72-1.84.8-3.1 1.48-5.49 2.31s-3.9 1.32-6.47 1.85-4.03.74-6.39.81c-2.35.06-3.58-.11-5.39-.49-1.81-.39-2.61-.82-3.68-1.44-1.06-.62-1.4-1.04-1.65-1.65-.26-.61-.13-.96.37-1.41.49-.44 1.04-.76 2.1-.82 1.07-.06 1.91-.12 3.21.54s2.16 1.2 3.3 2.77 1.73 2.76 2.41 5.09.88 3.93.99 6.57c.11 2.65-.1 4.28-.46 6.65-.35 2.37-.73 3.65-1.31 5.22-.58 1.58-.91 2.27-1.58 2.65-.67.39-1.06.28-1.78-.72s-1.11-1.85-1.81-4.25c-.7-2.41-1.17-4.11-1.68-7.76-.52-3.66-.72-6.05-.9-10.52-.19-4.46-.17-7.11-.02-11.8.14-4.7.3-7.34.73-11.68.44-4.35.85-6.6 1.44-10.06.6-3.45 1.11-4.98 1.54-7.22.43-2.25.53-3.08.61-4s.01-1.02-.2-.6-.32 1.05-.86 2.7-.84 2.95-1.81 5.54c-.98 2.59-1.55 4.33-3.06 7.41s-2.49 4.9-4.51 8c-2.02 3.09-3.23 4.78-5.57 7.46s-3.71 3.95-6.11 5.94-3.76 2.79-5.89 4.02c-2.13 1.22-3.19 1.57-4.76 2.09-1.57.53-2.25.48-3.1.54s-1.04-.07-1.17-.24.07-.36.54-.6.91-.58 1.8-.62 1.59-.14 2.64.41c1.06.55 1.76 1.03 2.63 2.34.86 1.32 1.33 2.3 1.69 4.26s.38 3.31.12 5.54c-.25 2.22-.64 3.6-1.39 5.61-.76 2.01-1.38 3.04-2.36 4.43-.99 1.4-1.62 1.99-2.57 2.54-.96.54-1.47.63-2.21.19-.73-.44-1.1-.98-1.47-2.38-.37-1.41-.49-2.53-.38-4.65.1-2.11.46-3.6.88-5.92s.86-3.78 1.23-5.67c.36-1.9.6-2.89.61-3.81s-.06-1.15-.56-.81c-.51.33-.97.99-1.95 2.51-.98 1.51-1.62 2.91-2.97 5.05-1.34 2.14-2.22 3.56-3.75 5.65-1.54 2.08-2.47 3.23-3.93 4.76s-2.19 2.24-3.38 2.87c-1.2.64-1.72.73-2.6.3-.88-.42-1.22-.98-1.82-2.42-.61-1.43-.8-2.61-1.19-4.76-.4-2.14-.45-3.64-.78-5.97-.33-2.32-.39-3.74-.87-5.65-.48-1.9-.76-2.9-1.53-3.89-.78-.98-1.29-1.28-2.35-1.03-1.05.25-1.69.8-2.93 2.29-1.25 1.49-1.96 2.79-3.29 5.16s-2.18 4.07-3.36 6.69-1.8 4.31-2.56 6.39c-.76 2.09-.95 3.22-1.25 4.03-.29.82-.26.9-.24.06.03-.85.23-1.82.38-4.29.16-2.47.16-4.36.4-8.08.25-3.73.44-6.22.83-10.54.39-4.31.67-6.85 1.12-11.05s.75-6.43 1.13-9.95c.39-3.51.66-5.15.81-7.61.14-2.47.02-3.33-.07-4.71-.1-1.39-.16-1.77-.41-2.22-.26-.46-.56-.48-.87-.06"/><path d="m440.25 118.82c-.2-.43-.55-.81-1.41-1.29-.87-.48-1.49-.81-2.91-1.12s-2.41-.52-4.2-.44c-1.8.08-2.87.24-4.76.84-1.9.6-3 1.02-4.73 2.15-1.74 1.12-2.69 1.85-3.94 3.48s-1.84 2.66-2.32 4.68c-.49 2.01-.54 3.17-.11 5.38s.94 3.41 2.24 5.67c1.29 2.26 2.27 3.44 4.23 5.64 1.95 2.21 3.27 3.27 5.53 5.38 2.26 2.12 3.62 3.18 5.76 5.19 2.14 2.02 3.3 3.01 4.95 4.87 1.64 1.86 2.42 2.73 3.27 4.42.84 1.7 1.06 2.48.93 4.05-.12 1.58-.48 2.34-1.54 3.84s-1.91 2.28-3.76 3.68c-1.84 1.39-3.11 2.14-5.45 3.29-2.33 1.15-3.79 1.71-6.22 2.46s-3.82 1.04-5.93 1.29-3.16.24-4.62-.04c-1.47-.28-2.05-.54-2.7-1.35-.64-.8-.75-1.3-.53-2.67.23-1.38.61-2.23 1.66-4.19 1.06-1.97 1.83-3.22 3.6-5.66 1.78-2.43 2.92-3.87 5.29-6.52s3.83-4.06 6.56-6.72c2.74-2.67 4.3-4.04 7.12-6.6 2.83-2.55 4.34-3.82 7-6.19 2.67-2.37 4.05-3.52 6.32-5.66 2.28-2.14 3.39-3.18 5.07-5.05 1.69-1.87 2.38-2.78 3.36-4.29s1.31-2.19 1.55-3.26.12-1.57-.34-2.11c-.45-.53-1.03-.78-1.95-.56-.93.21-1.63.52-2.66 1.64-1.02 1.12-1.57 1.93-2.48 3.96s-1.4 3.31-2.06 6.18-.88 4.66-1.24 8.17-.47 5.6-.57 9.38-.08 5.93.07 9.53c.14 3.6.19 5.54.65 8.47.45 2.92.82 4.31 1.62 6.16.8 1.86 1.35 2.5 2.39 3.12s1.64.58 2.81-.01c1.17-.6 1.86-1.35 3.03-2.98s1.8-2.99 2.82-5.16c1.01-2.17 1.49-3.65 2.25-5.7.77-2.06 1.13-3.24 1.57-4.58.43-1.33.49-1.85.59-2.08.11-.22-.05.05-.07.96-.03.91-.19 1.84-.07 3.59.13 1.76.23 3.1.71 5.2.47 2.09.8 3.43 1.67 5.29.87 1.87 1.41 2.88 2.68 4.04 1.26 1.17 2.06 1.6 3.65 1.78 1.59.19 2.54-.04 4.29-.85 1.74-.81 2.74-1.6 4.42-3.2s2.55-2.78 3.96-4.81c1.4-2.03 2.09-3.36 3.06-5.34.97-1.97 1.41-3.07 1.78-4.55s.34-2.18.07-2.85c-.28-.67-.71-.82-1.44-.5-.72.32-1.38.79-2.19 2.09s-1.3 2.39-1.85 4.4c-.54 2.01-.74 3.41-.88 5.66s-.17 3.59.19 5.6.7 3.06 1.6 4.43c.91 1.36 1.6 1.94 2.93 2.4 1.34.46 2.26.46 3.76-.12 1.49-.57 2.4-1.21 3.7-2.74 1.31-1.54 1.98-2.7 2.82-4.91.84-2.22 1.19-3.68 1.39-6.18.2-2.49.11-3.99-.39-6.31-.51-2.32-1.03-3.56-2.14-5.29-1.1-1.73-1.96-2.47-3.39-3.36-1.44-.9-2.43-1.09-3.78-1.09-1.34 0-2.16.35-2.97 1.05-.8.71-1.13 1.46-1.06 2.48.06 1.02.37 1.79 1.39 2.62 1.02.84 1.92 1.26 3.7 1.55s2.96.23 5.2-.1 3.58-.74 6-1.54c2.41-.8 3.79-1.42 6.08-2.44 2.29-1.03 3.51-1.72 5.36-2.67 1.86-.95 2.78-1.55 3.91-2.08 1.12-.52 1.42-.8 1.71-.54s.07.59-.27 1.83-.79 2.23-1.43 4.36c-.63 2.14-1.12 3.68-1.75 6.32-.64 2.64-1.03 4.3-1.41 6.87-.39 2.57-.62 3.99-.52 5.99s.31 2.95 1.02 4.02 1.31 1.4 2.52 1.34c1.22-.05 2.05-.46 3.53-1.61 1.49-1.15 2.4-2.22 3.9-4.14 1.5-1.93 2.33-3.34 3.6-5.49 1.26-2.14 1.94-3.53 2.74-5.23.8-1.69 1.01-2.57 1.24-3.26s.05-.69-.07-.17c-.12.53-.44 1.27-.53 2.81-.1 1.53-.22 2.86.07 4.87.28 2.01.61 3.33 1.35 5.17.73 1.84 1.22 2.79 2.34 4.02s1.83 1.76 3.26 2.14c1.43.39 2.33.35 3.88-.23s2.44-1.19 3.86-2.67c1.42-1.49 2.17-2.59 3.23-4.76 1.07-2.17 1.57-3.64 2.09-6.09.52-2.46.61-3.92.53-6.17-.07-2.24-.36-3.39-.9-5.06s-1.02-2.35-1.79-3.28-1.38-1.2-2.07-1.37c-.69-.16-1.19.13-1.37.55s-.15 1 .45 1.56 1.16.92 2.54 1.24c1.39.31 2.39.4 4.38.34 1.98-.07 3.2-.25 5.56-.66 2.35-.41 3.71-.75 6.2-1.41 2.49-.65 3.91-1.09 6.24-1.86s3.57-1.24 5.4-1.99 2.72-1.13 3.74-1.75c1.01-.63 1.31-1.02 1.34-1.4.04-.38-.32-.64-1.17-.51-.85.14-1.68.29-3.09 1.19s-2.37 1.65-3.97 3.31c-1.59 1.67-2.54 2.78-4.01 5.02-1.46 2.23-2.3 3.58-3.31 6.15-1 2.57-1.44 4.12-1.71 6.7s-.22 4.01.35 6.2 1.1 3.29 2.5 4.76c1.4 1.48 2.41 2.11 4.5 2.6 2.09.5 3.43.46 5.95-.13 2.52-.58 3.99-1.29 6.66-2.82 2.66-1.52 4.1-2.66 6.67-4.79 2.57-2.12 3.91-3.49 6.19-5.83 2.28-2.33 3.49-3.64 5.23-5.83 1.73-2.2 2.5-3.34 3.46-5.14.95-1.79 1.24-2.63 1.32-3.82.08-1.2-.22-1.7-.93-2.15-.72-.44-1.43-.51-2.65-.09-1.22.43-2.07.9-3.46 2.2-1.4 1.29-2.21 2.28-3.5 4.28-1.28 1.99-1.96 3.33-2.92 5.7-.97 2.37-1.43 3.81-1.92 6.14s-.66 3.61-.54 5.51c.12 1.91.37 2.87 1.13 4.02.77 1.14 1.42 1.56 2.7 1.7 1.28.13 2.19-.09 3.71-1.03 1.51-.95 2.4-1.81 3.87-3.71 1.48-1.91 2.26-3.31 3.5-5.84 1.24-2.52 1.86-4.13 2.7-6.81.84-2.67 1.21-4.34 1.49-6.56s.21-3.39-.08-4.54c-.29-1.16-.74-1.45-1.37-1.26s-1.21.77-1.77 2.21c-.56 1.45-.92 2.78-1.02 5.03-.09 2.24.06 3.81.52 6.2.47 2.38.83 3.76 1.82 5.74.99 1.97 1.63 2.96 3.13 4.14 1.5 1.17 2.48 1.62 4.38 1.74 1.89.11 3.01-.14 5.1-1.15 2.08-1.01 3.25-1.91 5.31-3.91 2.07-2 3.1-3.49 5.01-6.09 1.91-2.59 2.89-4.24 4.55-6.9 1.65-2.66 2.48-4.14 3.72-6.39s1.77-3.36 2.49-4.86c.73-1.51.91-2.09 1.13-2.65.21-.57.03-.58-.05-.17s-.34.94-.36 2.23c-.03 1.28 0 2.24.23 4.18.22 1.93.5 3.16.91 5.5s.69 3.71 1.12 6.18c.44 2.46.71 3.81 1.06 6.13.34 2.33.52 3.51.66 5.49s.16 2.94.04 4.4-.26 2.05-.65 2.89c-.38.84-.69 1.08-1.28 1.31-.59.24-.98.11-1.67-.13-.69-.25-1.13-.55-1.79-1.11-.66-.55-1.05-.99-1.5-1.68-.45-.7-.72-1.12-.73-1.79-.02-.67.02-.98.65-1.54.64-.57 1.14-.8 2.52-1.28s2.34-.64 4.4-1.12c2.05-.48 3.36-.67 5.87-1.26 2.5-.59 3.97-.89 6.65-1.68 2.68-.8 4.16-1.24 6.73-2.31 2.58-1.07 3.92-1.69 6.15-3.06 2.22-1.38 3.31-2.2 4.96-3.83 1.65-1.62 2.38-2.56 3.29-4.29s1.18-2.72 1.25-4.36c.08-1.64-.13-2.58-.86-3.84-.74-1.25-1.43-1.89-2.82-2.44-1.38-.54-2.41-.66-4.11-.27-1.71.39-2.8.87-4.41 2.23-1.6 1.36-2.5 2.4-3.62 4.58s-1.66 3.62-1.98 6.31c-.32 2.7-.34 4.35.36 7.16.7 2.82 1.37 4.42 3.14 6.91s3.04 3.74 5.73 5.54c2.68 1.8 4.33 2.57 7.7 3.47 3.37.89 5.68.94 9.14 1.02s5.41-.15 8.15-.64c2.73-.49 3.88-1.12 5.53-1.82 1.65-.71 2.24-1.25 2.73-1.71.49-.47.38-.64-.27-.62-.64.03-1.28.42-2.96.76-1.67.35-2.78.63-5.41.99-2.64.36-4.47.84-7.74.83s-5.5-.05-8.63-.87-4.6-1.57-7.01-3.23c-2.4-1.66-3.48-2.83-5.02-5.07-1.53-2.25-2.08-3.66-2.66-6.14-.57-2.48-.53-3.92-.23-6.26.31-2.34.81-3.58 1.76-5.44.95-1.85 1.72-2.69 2.98-3.84s2.09-1.51 3.32-1.91c1.23-.39 1.9-.35 2.84-.07.93.28 1.35.64 1.82 1.49s.64 1.5.52 2.74-.31 2.04-1.13 3.47c-.82 1.42-1.46 2.25-2.99 3.66-1.52 1.42-2.53 2.18-4.63 3.42-2.09 1.24-3.37 1.81-5.84 2.79-2.47.97-3.9 1.37-6.52 2.09-2.61.73-4.04.97-6.53 1.53s-3.8.71-5.92 1.26-3.15.76-4.7 1.5-2.2 1.17-3.05 2.18c-.86 1-1.1 1.66-1.22 2.85-.12 1.2.07 1.99.62 3.1.55 1.12 1.13 1.75 2.13 2.48 1 .74 1.73 1.02 2.87 1.19 1.15.17 1.84.12 2.84-.35 1.01-.48 1.53-.92 2.19-2.02.67-1.11.89-1.85 1.16-3.5.27-1.66.26-2.69.2-4.79-.06-2.09-.23-3.31-.51-5.7s-.53-3.75-.89-6.24c-.37-2.48-.6-3.86-.94-6.2-.33-2.33-.42-3.55-.73-5.47s-.42-2.83-.82-4.12c-.41-1.29-.66-1.84-1.23-2.33-.56-.49-.87-.58-1.62-.13-.74.45-1.11.96-2.09 2.37-.99 1.42-1.54 2.5-2.84 4.7s-2.03 3.72-3.66 6.32c-1.62 2.61-2.6 4.23-4.48 6.7s-3.02 3.75-4.91 5.63-2.85 2.76-4.53 3.77c-1.69 1-2.5 1.27-3.92 1.26-1.41-.01-2.08-.34-3.15-1.32s-1.53-1.82-2.2-3.58c-.66-1.76-.86-3.04-1.12-5.22-.27-2.18-.17-3.62-.2-5.68s.07-3.26.05-4.64c-.01-1.38-.01-1.98-.14-2.26-.13-.27-.22-.12-.51.87-.28.99-.4 2.03-.91 4.07-.51 2.05-.78 3.66-1.64 6.17-.85 2.51-1.48 4.03-2.65 6.4-1.17 2.36-1.96 3.63-3.2 5.42-1.23 1.8-1.92 2.56-2.97 3.54-1.04.98-1.55 1.27-2.26 1.35-.72.08-.98-.12-1.31-.96-.32-.83-.42-1.61-.32-3.23.09-1.63.26-2.79.81-4.9.56-2.11 1.01-3.48 1.97-5.65s1.64-3.39 2.82-5.2c1.18-1.82 1.98-2.62 3.08-3.87 1.09-1.25 1.68-1.74 2.41-2.39.73-.66 1-.91 1.24-.89.23.03.27.19-.09 1s-.67 1.49-1.73 3.04c-1.05 1.55-1.83 2.61-3.53 4.71s-2.76 3.49-4.96 5.77c-2.19 2.28-3.52 3.63-6.02 5.63-2.49 2-3.96 2.97-6.45 4.38-2.5 1.4-3.84 2.02-6.02 2.64-2.19.62-3.24.74-4.91.45-1.68-.29-2.41-.74-3.47-1.9s-1.44-2.04-1.82-3.9c-.37-1.86-.38-3.12-.05-5.4s.73-3.7 1.71-6.01 1.78-3.56 3.2-5.56c1.41-2 2.41-2.93 3.9-4.46 1.48-1.52 2.38-2.1 3.51-3.16 1.13-1.05 1.68-1.45 2.16-2.12.47-.66.55-.97.21-1.21s-.76-.24-1.91 0c-1.16.24-2.03.61-3.88 1.21-1.84.6-3.06 1.08-5.36 1.78-2.29.69-3.69 1.12-6.12 1.71-2.42.6-3.75.91-5.99 1.26-2.23.34-3.37.41-5.18.46-1.82.06-2.66-.13-3.87-.19-1.22-.07-1.6-.16-2.2-.13-.61.04-.73.14-.83.31-.09.18.03.21.33.57.31.36.72.43 1.2 1.23s.87 1.31 1.21 2.77c.35 1.45.55 2.48.51 4.48-.04 2.01-.16 3.34-.69 5.55-.52 2.2-1.01 3.54-1.93 5.49s-1.56 2.92-2.65 4.26c-1.09 1.33-1.72 1.86-2.79 2.43s-1.63.66-2.55.4-1.38-.65-2.07-1.7c-.7-1.05-.99-1.88-1.41-3.55-.41-1.66-.39-2.89-.66-4.78s-.32-3.12-.69-4.64c-.36-1.53-.56-2.32-1.15-2.97-.6-.64-.96-.78-1.83-.28-.88.51-1.41 1.26-2.54 2.81-1.12 1.55-1.76 2.92-3.09 4.95-1.32 2.03-2.19 3.34-3.52 5.22-1.33 1.87-2.11 2.92-3.15 4.18-1.04 1.25-1.44 1.78-2.05 2.08-.61.29-.78.17-.98-.63-.21-.79-.22-1.56-.03-3.34.18-1.78.43-3.11.96-5.54.52-2.43 1.01-4.03 1.68-6.62.66-2.6 1.2-4.1 1.65-6.35s.68-3.36.58-4.91c-.1-1.54-.28-2.17-1.08-2.82-.8-.66-1.46-.68-2.93-.45-1.48.23-2.47.79-4.43 1.61-1.97.82-3.13 1.53-5.38 2.48-2.25.94-3.59 1.52-5.88 2.25-2.28.73-3.55 1.07-5.56 1.4-2 .33-3 .32-4.46.23-1.45-.09-2.05-.35-2.82-.69-.77-.33-.91-.61-1-.99-.1-.39.05-.66.52-.94.48-.28.94-.54 1.85-.45.92.09 1.65.14 2.72.88 1.06.73 1.75 1.32 2.59 2.79.84 1.48 1.26 2.56 1.62 4.6.36 2.03.4 3.38.18 5.58-.23 2.21-.59 3.51-1.3 5.45-.71 1.95-1.3 2.94-2.26 4.28-.96 1.35-1.58 1.9-2.55 2.46-.98.57-1.51.65-2.32.37-.82-.29-1.22-.68-1.74-1.79-.52-1.1-.73-1.99-.86-3.73-.13-1.75-.06-2.98.21-5.01.27-2.02.66-3.26 1.13-5.1.46-1.85.84-2.81 1.2-4.12.35-1.31.52-1.89.56-2.43.04-.55-.06-.67-.38-.3-.31.36-.54.87-1.19 2.11s-1.04 2.28-2.05 4.09c-1.02 1.81-1.71 3.07-3.03 4.96-1.33 1.89-2.16 2.97-3.59 4.49-1.43 1.51-2.26 2.25-3.58 3.09-1.32.83-1.95 1.13-3.02 1.07-1.08-.06-1.54-.38-2.35-1.38-.8-.99-1.14-1.88-1.69-3.59-.54-1.71-.65-2.98-1.04-4.97-.38-2-.44-3.28-.87-5.01-.42-1.73-.63-2.67-1.25-3.63-.61-.97-1.02-1.33-1.83-1.2-.8.13-1.3.59-2.2 1.84-.91 1.26-1.37 2.44-2.32 4.42-.96 1.99-1.52 3.4-2.47 5.53-.95 2.12-1.51 3.44-2.28 5.08-.78 1.65-1.05 2.46-1.61 3.14s-.7.78-1.19.27c-.49-.5-.77-1.08-1.26-2.81s-.78-3.03-1.19-5.85c-.42-2.81-.69-4.7-.89-8.21-.19-3.52-.21-5.67-.07-9.37.14-3.71.29-5.78.78-9.17s.94-5.08 1.67-7.78 1.19-3.88 1.97-5.72c.79-1.85 1.28-2.46 1.94-3.51.66-1.04.98-1.3 1.36-1.73.37-.44.49-.55.51-.42s0 .31-.43 1.05-.72 1.32-1.74 2.64c-1.01 1.32-1.7 2.17-3.34 3.96-1.65 1.8-2.68 2.86-4.89 5.02-2.2 2.16-3.52 3.37-6.14 5.77s-4.13 3.67-6.96 6.24c-2.83 2.56-4.41 3.93-7.21 6.58s-4.28 4.04-6.79 6.66-3.83 3.95-5.76 6.44c-1.93 2.5-2.84 3.78-3.89 6.03-1.05 2.24-1.33 3.38-1.36 5.19-.02 1.81.29 2.65 1.24 3.87s1.75 1.7 3.52 2.24c1.76.55 2.96.62 5.32.48 2.35-.14 3.83-.42 6.46-1.16s4.17-1.29 6.68-2.54 3.88-2.06 5.86-3.69c1.97-1.64 2.89-2.62 4.01-4.5 1.13-1.88 1.5-2.91 1.62-4.9s-.13-3.03-1-5.05c-.87-2.03-1.67-3.05-3.36-5.09-1.69-2.03-2.91-3.03-5.08-5.09-2.16-2.06-3.55-3.09-5.75-5.19-2.2-2.11-3.41-3.22-5.26-5.33s-2.77-3.2-3.99-5.22c-1.23-2.01-1.72-3.02-2.14-4.86-.42-1.85-.38-2.75.03-4.38.41-1.62.91-2.42 2-3.73 1.08-1.31 1.9-1.91 3.41-2.82s2.5-1.28 4.15-1.74c1.65-.47 2.55-.53 4.1-.57 1.54-.04 2.36.2 3.62.36s1.81.31 2.68.43c.88.11 1.29.29 1.71.14s.61-.46.41-.9"/></g></svg>